<svg xmlns="http://www.w3.org/2000/svg" xmlns:xlink="http://www.w3.org/1999/xlink" fill="none" version="1.1" width="30" height="30" viewBox="0 0 30 30"><defs><linearGradient x1="0.10837093740701675" y1="0" x2="0.10837093740701675" y2="1" id="master_svg0_247_05230"><stop offset="0%" stop-color="#5790FC" stop-opacity="1"/><stop offset="44.999998807907104%" stop-color="#5862F0" stop-opacity="1"/><stop offset="100%" stop-color="#5862F0" stop-opacity="1"/></linearGradient></defs><g><g><path d="M29.190358486938475,27.243903515625L0.8096294869384766,27.243903515625Q0.7897380869384766,27.243903515625,0.7713609869384765,27.236303515625Q0.7529837869384766,27.228703515625,0.7389184869384766,27.214603515625Q0.7248531869384766,27.200503515625,0.7172411369384766,27.182203515625Q0.7096290588384766,27.163803515625,0.7096290588384766,27.143903515625L0.7096290588384766,26.025003515625L0.7096805569384765,26.021803515625L0.7096805569384765,2.856103515625Q0.7096805569384765,2.836212615625,0.7172926269384765,2.817835415625Q0.7249046869384765,2.799458215625,0.7389699869384766,2.785392915625Q0.7530352869384765,2.771327615625,0.7714124869384765,2.763715585625Q0.7897895869384766,2.756103515625,0.8096804869384766,2.756103515625L1.9285284869384767,2.756103515625Q1.9484184869384766,2.756103515625,1.9667984869384765,2.763715585625Q1.9851684869384765,2.771327615625,1.9992384869384765,2.785392915625Q2.0133084869384765,2.799458215625,2.0209184869384766,2.817835415625Q2.0285284869384768,2.836212615625,2.0285284869384768,2.856103515625L2.0285284869384768,25.925003515625L29.190358486938475,25.925003515625Q29.210258486938475,25.925003515625,29.22865848693848,25.932703515625Q29.247058486938478,25.940303515625,29.261058486938477,25.954303515625Q29.275158486938476,25.968403515625,29.282758486938476,25.986803515625Q29.290358486938477,26.005203515625,29.290358486938477,26.025003515625L29.290358486938477,27.143903515625Q29.290358486938477,27.163803515625,29.282758486938476,27.182203515625Q29.275158486938476,27.200503515625,29.261058486938477,27.214603515625Q29.247058486938478,27.228703515625,29.22865848693848,27.236303515625Q29.210258486938475,27.243903515625,29.190358486938475,27.243903515625ZM4.634668486938477,12.706263515625C4.474308486938476,12.844703515625,4.2696684869384764,12.921003515625,4.0578384869384765,12.921503515625L4.0578384869384765,12.935303515625C3.6906384869384765,12.936003515625,3.3618684869384765,12.707903515625,3.2338184869384765,12.363753515625C3.1057584869384764,12.019603515625,3.2054884869384765,11.632113515625,3.4837784869384767,11.392543515625L8.998118486938477,6.606823515625C9.329978486938476,6.313743515625,9.828178486938477,6.313743515625,10.160048486938477,6.606823515625L14.882258486938477,10.815713515625L21.166658486938477,4.056653515625C21.497358486938477,3.701498515625,22.053458486938478,3.681727515625,22.408558486938478,4.012493515625C22.763758486938478,4.343263515625,22.783558486938478,4.899303515625,22.452758486938478,5.254463515625L15.597058486938476,12.640023515625C15.269858486938476,12.998303515625,14.714358486938476,13.024203515625,14.355158486938477,12.697983515625L9.566658486938477,8.431133515625L4.634668486938477,12.706263515625ZM25.904958486938476,24.520603515625L25.904958486938476,14.012503515625C25.904958486938476,13.460303515625,25.457258486938475,13.012503515625,24.904958486938476,13.012503515625L22.071858486938478,13.012503515625C21.519558486938475,13.012503515625,21.071858486938478,13.460303515625,21.071858486938478,14.012503515625L21.071858486938478,24.520603515625L25.904958486938476,24.520603515625ZM17.485758486938476,24.520603515625L17.485758486938476,15.237403515625C17.485758486938476,14.685103515625,17.038058486938475,14.237403515625,16.485758486938476,14.237403515625L13.652658486938476,14.237403515625C13.100358486938477,14.237403515625,12.652658486938476,14.685103515625,12.652658486938476,15.237403515625L12.652658486938476,24.520603515625L17.485758486938476,24.520603515625ZM9.066618486938477,24.520603515625L9.066618486938477,19.986403515625C9.066618486938477,19.434103515625,8.618898486938477,18.986403515625,8.066618486938477,18.986403515625L5.233488486938477,18.986403515625C4.681198486938476,18.986403515625,4.233488486938477,19.434103515625,4.233488486938477,19.986403515625L4.233488486938477,24.520603515625L9.066618486938477,24.520603515625Z" fill-rule="evenodd" fill="url(#master_svg0_247_05230)" fill-opacity="1"/></g></g></svg>