<svg xmlns="http://www.w3.org/2000/svg" xmlns:xlink="http://www.w3.org/1999/xlink" fill="none" version="1.1" width="30" height="30" viewBox="0 0 30 30"><defs><linearGradient x1="0.10837093740701675" y1="0" x2="0.10837093740701675" y2="1" id="master_svg0_247_05230"><stop offset="0%" stop-color="#5790FC" stop-opacity="1"/><stop offset="44.999998807907104%" stop-color="#5862F0" stop-opacity="1"/><stop offset="100%" stop-color="#5862F0" stop-opacity="1"/></linearGradient></defs><g><g><path d="M0.8096657265625,27.243903515625L29.1903947265625,27.243903515625Q29.2102947265625,27.243903515625,29.2286947265625,27.236303515625Q29.2470947265625,27.228703515625,29.2610947265625,27.214603515625Q29.2751947265625,27.200503515625,29.2827947265625,27.182203515625Q29.2903947265625,27.163803515625,29.2903947265625,27.143903515625L29.2903947265625,26.025003515625Q29.2903947265625,26.005203515625,29.2827947265625,25.986803515625Q29.2751947265625,25.968403515625,29.2610947265625,25.954303515625Q29.2470947265625,25.940303515625,29.2286947265625,25.932703515625Q29.2102947265625,25.925003515625,29.1903947265625,25.925003515625L2.0285647265625,25.925003515625L2.0285647265625,2.856103515625Q2.0285647265625,2.836212615625,2.0209547265625,2.817835415625Q2.0133447265625,2.799458215625,1.9992747265625,2.785392915625Q1.9852047265625,2.771327615625,1.9668347265625,2.763715585625Q1.9484547265625,2.756103515625,1.9285647265625,2.756103515625L0.8097167265625,2.756103515625Q0.7898258265625,2.756103515625,0.7714487265625,2.763715585625Q0.7530715265625,2.771327615625,0.7390062265625,2.785392915625Q0.7249409265625,2.799458215625,0.7173288665625,2.817835415625Q0.7097167965625,2.836212615625,0.7097167965625,2.856103515625L0.7097167965625,26.021803515625L0.7096652984625,26.025003515625L0.7096652984625,27.143903515625Q0.7096652984625,27.163803515625,0.7172773765625,27.182203515625Q0.7248894265625,27.200503515625,0.7389547265625,27.214603515625Q0.7530200265625,27.228703515625,0.7713972265625,27.236303515625Q0.7897743265625,27.243903515625,0.8096657265625,27.243903515625ZM6.3206847265625,20.699103515625C6.1263647265625,20.866903515625,5.8783747265625,20.959403515625,5.6216747265625,20.960003515625L5.6216747265625,20.976703515625C5.1766847265625,20.977503515625,4.7782747265625,20.701103515625,4.6230947265625,20.284103515625C4.467914726562499,19.867003515625,4.5887647265625,19.397503515625,4.9260047265625,19.107103515625L11.6083947265625,13.307703515625C12.0105947265625,12.952503515625,12.6142947265625,12.952503515625,13.0164947265625,13.307703515625L18.7389947265625,18.408103515625L26.3545947265625,10.217313515625001C26.7553947265625,9.786923515625,27.4291947265625,9.762973515625,27.8595947265625,10.163803515625C28.2899947265625,10.564633515625001,28.3139947265625,11.238463515625,27.9130947265625,11.668853515625L19.6052947265625,20.618903515625C19.2086947265625,21.053103515625,18.5354947265625,21.084503515625,18.1001947265625,20.689103515625L12.2973947265625,15.518403515625L6.3206847265625,20.699103515625Z" fill-rule="evenodd" fill="url(#master_svg0_247_05230)" fill-opacity="1"/></g></g></svg>