<svg xmlns="http://www.w3.org/2000/svg" xmlns:xlink="http://www.w3.org/1999/xlink" fill="none" version="1.1" width="30" height="30" viewBox="0 0 30 30"><defs><linearGradient x1="0.10837093740701675" y1="0" x2="0.10837093740701675" y2="1" id="master_svg0_247_05230"><stop offset="0%" stop-color="#5790FC" stop-opacity="1"/><stop offset="44.999998807907104%" stop-color="#5862F0" stop-opacity="1"/><stop offset="100%" stop-color="#5862F0" stop-opacity="1"/></linearGradient><linearGradient x1="0.10837093740701675" y1="0" x2="0.10837093740701675" y2="1" id="master_svg1_247_05230"><stop offset="0%" stop-color="#5790FC" stop-opacity="1"/><stop offset="44.999998807907104%" stop-color="#5862F0" stop-opacity="1"/><stop offset="100%" stop-color="#5862F0" stop-opacity="1"/></linearGradient></defs><g><g><g><rect x="15.000009536743164" y="4.445935249328613" width="13.517822265625" height="5.87701416015625" rx="1" fill="url(#master_svg0_247_05230)" fill-opacity="1"/></g><g><path d="M3.564779653930664,25.373043940734863L2.367069653930664,25.373043940734863L2.367069653930664,16.055703940734862L0.7606296539306641,17.406643940734863L0.7701352639306641,15.651813940734863L2.699769653930664,14.008396940734864L3.564779653930664,14.008396940734864L3.564779653930664,25.373043940734863ZM10.446819653930664,23.924543940734864L10.446819653930664,25.373043940734863L5.351829653930664,25.373043940734863L5.351829653930664,24.189243940734862L8.336579653930663,19.732483940734863Q8.811859653930664,19.036123940734864,9.011479653930664,18.479033940734865Q9.211099653930663,17.921943940734863,9.211099653930663,17.281293940734862Q9.211099653930663,16.362093940734862,8.845129653930664,15.818933940734864Q8.479169653930665,15.275773940734863,7.851799653930664,15.275773940734863Q7.271959653930664,15.275773940734863,6.882229653930664,15.714483940734864Q6.492499653930664,16.153193940734862,6.321399653930664,16.960963940734864L5.437379653930664,16.19497394073486Q5.694029653930664,15.039013940734863,6.321399653930664,14.433176940734864Q6.948769653930664,13.827343940734863,7.889819653930664,13.827343940734863Q8.621749653930664,13.827343940734863,9.196839653930665,14.266050940734864Q9.771929653930664,14.704757940734863,10.090359653930664,15.491643940734864Q10.408799653930664,16.278533940734864,10.408799653930664,17.267363940734864Q10.408799653930664,18.214413940734865,10.085609653930664,19.001303940734864Q9.762419653930664,19.788193940734864,9.030489653930664,20.888443940734863L7.024809653930664,23.924543940734864L10.446819653930664,23.924543940734864ZM16.730029653930664,21.919063940734866Q16.730029653930664,22.977523940734862,16.402029653930665,23.806193940734865Q16.07412965393066,24.63484394073486,15.484829653930664,25.094443940734863Q14.895429653930664,25.554043940734864,14.135029653930664,25.554043940734864Q13.231929653930663,25.554043940734864,12.580829653930664,24.948243940734862Q11.929729653930664,24.342443940734864,11.692029653930664,23.283923940734866L12.576029653930664,22.517933940734864Q12.756729653930664,23.270003940734863,13.155929653930665,23.687813940734863Q13.555129653930663,24.105643940734865,14.135029653930664,24.105643940734865Q14.781329653930664,24.105643940734865,15.175829653930665,23.49979394073486Q15.570329653930663,22.893963940734864,15.570329653930663,21.919063940734866Q15.570329653930663,20.916303940734863,15.175829653930665,20.345283940734863Q14.781329653930664,19.774263940734862,14.096929653930664,19.774263940734862Q13.403029653930664,19.774263940734862,13.060829653930664,20.428843940734865L12.385929653930663,19.356453940734863L14.914429653930664,15.470753940734863L12.005729653930665,15.470753940734863L12.005729653930665,14.008396940734864L16.378329653930663,14.008396940734864L16.378329653930663,15.192213940734863L14.353629653930664,18.325833940734864Q15.038029653930664,18.339763940734862,15.579829653930664,18.799363940734864Q16.121629653930665,19.258963940734862,16.425829653930663,20.073703940734863Q16.730029653930664,20.888443940734863,16.730029653930664,21.919063940734866ZM23.108229653930664,22.85218394073486L22.119729653930666,22.85218394073486L22.119729653930666,25.373043940734863L20.969529653930664,25.373043940734863L20.969529653930664,22.85218394073486L17.680529653930662,22.85218394073486L17.680529653930662,21.668373940734863L21.159629653930665,14.008396940734864L22.119729653930666,14.008396940734864L22.119729653930666,21.389823940734864L23.108229653930664,21.389823940734864L23.108229653930664,22.85218394073486ZM20.969529653930664,21.389823940734864L20.969529653930664,16.905263940734862L18.935329653930665,21.389823940734864L20.969529653930664,21.389823940734864ZM29.239329653930664,21.919063940734866Q29.239329653930664,22.977523940734862,28.911429653930664,23.799233940734865Q28.583429653930665,24.62094394073486,27.984629653930664,25.08754394073486Q27.385829653930664,25.554043940734864,26.625329653930663,25.554043940734864Q25.703329653930663,25.554043940734864,25.061629653930662,24.927343940734865Q24.420029653930666,24.300643940734865,24.210929653930663,23.297853940734864L25.094929653930663,22.531853940734862Q25.256529653930663,23.270003940734863,25.655729653930663,23.687813940734863Q26.055029653930664,24.105643940734865,26.625329653930663,24.105643940734865Q27.271729653930663,24.105643940734865,27.680429653930663,23.49979394073486Q28.089229653930666,22.893963940734864,28.089229653930666,21.919063940734866Q28.089229653930666,20.958083940734863,27.680429653930663,20.366173940734864Q27.271729653930663,19.774263940734862,26.634829653930662,19.774263940734862Q26.207129653930664,19.774263940734862,25.907629653930663,20.011033940734862Q25.608229653930664,20.247793940734862,25.456129653930663,20.637753940734864L24.496029653930663,20.275643940734863L24.933329653930663,14.008396940734864L28.906629653930665,14.008396940734864L28.906629653930665,15.470753940734863L25.959929653930665,15.470753940734863L25.722329653930665,18.841143940734863Q26.254629653930664,18.325833940734864,26.834429653930663,18.325833940734864Q27.537829653930665,18.325833940734864,28.084429653930663,18.79239394073486Q28.631029653930664,19.258963940734862,28.935229653930666,20.080663940734865Q29.239329653930664,20.90237394073486,29.239329653930664,21.919063940734866Z" fill="url(#master_svg1_247_05230)" fill-opacity="1"/></g></g></g></svg>