<svg xmlns="http://www.w3.org/2000/svg" xmlns:xlink="http://www.w3.org/1999/xlink" fill="none" version="1.1" width="30" height="30" viewBox="0 0 30 30"><defs><linearGradient x1="0.10837093740701675" y1="0" x2="0.10837093740701675" y2="1" id="master_svg0_247_05230"><stop offset="0%" stop-color="#5790FC" stop-opacity="1"/><stop offset="44.999998807907104%" stop-color="#5862F0" stop-opacity="1"/><stop offset="100%" stop-color="#5862F0" stop-opacity="1"/></linearGradient><linearGradient x1="0.10837093740701675" y1="0" x2="0.10837093740701675" y2="1" id="master_svg1_247_05230"><stop offset="0%" stop-color="#5790FC" stop-opacity="1"/><stop offset="44.999998807907104%" stop-color="#5862F0" stop-opacity="1"/><stop offset="100%" stop-color="#5862F0" stop-opacity="1"/></linearGradient><linearGradient x1="0.10837093740701675" y1="0" x2="0.10837093740701675" y2="1" id="master_svg2_247_05230"><stop offset="0%" stop-color="#5790FC" stop-opacity="1"/><stop offset="44.999998807907104%" stop-color="#5862F0" stop-opacity="1"/><stop offset="100%" stop-color="#5862F0" stop-opacity="1"/></linearGradient><linearGradient x1="0.10837093740701675" y1="0" x2="0.10837093740701675" y2="1" id="master_svg3_247_05230"><stop offset="0%" stop-color="#5790FC" stop-opacity="1"/><stop offset="44.999998807907104%" stop-color="#5862F0" stop-opacity="1"/><stop offset="100%" stop-color="#5862F0" stop-opacity="1"/></linearGradient><linearGradient x1="0.10837093740701675" y1="0" x2="0.10837093740701675" y2="1" id="master_svg4_247_05230"><stop offset="0%" stop-color="#5790FC" stop-opacity="1"/><stop offset="44.999998807907104%" stop-color="#5862F0" stop-opacity="1"/><stop offset="100%" stop-color="#5862F0" stop-opacity="1"/></linearGradient></defs><g><g><g><path d="M14.269699622039795,5.2901647265625Q14.269699622039795,5.4568547265625,14.253359622039795,5.6227347265625Q14.237019622039796,5.7886247265624995,14.204499622039794,5.9521147265625Q14.171979622039796,6.1156047265625,14.123599622039794,6.2751147265625Q14.075209622039795,6.4346247265625,14.011419622039796,6.5886247265625Q13.947629622039795,6.7426347265625,13.869049622039796,6.8896447265625Q13.790469622039794,7.0366447265625,13.697869622039795,7.1752447265625Q13.605259622039796,7.3138447265625,13.499509622039795,7.4426947265625Q13.393759622039795,7.5715547265625,13.275889622039795,7.6894147265625Q13.158029622039795,7.8072847265625,13.029169622039795,7.9130347265625Q12.900319622039795,8.018784726562501,12.761719622039795,8.1113947265625Q12.623119622039795,8.203994726562499,12.476109622039795,8.282574726562501Q12.329109622039795,8.3611547265625,12.175099622039795,8.4249447265625Q12.021099622039795,8.4887347265625,11.861589622039794,8.5371247265625Q11.702079622039795,8.585504726562501,11.538589622039794,8.6180247265625Q11.375099622039794,8.6505447265625,11.209209622039795,8.6668847265625Q11.043329622039796,8.6832247265625,10.876629622039795,8.6832247265625Q10.709939622039794,8.6832247265625,10.544059622039795,8.6668847265625Q10.378169622039795,8.6505447265625,10.214679622039796,8.6180247265625Q10.051189622039795,8.585504726562501,9.891679622039796,8.5371247265625Q9.732169622039795,8.4887347265625,9.578159622039795,8.4249447265625Q9.424159622039795,8.3611547265625,9.277149622039795,8.282574726562501Q9.130149622039795,8.203994726562499,8.991549622039795,8.1113947265625Q8.852949622039795,8.018784726562501,8.724099622039795,7.9130347265625Q8.595239622039795,7.8072847265625,8.477374622039795,7.6894147265625Q8.359506622039795,7.5715547265625,8.253759622039794,7.4426947265625Q8.148012622039795,7.3138447265625,8.055403622039794,7.1752447265625Q7.962795622039795,7.0366447265625,7.8842186220397945,6.8896447265625Q7.805640622039795,6.7426347265625,7.741850622039795,6.5886247265625Q7.678061622039795,6.4346247265625,7.629673622039795,6.2751147265625Q7.581285822039795,6.1156047265625,7.548766122039795,5.9521147265625Q7.516246322039795,5.7886247265624995,7.499907822039795,5.6227347265625Q7.483569287050795,5.4568547265625,7.483569287050795,5.2901647265625Q7.483569287050795,5.1234747265625,7.499907822039795,4.9575847265625Q7.516246322039795,4.7916947265625005,7.548766122039795,4.6282047265625Q7.581285822039795,4.4647147265625,7.629673622039795,4.305204726562501Q7.678061622039795,4.1456947265625,7.741850622039795,3.9916947265625Q7.805640622039795,3.8376847265625003,7.8842186220397945,3.6906847265625Q7.962795622039795,3.5436747265625,8.055403622039794,3.4050747265625Q8.148012622039795,3.2664747265625,8.253759622039794,3.1376247265624997Q8.359506622039795,3.0087647265625,8.477374622039795,2.8909007265625Q8.595239622039795,2.7730327265625,8.724099622039795,2.6672847265625Q8.852949622039795,2.5615377265625,8.991549622039795,2.4689297265625Q9.130149622039795,2.3763207265625,9.277149622039795,2.2977437265625Q9.424159622039795,2.2191657265625,9.578159622039795,2.1553767265625Q9.732169622039795,2.0915867265625,9.891679622039796,2.0431987265625002Q10.051189622039795,1.9948112265625,10.214679622039796,1.9622915265625Q10.378169622039795,1.9297718265625,10.544059622039795,1.9134332265625Q10.709939622039794,1.8970947265625,10.876629622039795,1.8970947265625Q11.043329622039796,1.8970947265625,11.209209622039795,1.9134332265625Q11.375099622039794,1.9297718265625,11.538589622039794,1.9622915265625Q11.702079622039795,1.9948112265625,11.861589622039794,2.0431987265625002Q12.021099622039795,2.0915867265625,12.175099622039795,2.1553767265625Q12.329109622039795,2.2191657265625,12.476109622039795,2.2977437265625Q12.623119622039795,2.3763207265625,12.761719622039795,2.4689297265625Q12.900319622039795,2.5615377265625,13.029169622039795,2.6672847265625Q13.158029622039795,2.7730327265625,13.275889622039795,2.8909007265625Q13.393759622039795,3.0087647265625,13.499509622039795,3.1376247265624997Q13.605259622039796,3.2664747265625,13.697869622039795,3.4050747265625Q13.790469622039794,3.5436747265625,13.869049622039796,3.6906847265625Q13.947629622039795,3.8376847265625003,14.011419622039796,3.9916947265625Q14.075209622039795,4.1456947265625,14.123599622039794,4.305204726562501Q14.171979622039796,4.4647147265625,14.204499622039794,4.6282047265625Q14.237019622039796,4.7916947265625005,14.253359622039795,4.9575847265625Q14.269699622039795,5.1234747265625,14.269699622039795,5.2901647265625Z" fill="url(#master_svg0_247_05230)" fill-opacity="1"/></g><g><path d="M18.39305596435547,14.906162994689941Q18.39305596435547,15.072852994689942,18.37671596435547,15.238732994689942Q18.36037596435547,15.404622994689941,18.327855964355468,15.56811299468994Q18.29533596435547,15.731602994689942,18.246955964355468,15.89111299468994Q18.198565964355467,16.05062299468994,18.13477596435547,16.20462299468994Q18.07098596435547,16.35863299468994,17.99240596435547,16.505642994689943Q17.913825964355468,16.65264299468994,17.82122596435547,16.79124299468994Q17.72861596435547,16.929842994689942,17.62286596435547,17.05869299468994Q17.51711596435547,17.18755299468994,17.39924596435547,17.30541299468994Q17.28138596435547,17.42328299468994,17.15252596435547,17.529032994689942Q17.02367596435547,17.634782994689942,16.88507596435547,17.727392994689943Q16.74647596435547,17.81999299468994,16.599465964355467,17.898572994689943Q16.45246596435547,17.97715299468994,16.29845596435547,18.040942994689942Q16.14445596435547,18.10473299468994,15.984945964355468,18.15312299468994Q15.825435964355469,18.201502994689942,15.661945964355468,18.23402299468994Q15.498455964355468,18.266542994689942,15.332565964355469,18.282882994689942Q15.16668596435547,18.29922299468994,14.999985964355469,18.29922299468994Q14.833295964355468,18.29922299468994,14.667415964355468,18.282882994689942Q14.50152596435547,18.266542994689942,14.33803596435547,18.23402299468994Q14.174545964355469,18.201502994689942,14.01503596435547,18.15312299468994Q13.855525964355468,18.10473299468994,13.701515964355469,18.040942994689942Q13.547515964355469,17.97715299468994,13.40050596435547,17.898572994689943Q13.253505964355469,17.81999299468994,13.114905964355469,17.727392994689943Q12.976305964355468,17.634782994689942,12.847455964355468,17.529032994689942Q12.718595964355469,17.42328299468994,12.600730964355469,17.30541299468994Q12.48286296435547,17.18755299468994,12.377115964355468,17.05869299468994Q12.271368964355469,16.929842994689942,12.178759964355468,16.79124299468994Q12.08615196435547,16.65264299468994,12.007574964355468,16.505642994689943Q11.928996964355468,16.35863299468994,11.865206964355469,16.20462299468994Q11.801417964355469,16.05062299468994,11.753029964355468,15.89111299468994Q11.70464216435547,15.731602994689942,11.67212246435547,15.56811299468994Q11.639602664355468,15.404622994689941,11.623264164355469,15.238732994689942Q11.606925629366469,15.072852994689942,11.606925629366469,14.906162994689941Q11.606925629366469,14.73947299468994,11.623264164355469,14.573582994689941Q11.639602664355468,14.407692994689942,11.67212246435547,14.244202994689942Q11.70464216435547,14.080712994689941,11.753029964355468,13.921202994689942Q11.801417964355469,13.761692994689941,11.865206964355469,13.607692994689941Q11.928996964355468,13.453682994689942,12.007574964355468,13.306682994689941Q12.08615196435547,13.159672994689942,12.178759964355468,13.021072994689941Q12.271368964355469,12.882472994689941,12.377115964355468,12.753622994689941Q12.48286296435547,12.624762994689942,12.600730964355469,12.50689899468994Q12.718595964355469,12.389030994689941,12.847455964355468,12.283282994689941Q12.976305964355468,12.177535994689942,13.114905964355469,12.084927994689941Q13.253505964355469,11.992318994689942,13.40050596435547,11.913741994689941Q13.547515964355469,11.83516399468994,13.701515964355469,11.77137499468994Q13.855525964355468,11.707584994689942,14.01503596435547,11.65919699468994Q14.174545964355469,11.610809494689942,14.33803596435547,11.578289794689942Q14.50152596435547,11.545770094689942,14.667415964355468,11.529431494689941Q14.833295964355468,11.513092994689941,14.999985964355469,11.513092994689941Q15.16668596435547,11.513092994689941,15.332565964355469,11.529431494689941Q15.498455964355468,11.545770094689942,15.661945964355468,11.578289794689942Q15.825435964355469,11.610809494689942,15.984945964355468,11.65919699468994Q16.14445596435547,11.707584994689942,16.29845596435547,11.77137499468994Q16.45246596435547,11.83516399468994,16.599465964355467,11.913741994689941Q16.74647596435547,11.992318994689942,16.88507596435547,12.084927994689941Q17.02367596435547,12.177535994689942,17.15252596435547,12.283282994689941Q17.28138596435547,12.389030994689941,17.39924596435547,12.50689899468994Q17.51711596435547,12.624762994689942,17.62286596435547,12.753622994689941Q17.72861596435547,12.882472994689941,17.82122596435547,13.021072994689941Q17.913825964355468,13.159672994689942,17.99240596435547,13.306682994689941Q18.07098596435547,13.453682994689942,18.13477596435547,13.607692994689941Q18.198565964355467,13.761692994689941,18.246955964355468,13.921202994689942Q18.29533596435547,14.080712994689941,18.327855964355468,14.244202994689942Q18.36037596435547,14.407692994689942,18.37671596435547,14.573582994689941Q18.39305596435547,14.73947299468994,18.39305596435547,14.906162994689941Z" fill="url(#master_svg1_247_05230)" fill-opacity="1"/></g><g><path d="M9.59905724609375,16.73775746185303Q9.59905724609375,16.904447461853028,9.58271724609375,17.070327461853026Q9.56637724609375,17.236217461853027,9.53385724609375,17.399707461853026Q9.501337246093751,17.56319746185303,9.45295724609375,17.722707461853027Q9.40456724609375,17.882217461853028,9.34077724609375,18.036217461853028Q9.27698724609375,18.190227461853027,9.198407246093751,18.33723746185303Q9.119827246093749,18.484237461853027,9.02722724609375,18.622837461853027Q8.934617246093751,18.761437461853028,8.82886724609375,18.890287461853028Q8.72311724609375,19.019147461853027,8.60524724609375,19.137007461853027Q8.48738724609375,19.254877461853027,8.35852724609375,19.360627461853028Q8.22967724609375,19.46637746185303,8.09107724609375,19.55898746185303Q7.95247724609375,19.651587461853026,7.80546724609375,19.73016746185303Q7.65846724609375,19.808747461853027,7.50445724609375,19.872537461853028Q7.35045724609375,19.936327461853026,7.19094724609375,19.984717461853027Q7.03143724609375,20.03309746185303,6.86794724609375,20.065617461853027Q6.7044572460937495,20.098137461853028,6.53856724609375,20.114477461853028Q6.37268724609375,20.130817461853027,6.20598724609375,20.130817461853027Q6.03929724609375,20.130817461853027,5.87341724609375,20.114477461853028Q5.7075272460937505,20.098137461853028,5.54403724609375,20.065617461853027Q5.38054724609375,20.03309746185303,5.221037246093751,19.984717461853027Q5.06152724609375,19.936327461853026,4.90751724609375,19.872537461853028Q4.75351724609375,19.808747461853027,4.60650724609375,19.73016746185303Q4.45950724609375,19.651587461853026,4.32090724609375,19.55898746185303Q4.18230724609375,19.46637746185303,4.05345724609375,19.360627461853028Q3.92459724609375,19.254877461853027,3.80673224609375,19.137007461853027Q3.68886424609375,19.019147461853027,3.58311724609375,18.890287461853028Q3.47737024609375,18.761437461853028,3.38476124609375,18.622837461853027Q3.29215324609375,18.484237461853027,3.21357624609375,18.33723746185303Q3.13499824609375,18.190227461853027,3.07120824609375,18.036217461853028Q3.00741924609375,17.882217461853028,2.9590312460937502,17.722707461853027Q2.91064344609375,17.56319746185303,2.87812374609375,17.399707461853026Q2.84560394609375,17.236217461853027,2.82926544609375,17.070327461853026Q2.81292691110475,16.904447461853028,2.81292691110475,16.73775746185303Q2.81292691110475,16.571067461853026,2.82926544609375,16.40517746185303Q2.84560394609375,16.239287461853028,2.87812374609375,16.07579746185303Q2.91064344609375,15.912307461853027,2.9590312460937502,15.752797461853028Q3.00741924609375,15.593287461853027,3.07120824609375,15.439287461853027Q3.13499824609375,15.285277461853028,3.21357624609375,15.138277461853027Q3.29215324609375,14.991267461853027,3.38476124609375,14.852667461853027Q3.47737024609375,14.714067461853027,3.58311724609375,14.585217461853027Q3.68886424609375,14.456357461853028,3.80673224609375,14.338493461853027Q3.92459724609375,14.220625461853027,4.05345724609375,14.114877461853027Q4.18230724609375,14.009130461853028,4.32090724609375,13.916522461853027Q4.45950724609375,13.823913461853028,4.60650724609375,13.745336461853027Q4.75351724609375,13.666758461853027,4.90751724609375,13.602969461853027Q5.06152724609375,13.539179461853028,5.221037246093751,13.490791461853027Q5.38054724609375,13.442403961853028,5.54403724609375,13.409884261853028Q5.7075272460937505,13.377364561853028,5.87341724609375,13.361025961853027Q6.03929724609375,13.344687461853027,6.20598724609375,13.344687461853027Q6.37268724609375,13.344687461853027,6.53856724609375,13.361025961853027Q6.7044572460937495,13.377364561853028,6.86794724609375,13.409884261853028Q7.03143724609375,13.442403961853028,7.19094724609375,13.490791461853027Q7.35045724609375,13.539179461853028,7.50445724609375,13.602969461853027Q7.65846724609375,13.666758461853027,7.80546724609375,13.745336461853027Q7.95247724609375,13.823913461853028,8.09107724609375,13.916522461853027Q8.22967724609375,14.009130461853028,8.35852724609375,14.114877461853027Q8.48738724609375,14.220625461853027,8.60524724609375,14.338493461853027Q8.72311724609375,14.456357461853028,8.82886724609375,14.585217461853027Q8.934617246093751,14.714067461853027,9.02722724609375,14.852667461853027Q9.119827246093749,14.991267461853027,9.198407246093751,15.138277461853027Q9.27698724609375,15.285277461853028,9.34077724609375,15.439287461853027Q9.40456724609375,15.593287461853027,9.45295724609375,15.752797461853028Q9.501337246093751,15.912307461853027,9.53385724609375,16.07579746185303Q9.56637724609375,16.239287461853028,9.58271724609375,16.40517746185303Q9.59905724609375,16.571067461853026,9.59905724609375,16.73775746185303Z" fill="url(#master_svg2_247_05230)" fill-opacity="1"/></g><g><path d="M17.662765551452637,24.709859627075197Q17.662765551452637,24.876549627075196,17.646425551452637,25.042429627075194Q17.630085551452638,25.208319627075195,17.597565551452636,25.371809627075194Q17.565045551452638,25.535299627075197,17.516665551452636,25.694809627075195Q17.468275551452635,25.854319627075196,17.404485551452638,26.008319627075196Q17.340695551452637,26.162329627075195,17.262115551452638,26.309339627075197Q17.183535551452636,26.456339627075195,17.090935551452638,26.594939627075195Q16.998325551452638,26.733539627075196,16.892575551452637,26.862389627075196Q16.786825551452637,26.991249627075195,16.668955551452637,27.109109627075195Q16.551095551452637,27.226979627075195,16.422235551452637,27.332729627075196Q16.293385551452637,27.438479627075196,16.154785551452637,27.531089627075197Q16.016185551452637,27.623689627075194,15.869175551452637,27.702269627075196Q15.722175551452636,27.780849627075195,15.568165551452637,27.844639627075196Q15.414165551452637,27.908429627075193,15.254655551452636,27.956819627075195Q15.095145551452637,28.005199627075196,14.931655551452636,28.037719627075194Q14.768165551452636,28.070239627075196,14.602275551452637,28.086579627075196Q14.436395551452637,28.102919627075195,14.269695551452637,28.102919627075195Q14.103005551452636,28.102919627075195,13.937125551452636,28.086579627075196Q13.771235551452637,28.070239627075196,13.607745551452638,28.037719627075194Q13.444255551452637,28.005199627075196,13.284745551452637,27.956819627075195Q13.125235551452636,27.908429627075193,12.971225551452637,27.844639627075196Q12.817225551452637,27.780849627075195,12.670215551452637,27.702269627075196Q12.523215551452637,27.623689627075194,12.384615551452637,27.531089627075197Q12.246015551452636,27.438479627075196,12.117165551452636,27.332729627075196Q11.988305551452637,27.226979627075195,11.870440551452637,27.109109627075195Q11.752572551452637,26.991249627075195,11.646825551452636,26.862389627075196Q11.541078551452637,26.733539627075196,11.448469551452636,26.594939627075195Q11.355861551452637,26.456339627075195,11.277284551452636,26.309339627075197Q11.198706551452636,26.162329627075195,11.134916551452637,26.008319627075196Q11.071127551452637,25.854319627075196,11.022739551452636,25.694809627075195Q10.974351751452637,25.535299627075197,10.941832051452637,25.371809627075194Q10.909312251452636,25.208319627075195,10.892973751452637,25.042429627075194Q10.876635216463637,24.876549627075196,10.876635216463637,24.709859627075197Q10.876635216463637,24.543169627075194,10.892973751452637,24.377279627075197Q10.909312251452636,24.211389627075196,10.941832051452637,24.047899627075196Q10.974351751452637,23.884409627075193,11.022739551452636,23.724899627075196Q11.071127551452637,23.565389627075195,11.134916551452637,23.411389627075195Q11.198706551452636,23.257379627075196,11.277284551452636,23.110379627075197Q11.355861551452637,22.963369627075195,11.448469551452636,22.824769627075195Q11.541078551452637,22.686169627075195,11.646825551452636,22.557319627075195Q11.752572551452637,22.428459627075195,11.870440551452637,22.310595627075195Q11.988305551452637,22.192727627075197,12.117165551452636,22.086979627075195Q12.246015551452636,21.981232627075194,12.384615551452637,21.888624627075195Q12.523215551452637,21.796015627075196,12.670215551452637,21.717438627075197Q12.817225551452637,21.638860627075196,12.971225551452637,21.575071627075197Q13.125235551452636,21.511281627075196,13.284745551452637,21.462893627075196Q13.444255551452637,21.414506127075196,13.607745551452638,21.381986427075194Q13.771235551452637,21.349466727075196,13.937125551452636,21.333128127075195Q14.103005551452636,21.316789627075195,14.269695551452637,21.316789627075195Q14.436395551452637,21.316789627075195,14.602275551452637,21.333128127075195Q14.768165551452636,21.349466727075196,14.931655551452636,21.381986427075194Q15.095145551452637,21.414506127075196,15.254655551452636,21.462893627075196Q15.414165551452637,21.511281627075196,15.568165551452637,21.575071627075197Q15.722175551452636,21.638860627075196,15.869175551452637,21.717438627075197Q16.016185551452637,21.796015627075196,16.154785551452637,21.888624627075195Q16.293385551452637,21.981232627075194,16.422235551452637,22.086979627075195Q16.551095551452637,22.192727627075197,16.668955551452637,22.310595627075195Q16.786825551452637,22.428459627075195,16.892575551452637,22.557319627075195Q16.998325551452638,22.686169627075195,17.090935551452638,22.824769627075195Q17.183535551452636,22.963369627075195,17.262115551452638,23.110379627075197Q17.340695551452637,23.257379627075196,17.404485551452638,23.411389627075195Q17.468275551452635,23.565389627075195,17.516665551452636,23.724899627075196Q17.565045551452638,23.884409627075193,17.597565551452636,24.047899627075196Q17.630085551452638,24.211389627075196,17.646425551452637,24.377279627075197Q17.662765551452637,24.543169627075194,17.662765551452637,24.709859627075197Z" fill="url(#master_svg3_247_05230)" fill-opacity="1"/></g><g><path d="M27.18712334716797,16.73775746185303Q27.18712334716797,16.904447461853028,27.17078334716797,17.070327461853026Q27.15444334716797,17.236217461853027,27.121923347167968,17.399707461853026Q27.08940334716797,17.56319746185303,27.041023347167968,17.722707461853027Q26.992633347167967,17.882217461853028,26.92884334716797,18.036217461853028Q26.86505334716797,18.190227461853027,26.78647334716797,18.33723746185303Q26.707893347167968,18.484237461853027,26.61529334716797,18.622837461853027Q26.52268334716797,18.761437461853028,26.41693334716797,18.890287461853028Q26.31118334716797,19.019147461853027,26.19331334716797,19.137007461853027Q26.07545334716797,19.254877461853027,25.94659334716797,19.360627461853028Q25.81774334716797,19.46637746185303,25.67914334716797,19.55898746185303Q25.54054334716797,19.651587461853026,25.393533347167967,19.73016746185303Q25.24653334716797,19.808747461853027,25.09252334716797,19.872537461853028Q24.93852334716797,19.936327461853026,24.779013347167968,19.984717461853027Q24.61950334716797,20.03309746185303,24.456013347167968,20.065617461853027Q24.29252334716797,20.098137461853028,24.126633347167967,20.114477461853028Q23.96075334716797,20.130817461853027,23.794053347167967,20.130817461853027Q23.627363347167968,20.130817461853027,23.46148334716797,20.114477461853028Q23.29559334716797,20.098137461853028,23.13210334716797,20.065617461853027Q22.968613347167967,20.03309746185303,22.80910334716797,19.984717461853027Q22.64959334716797,19.936327461853026,22.49558334716797,19.872537461853028Q22.34158334716797,19.808747461853027,22.194573347167967,19.73016746185303Q22.04757334716797,19.651587461853026,21.90897334716797,19.55898746185303Q21.77037334716797,19.46637746185303,21.64152334716797,19.360627461853028Q21.51266334716797,19.254877461853027,21.39479834716797,19.137007461853027Q21.27693034716797,19.019147461853027,21.17118334716797,18.890287461853028Q21.065436347167967,18.761437461853028,20.972827347167968,18.622837461853027Q20.88021934716797,18.484237461853027,20.80164234716797,18.33723746185303Q20.72306434716797,18.190227461853027,20.65927434716797,18.036217461853028Q20.59548534716797,17.882217461853028,20.54709734716797,17.722707461853027Q20.49870954716797,17.56319746185303,20.466189847167968,17.399707461853026Q20.43367004716797,17.236217461853027,20.41733154716797,17.070327461853026Q20.40099301217897,16.904447461853028,20.40099301217897,16.73775746185303Q20.40099301217897,16.571067461853026,20.41733154716797,16.40517746185303Q20.43367004716797,16.239287461853028,20.466189847167968,16.07579746185303Q20.49870954716797,15.912307461853027,20.54709734716797,15.752797461853028Q20.59548534716797,15.593287461853027,20.65927434716797,15.439287461853027Q20.72306434716797,15.285277461853028,20.80164234716797,15.138277461853027Q20.88021934716797,14.991267461853027,20.972827347167968,14.852667461853027Q21.065436347167967,14.714067461853027,21.17118334716797,14.585217461853027Q21.27693034716797,14.456357461853028,21.39479834716797,14.338493461853027Q21.51266334716797,14.220625461853027,21.64152334716797,14.114877461853027Q21.77037334716797,14.009130461853028,21.90897334716797,13.916522461853027Q22.04757334716797,13.823913461853028,22.194573347167967,13.745336461853027Q22.34158334716797,13.666758461853027,22.49558334716797,13.602969461853027Q22.64959334716797,13.539179461853028,22.80910334716797,13.490791461853027Q22.968613347167967,13.442403961853028,23.13210334716797,13.409884261853028Q23.29559334716797,13.377364561853028,23.46148334716797,13.361025961853027Q23.627363347167968,13.344687461853027,23.794053347167967,13.344687461853027Q23.96075334716797,13.344687461853027,24.126633347167967,13.361025961853027Q24.29252334716797,13.377364561853028,24.456013347167968,13.409884261853028Q24.61950334716797,13.442403961853028,24.779013347167968,13.490791461853027Q24.93852334716797,13.539179461853028,25.09252334716797,13.602969461853027Q25.24653334716797,13.666758461853027,25.393533347167967,13.745336461853027Q25.54054334716797,13.823913461853028,25.67914334716797,13.916522461853027Q25.81774334716797,14.009130461853028,25.94659334716797,14.114877461853027Q26.07545334716797,14.220625461853027,26.19331334716797,14.338493461853027Q26.31118334716797,14.456357461853028,26.41693334716797,14.585217461853027Q26.52268334716797,14.714067461853027,26.61529334716797,14.852667461853027Q26.707893347167968,14.991267461853027,26.78647334716797,15.138277461853027Q26.86505334716797,15.285277461853028,26.92884334716797,15.439287461853027Q26.992633347167967,15.593287461853027,27.041023347167968,15.752797461853028Q27.08940334716797,15.912307461853027,27.121923347167968,16.07579746185303Q27.15444334716797,16.239287461853028,27.17078334716797,16.40517746185303Q27.18712334716797,16.571067461853026,27.18712334716797,16.73775746185303Z" fill="url(#master_svg4_247_05230)" fill-opacity="1"/></g></g></g></svg>