<svg xmlns="http://www.w3.org/2000/svg" xmlns:xlink="http://www.w3.org/1999/xlink" fill="none" version="1.1" width="30" height="30" viewBox="0 0 30 30"><defs><linearGradient x1="0.10837093740701675" y1="0" x2="0.10837093740701675" y2="1" id="master_svg0_247_05230"><stop offset="0%" stop-color="#5790FC" stop-opacity="1"/><stop offset="44.999998807907104%" stop-color="#5862F0" stop-opacity="1"/><stop offset="100%" stop-color="#5862F0" stop-opacity="1"/></linearGradient></defs><g><g><path d="M4.912701753234863,27.33506224975586L15.002551753234863,27.33506224975586C18.39275175323486,27.33506224975586,21.863351753234863,27.33506224975586,25.087251753234863,27.52866224975586C26.540951753234864,27.43186224975586,27.589651753234865,26.557562249755858,27.589651753234865,25.29606224975586L27.589651753234865,7.04247224975586C27.589651753234865,5.877812249755859,26.618851753234864,5.003532249755859,25.409151753234863,4.90674224975586L24.199551753234864,4.90674224975586C24.100251753234865,4.90674224975586,23.995951753234863,4.912632249755859,23.890251753234864,4.9186022497558595C23.567551753234863,4.936832249755859,23.232351753234862,4.9557622497558595,22.989851753234863,4.80994224975586C22.809151753234865,4.664982249755859,22.853951753234863,4.06163224975586,22.887851753234862,3.6051122497558596C22.899251753234864,3.4519882497558596,22.909451753234862,3.315382249755859,22.909451753234862,3.2181342497558596C22.832951753234862,2.5743892497558596,22.393351753234864,2.5755212497558593,21.726251753234862,2.5772372497558593C21.691251753234862,2.577328249755859,21.655551753234864,2.5774192497558595,21.619251753234863,2.5774192497558595C21.520951753234865,2.5774192497558595,21.425651753234863,2.5749182497558594,21.334051753234863,2.572515249755859C20.748251753234864,2.5571483497558596,20.315751753234863,2.5458008497558593,20.246151753234862,3.2181342497558596L20.246151753234862,4.422762249755859C20.246151753234862,4.80994224975586,20.082551753234863,4.90674224975586,19.680251753234863,4.90674224975586L10.883051753234863,4.90674224975586C9.834351753234863,4.90674224975586,9.834331753234864,4.382802249755859,9.753861753234863,3.3149382497558593L9.753861753234863,3.2181342497558596C9.677191753234863,2.4773660897558596,9.235291753234863,2.4786721397558593,8.634681753234863,2.4804472497558594C8.604911753234862,2.4805352297558594,8.574761753234863,2.4806243597558595,8.544231753234865,2.4806243597558595C8.433071753234863,2.4806243597558595,8.328001753234863,2.4780307897558593,8.229051753234863,2.4755880697558594C7.6094117532348635,2.4602917497558594,7.229381753234863,2.4509104497558596,7.090601753234863,3.1213302497558595L7.090581753234863,4.422762249755859C7.090581753234863,4.71315224975586,6.927051753234863,4.80994224975586,6.605171753234863,4.80994224975586L4.507761753234863,4.80994224975586C3.3785867532348632,4.90674224975586,2.4103517532348633,5.781022249755859,2.4103517532348633,6.848882249755859L2.4103517532348633,25.29606224975586C2.4103517532348633,25.68326224975586,2.4908216532348635,26.07356224975586,2.7322317532348634,26.363962249755858C3.298116753234863,27.04466224975586,4.024941753234863,27.33506224975586,4.912701753234863,27.33506224975586ZM4.993171753234863,10.73317224975586L15.083051753234864,10.73317224975586L15.083051753234864,10.73004224975586L25.170351753234865,10.73004224975586C25.655751753234863,10.73004224975586,25.736251753234864,10.82684224975586,25.736251753234864,11.31394224975586L25.736251753234864,24.615462249755858C25.736251753234864,25.29606224975586,25.736251753234864,25.29606224975586,25.009451753234863,25.29606224975586L5.154111753234863,25.29606224975586C4.668701753234863,25.29606224975586,4.427291753234863,25.19936224975586,4.427291753234863,24.615462249755858L4.427291753234863,11.21714224975586C4.427291753234863,10.829962249755859,4.590821753234863,10.73317224975586,4.993171753234863,10.73317224975586ZM10.161391753234863,13.64646224975586L8.788211753234863,13.64646224975586C8.302801753234863,13.64646224975586,7.900451753234863,13.64646224975586,7.495501753234863,13.54966224975586C7.010091753234863,13.54966224975586,6.688211753234864,13.74646224975586,6.688211753234864,14.23036224975586L6.688211753234864,16.07576224975586C6.688211753234864,16.56286224975586,6.929621753234863,16.75646224975586,7.415031753234863,16.75646224975586L10.241861753234863,16.75646224975586C10.727281753234863,16.75646224975586,10.968691753234863,16.55976224975586,10.968691753234863,16.07576224975586L10.968691753234863,14.32716224975586C10.968691753234863,13.93686224975586,10.646811753234863,13.64646224975586,10.161391753234863,13.64646224975586ZM13.709851753234863,16.850062249755858L15.083051753234864,16.850062249755858L16.453651753234865,16.850062249755858C17.019551753234865,16.850062249755858,17.260951753234863,16.55656224975586,17.260951753234863,16.072662249755858L17.260951753234863,14.42086224975586C17.180451753234863,13.93376224975586,16.939051753234864,13.64336224975586,16.453651753234865,13.64336224975586L13.629351753234863,13.64336224975586C13.143951753234862,13.64336224975586,12.902551753234864,13.84006224975586,12.902551753234864,14.32406224975586L12.902551753234864,16.072662249755858C12.902551753234864,16.656562249755858,13.143951753234862,16.850062249755858,13.709851753234863,16.850062249755858ZM19.924251753234863,16.850062249755858L21.297351753234864,16.850062249755858C21.782851753234862,16.850062249755858,22.265651753234863,16.850062249755858,22.667951753234863,16.75326224975586C23.153351753234862,16.75326224975586,23.394851753234864,16.45976224975586,23.394851753234864,16.072662249755858L23.394851753234864,14.32406224975586C23.394851753234864,13.93376224975586,23.153351753234862,13.64336224975586,22.667951753234863,13.64336224975586L19.843751753234862,13.64336224975586C19.358351753234864,13.64336224975586,19.116951753234865,13.84006224975586,19.116951753234865,14.32406224975586L19.116951753234865,16.072662249755858C19.116951753234865,16.55976224975586,19.438751753234865,16.850062249755858,19.924251753234863,16.850062249755858ZM22.75105175323486,19.179462249755858L21.377851753234864,19.179462249755858C21.257251753234865,19.179462249755858,21.136451753234862,19.173362249755858,21.015551753234863,19.16736224975586C20.652651753234863,19.14916224975586,20.28905175323486,19.13096224975586,19.926851753234864,19.27626224975586C19.441351753234862,19.27626224975586,19.119551753234862,19.569762249755858,19.119551753234862,20.05366224975586L19.119551753234862,21.70546224975586C19.119551753234862,22.19256224975586,19.441351753234862,22.48296224975586,19.926851753234864,22.48296224975586L22.670551753234864,22.48296224975586C23.155951753234863,22.48296224975586,23.477851753234862,22.18946224975586,23.477851753234862,21.70546224975586L23.477851753234862,19.956862249755858C23.558351753234863,19.46976224975586,23.236451753234864,19.179462249755858,22.75105175323486,19.179462249755858ZM7.495501753234863,22.38616224975586L8.788211753234863,22.38616224975586L8.788211753234863,22.38306224975586L10.158801753234863,22.38306224975586C10.724681753234863,22.38306224975586,10.966091753234863,22.089562249755858,10.966091753234863,21.60556224975586L10.966091753234863,20.05366224975586C10.966091753234863,19.46976224975586,10.724681753234863,19.179462249755858,10.158801753234863,19.179462249755858L7.415031753234863,19.179462249755858C6.929621753234863,19.179462249755858,6.607741753234864,19.47296224975586,6.607741753234864,19.956862249755858L6.607741753234864,21.60866224975586C6.688211753234864,22.09576224975586,6.929621753234863,22.38616224975586,7.495501753234863,22.38616224975586ZM13.790351753234864,22.38616224975586L15.083051753234864,22.38616224975586L15.083051753234864,22.38926224975586L16.373151753234865,22.38926224975586C16.858551753234863,22.38926224975586,17.180451753234863,22.09886224975586,17.180451753234863,21.61176224975586L17.180451753234863,19.96006224975586C17.180451753234863,19.47296224975586,16.858551753234863,19.182562249755858,16.373151753234865,19.182562249755858L13.709851753234863,19.182562249755858C13.143951753234862,19.27936224975586,12.902551753234864,19.47296224975586,12.902551753234864,20.05686224975586L12.902551753234864,21.60866224975586C12.902551753234864,22.09576224975586,13.224451753234863,22.38616224975586,13.790351753234864,22.38616224975586Z" fill-rule="evenodd" fill="url(#master_svg0_247_05230)" fill-opacity="1"/></g></g></svg>