<svg xmlns="http://www.w3.org/2000/svg" xmlns:xlink="http://www.w3.org/1999/xlink" fill="none" version="1.1" width="30.000001907348633" height="30" viewBox="0 0 30.000001907348633 30"><defs><clipPath id="master_svg0_1247_08733"><rect x="0" y="0" width="30.000001907348633" height="30" rx="0"/></clipPath><linearGradient x1="0.10837093740701675" y1="0" x2="0.10837093740701675" y2="1" id="master_svg1_247_05230"><stop offset="0%" stop-color="#5790FC" stop-opacity="1"/><stop offset="44.999998807907104%" stop-color="#5862F0" stop-opacity="1"/><stop offset="100%" stop-color="#5862F0" stop-opacity="1"/></linearGradient><linearGradient x1="1" y1="0.5" x2="0" y2="0.5" id="master_svg2_247_05584"><stop offset="0%" stop-color="#5862F0" stop-opacity="1"/><stop offset="100%" stop-color="#D8D8D8" stop-opacity="0"/></linearGradient></defs><g clip-path="url(#master_svg0_1247_08733)"><g><path d="M8.163530664062499,15.5696150390625C8.7928206640625,15.5696150390625,9.3029506640625,16.0797150390625,9.3029506640625,16.7090150390625L9.3029506640625,18.9879150390625C9.3029506640625,19.6171150390625,8.7928206640625,20.127315039062502,8.163530664062499,20.127315039062502L3.6058506640625003,20.127315039062502C2.9765666640625,20.127315039062502,2.4664306640625,19.6171150390625,2.4664306640625,18.9879150390625L2.4664306640625,16.7090150390625C2.4664305336665,16.0797150390625,2.9765656640625,15.5696150390625,3.6058506640625003,15.5696150390625L8.163530664062499,15.5696150390625ZM17.2789306640625,15.5696150390625C17.9081306640625,15.5696150390625,18.418330664062502,16.0797150390625,18.418330664062502,16.7090150390625L18.418330664062502,18.9879150390625C18.418330664062502,19.6171150390625,17.9081306640625,20.127315039062502,17.2789306640625,20.127315039062502L12.7212306640625,20.127315039062502C12.0919306640625,20.127315039062502,11.5817906640625,19.6171150390625,11.5817906640625,18.9879150390625L11.5817906640625,16.7090150390625C11.5817906640625,16.0797150390625,12.0919306640625,15.5696150390625,12.7212306640625,15.5696150390625L17.2789306640625,15.5696150390625ZM26.3942306640625,15.5696150390625C27.0235306640625,15.5696150390625,27.5336306640625,16.0797150390625,27.5336306640625,16.7090150390625L27.5336306640625,18.9879150390625C27.5336306640625,19.6171150390625,27.0235306640625,20.127315039062502,26.3942306640625,20.127315039062502L21.8365306640625,20.127315039062502C21.2073306640625,20.127315039062502,20.6971306640625,19.6171150390625,20.6971306640625,18.9879150390625L20.6971306640625,16.7090150390625C20.6971306640625,16.0797150390625,21.2073306640625,15.5696150390625,21.8365306640625,15.5696150390625L26.3942306640625,15.5696150390625ZM26.3942306640625,4.1754150390625C27.0235306640625,4.1754152998555,27.5336306640625,4.6855510390625,27.5336306640625,5.3148350390625L27.5336306640625,7.5936750390625C27.5336306640625,8.2229550390625,27.0235306640625,8.733095039062501,26.3942306640625,8.733095039062501L3.6058506640625003,8.733095039062501C2.9765666640625,8.733095039062501,2.4664306640625,8.2229550390625,2.4664306640625,7.5936750390625L2.4664306640625,5.3148350390625C2.4664305336665,4.6855510390625,2.9765666640625,4.1754155606475,3.6058506640625003,4.1754155606475L26.3942306640625,4.1754150390625Z" fill="url(#master_svg1_247_05230)" fill-opacity="1"/></g><g><path d="M8.163530664062499,21.266758593749998C8.7928206640625,21.266758593749998,9.3029506640625,21.77685859375,9.3029506640625,22.40615859375L9.3029506640625,24.68505859375C9.3029506640625,25.31425859375,8.7928206640625,25.824458593750002,8.163530664062499,25.824458593750002L3.6058506640625003,25.824458593750002C2.9765666640625,25.824458593750002,2.4664306640625,25.31425859375,2.4664306640625,24.68505859375L2.4664306640625,22.40615859375C2.4664305336665,21.77685859375,2.9765666640625,21.266758593749998,3.6058506640625003,21.266758593749998L8.163530664062499,21.266758593749998ZM17.2789306640625,21.266758593749998C17.9081306640625,21.266758593749998,18.418330664062502,21.77685859375,18.418330664062502,22.40615859375L18.418330664062502,24.68505859375C18.418330664062502,25.31425859375,17.9081306640625,25.824458593750002,17.2789306640625,25.824458593750002L12.7212306640625,25.824458593750002C12.0919306640625,25.824458593750002,11.5817906640625,25.31425859375,11.5817906640625,24.68505859375L11.5817906640625,22.40615859375C11.5817906640625,21.77685859375,12.0919306640625,21.266758593749998,12.7212306640625,21.266758593749998L17.2789306640625,21.266758593749998ZM26.3942306640625,21.266758593749998C27.0235306640625,21.266758593749998,27.5336306640625,21.77685859375,27.5336306640625,22.40615859375L27.5336306640625,24.68505859375C27.5336306640625,25.31425859375,27.0235306640625,25.824458593750002,26.3942306640625,25.824458593750002L21.8365306640625,25.824458593750002C21.2073306640625,25.824458593750002,20.6971306640625,25.31425859375,20.6971306640625,24.68505859375L20.6971306640625,22.40615859375C20.6971306640625,21.77685859375,21.2073306640625,21.266758593749998,21.8365306640625,21.266758593749998L26.3942306640625,21.266758593749998ZM8.163530664062499,9.87255859375C8.7928206640625,9.872559115335,9.3029506640625,10.38269459375,9.3029506640625,11.01197859375L9.3029506640625,13.29081859375C9.3029506640625,13.92009859375,8.7928206640625,14.430238593750001,8.163530664062499,14.430238593750001L3.6058506640625003,14.430238593750001C2.9765656640625,14.430238593750001,2.4664306640625,13.92009859375,2.4664306640625,13.29081859375L2.4664306640625,11.01197859375C2.4664305336665,10.38269459375,2.9765666640625,9.872559115335,3.6058506640625003,9.872559115335L8.163530664062499,9.87255859375ZM17.2789306640625,9.87255859375C17.9081306640625,9.872559115335,18.418330664062502,10.38269459375,18.418330664062502,11.01197859375L18.418330664062502,13.29081859375C18.418330664062502,13.92009859375,17.9081306640625,14.430238593750001,17.2789306640625,14.430238593750001L12.7212306640625,14.430238593750001C12.0919306640625,14.430238593750001,11.5817906640625,13.92009859375,11.5817906640625,13.29081859375L11.5817906640625,11.01197859375C11.5817906640625,10.38269459375,12.0919306640625,9.872559115335,12.7212306640625,9.872559115335L17.2789306640625,9.87255859375ZM26.3942306640625,9.87255859375C27.0235306640625,9.872559115335,27.5336306640625,10.38269459375,27.5336306640625,11.01197859375L27.5336306640625,13.29081859375C27.5336306640625,13.92009859375,27.0235306640625,14.430238593750001,26.3942306640625,14.430238593750001L21.8365306640625,14.430238593750001C21.2073306640625,14.430238593750001,20.6971306640625,13.92009859375,20.6971306640625,13.29081859375L20.6971306640625,11.01197859375C20.6971306640625,10.38269459375,21.2073306640625,9.872559115335,21.8365306640625,9.872559115335L26.3942306640625,9.87255859375Z" fill="url(#master_svg2_247_05584)" fill-opacity="1"/></g></g></svg>