<svg xmlns="http://www.w3.org/2000/svg" xmlns:xlink="http://www.w3.org/1999/xlink" fill="none" version="1.1" width="30" height="30" viewBox="0 0 30 30"><defs><linearGradient x1="0.10837093740701675" y1="0" x2="0.10837093740701675" y2="1" id="master_svg0_247_05230"><stop offset="0%" stop-color="#5790FC" stop-opacity="1"/><stop offset="44.999998807907104%" stop-color="#5862F0" stop-opacity="1"/><stop offset="100%" stop-color="#5862F0" stop-opacity="1"/></linearGradient><linearGradient x1="1" y1="0.5" x2="0" y2="0.5" id="master_svg1_247_05524"><stop offset="0%" stop-color="#5862F0" stop-opacity="1"/><stop offset="100%" stop-color="#D8D8D8" stop-opacity="0"/></linearGradient></defs><g><g><g><path d="M2.756103515625,27.143834033203124L2.756103515625,2.856134033203125Q2.756103515625,2.836242833203125,2.763715565625,2.817865733203125Q2.771327615625,2.799488533203125,2.785392815625,2.785423333203125Q2.799458015625,2.771358133203125,2.817835115625,2.763746083203125Q2.836212315625,2.756134033203125,2.856103515625,2.756134033203125L3.9749535156249998,2.756134033203125Q3.994843515625,2.756134033203125,4.0132235156250005,2.763746083203125Q4.031593515625,2.771358133203125,4.045663515625,2.785423333203125Q4.0597235156250004,2.799488533203125,4.067343515625,2.817865633203125Q4.074953515625,2.836242833203125,4.074953515625,2.856134033203125L4.074953515625,25.925034033203126L27.143903515625,25.925034033203126Q27.163803515625,25.925034033203126,27.182203515625,25.932634033203126Q27.200503515625,25.940234033203126,27.214603515625,25.954334033203125Q27.228703515625,25.968334033203124,27.236303515625,25.986734033203124Q27.243903515625,26.005134033203124,27.243903515625,26.025034033203124L27.243903515625,27.143834033203124Q27.243903515625,27.163734033203124,27.236303515625,27.182134033203123Q27.228703515625,27.200534033203127,27.214603515625,27.214534033203126Q27.200503515625,27.228634033203125,27.182203515625,27.236234033203125Q27.163803515625,27.243834033203125,27.143903515625,27.243834033203125L2.856103515625,27.243834033203125Q2.836212315625,27.243834033203125,2.817835215625,27.236234033203125Q2.799458015625,27.228634033203125,2.785392815625,27.214534033203126Q2.771327615625,27.200534033203127,2.763715565625,27.182134033203123Q2.756103515625,27.163734033203124,2.756103515625,27.143834033203124ZM11.990113515625,6.279934033203125L5.479373515624999,6.279934033203125L5.479373515624999,11.113064033203125L11.990113515625,11.113064033203125L11.990113515625,6.279934033203125ZM14.738003515625,12.583434033203124L5.479373515624999,12.583434033203124L5.479373515624999,17.416534033203124L14.738003515625,17.416534033203124L14.738003515625,12.583434033203124ZM9.418023515625,18.886934033203126L5.479373515624999,18.886934033203126L5.479373515624999,23.720034033203124L9.418023515625,23.720034033203124L9.418023515625,18.886934033203126Z" fill-rule="evenodd" fill="url(#master_svg0_247_05230)" fill-opacity="1"/></g><g><path d="M14.034664492187499,6.279937744140625L22.2084544921875,6.279937744140625C22.760754492187502,6.279937744140625,23.2084544921875,6.727652744140625,23.2084544921875,7.279937744140625L23.2084544921875,10.113067744140626C23.2084544921875,10.665347744140625,22.760754492187502,11.113067744140626,22.2084544921875,11.113067744140626L14.034664492187499,11.113067744140626L14.034664492187499,6.279937744140625ZM16.6977544921875,12.583437744140625L24.9564544921875,12.583437744140625C25.5087544921875,12.583437744140625,25.9564544921875,13.031147744140625,25.9564544921875,13.583437744140625L25.9564544921875,16.416537744140626C25.9564544921875,16.968837744140625,25.5087544921875,17.416537744140626,24.9564544921875,17.416537744140626L16.6977544921875,17.416537744140626L16.6977544921875,12.583437744140625ZM11.3758544921875,18.886937744140624L19.6363544921875,18.886937744140624C20.1886444921875,18.886937744140624,20.6363544921875,19.334637744140625,20.6363544921875,19.886937744140624L20.6363544921875,22.720037744140626C20.6363544921875,23.272337744140625,20.1886444921875,23.720037744140626,19.6363544921875,23.720037744140626L11.3758544921875,23.720037744140626L11.3758544921875,18.886937744140624Z" fill="url(#master_svg1_247_05524)" fill-opacity="1"/></g></g></g></svg>