<svg xmlns="http://www.w3.org/2000/svg" xmlns:xlink="http://www.w3.org/1999/xlink" fill="none" version="1.1" width="30" height="29.999969482421875" viewBox="0 0 30 29.999969482421875"><defs><linearGradient x1="0.10837093740701675" y1="0" x2="0.10837093740701675" y2="1" id="master_svg0_247_05230"><stop offset="0%" stop-color="#5790FC" stop-opacity="1"/><stop offset="44.999998807907104%" stop-color="#5862F0" stop-opacity="1"/><stop offset="100%" stop-color="#5862F0" stop-opacity="1"/></linearGradient></defs><g><g><path d="M2.756103515625,27.143813052368163L2.756103515625,2.856113052368164Q2.756103515625,2.836221852368164,2.763715565625,2.8178447523681642Q2.771327615625,2.799467552368164,2.785392815625,2.785402352368164Q2.799458015625,2.7713371523681642,2.817835115625,2.763725102368164Q2.836212315625,2.756113052368164,2.856103515625,2.756113052368164L3.9749535156249998,2.756113052368164Q3.994843515625,2.756113052368164,4.0132235156250005,2.763725102368164Q4.031593515625,2.7713371523681642,4.045663515625,2.785402352368164Q4.0597235156250004,2.799467552368164,4.067343515625,2.817844652368164Q4.074953515625,2.836221852368164,4.074953515625,2.856113052368164L4.074953515625,25.925013052368165L27.143903515625,25.925013052368165Q27.163803515625,25.925013052368165,27.182203515625,25.932613052368165Q27.200503515625,25.940213052368165,27.214603515625,25.954313052368164Q27.228703515625,25.968313052368163,27.236303515625,25.986713052368163Q27.243903515625,26.005113052368163,27.243903515625,26.025013052368163L27.243903515625,27.143813052368163Q27.243903515625,27.163713052368163,27.236303515625,27.182113052368162Q27.228703515625,27.200513052368166,27.214603515625,27.214513052368165Q27.200503515625,27.228613052368164,27.182203515625,27.236213052368164Q27.163803515625,27.243813052368164,27.143903515625,27.243813052368164L2.856103515625,27.243813052368164Q2.836212315625,27.243813052368164,2.817835215625,27.236213052368164Q2.799458015625,27.228613052368164,2.785392815625,27.214513052368165Q2.771327615625,27.200513052368166,2.763715565625,27.182113052368162Q2.756103515625,27.163713052368163,2.756103515625,27.143813052368163ZM5.479373515624999,6.279913052368164L11.990113515625,6.279913052368164L11.990113515625,11.113043052368164L5.479373515624999,11.113043052368164L5.479373515624999,6.279913052368164ZM14.034703515625,6.279913052368164L22.208503515625,6.279913052368164C22.760803515625,6.279913052368164,23.208503515625,6.727633052368164,23.208503515625,7.279913052368164L23.208503515625,10.113043052368164C23.208503515625,10.665333052368165,22.760803515625,11.113043052368164,22.208503515625,11.113043052368164L14.034703515625,11.113043052368164L14.034703515625,6.279913052368164ZM5.479373515624999,12.583413052368163L14.738003515625,12.583413052368163L14.738003515625,17.416513052368163L5.479373515624999,17.416513052368163L5.479373515624999,12.583413052368163ZM16.697803515625,12.583413052368163L24.956403515625,12.583413052368163C25.508703515625,12.583413052368163,25.956403515625,13.031113052368164,25.956403515625,13.583413052368163L25.956403515625,16.416513052368163C25.956403515625,16.968813052368162,25.508703515625,17.416513052368163,24.956403515625,17.416513052368163L16.697803515625,17.416513052368163L16.697803515625,12.583413052368163ZM5.479373515624999,18.886913052368165L9.418023515625,18.886913052368165L9.418023515625,23.720013052368163L5.479373515624999,23.720013052368163L5.479373515624999,18.886913052368165ZM11.375853515625,18.886913052368165L19.636403515625,18.886913052368165C20.188603515625,18.886913052368165,20.636403515625,19.334613052368162,20.636403515625,19.886913052368165L20.636403515625,22.720013052368163C20.636403515625,23.272313052368165,20.188603515625,23.720013052368163,19.636403515625,23.720013052368163L11.375853515625,23.720013052368163L11.375853515625,18.886913052368165Z" fill-rule="evenodd" fill="url(#master_svg0_247_05230)" fill-opacity="1"/></g></g></svg>