<svg xmlns="http://www.w3.org/2000/svg" xmlns:xlink="http://www.w3.org/1999/xlink" fill="none" version="1.1" width="30" height="30" viewBox="0 0 30 30"><defs><linearGradient x1="0.10837093740701675" y1="0" x2="0.10837093740701675" y2="1" id="master_svg0_247_05230"><stop offset="0%" stop-color="#5790FC" stop-opacity="1"/><stop offset="44.999998807907104%" stop-color="#5862F0" stop-opacity="1"/><stop offset="100%" stop-color="#5862F0" stop-opacity="1"/></linearGradient><linearGradient x1="0.5" y1="0" x2="0.5" y2="1" id="master_svg1_247_05520"><stop offset="0%" stop-color="#5862F0" stop-opacity="1"/><stop offset="100%" stop-color="#D8D8D8" stop-opacity="0"/></linearGradient></defs><g><g><g><path d="M0.8096657265625,27.243910191345215L29.1903947265625,27.243910191345215Q29.2102947265625,27.243910191345215,29.2286947265625,27.236310191345215Q29.2470947265625,27.228710191345215,29.2610947265625,27.214610191345216Q29.2751947265625,27.200510191345217,29.2827947265625,27.182210191345217Q29.2903947265625,27.163810191345213,29.2903947265625,27.143910191345213L29.2903947265625,26.025010191345213Q29.2903947265625,26.005210191345213,29.2827947265625,25.986810191345214Q29.2751947265625,25.968410191345214,29.2610947265625,25.954310191345215Q29.2470947265625,25.940310191345215,29.2286947265625,25.932710191345215Q29.2102947265625,25.925010191345216,29.1903947265625,25.925010191345216L2.0284447265625003,25.925010191345216L2.0284447265625003,2.856110191345215Q2.0284447265625003,2.836219291345215,2.0208347265624997,2.8178420913452147Q2.0132147265625,2.799464891345215,1.9991547265625,2.785399591345215Q1.9850847265625,2.771334291345215,1.9667147265625,2.763722261345215Q1.9483347265625,2.756110191345215,1.9284447265625,2.756110191345215L0.8095947265625,2.756110191345215Q0.7897038265625,2.756110191345215,0.7713266265625,2.763722261345215Q0.7529494265625,2.771334291345215,0.7388841265625,2.785399591345215Q0.7248188265625,2.799464891345215,0.7172067965625,2.8178420913452147Q0.7095947265625,2.836219291345215,0.7095947265625,2.856110191345215L0.7095947265625,27.143810191345214Q0.7095947265625,27.189510191345214,0.7440700265625,27.219410191345215L0.7442226265625,27.219510191345215Q0.7723999265625,27.243910191345215,0.8096657265625,27.243910191345215ZM17.4856947265625,14.074310191345214L17.4856947265625,24.520610191345217L12.6525947265625,24.520610191345217L12.6525947265625,14.074310191345214L17.4856947265625,14.074310191345214ZM25.9048947265625,14.469110191345214L25.9048947265625,24.520610191345217L21.0717947265625,24.520610191345217L21.0717947265625,14.469110191345214L25.9048947265625,14.469110191345214ZM9.0665247265625,17.026010191345215L9.0665247265625,24.520610191345217L4.2333947265625,24.520610191345217L4.2333947265625,17.026010191345215L9.0665247265625,17.026010191345215Z" fill-rule="evenodd" fill="url(#master_svg0_247_05230)" fill-opacity="1"/></g><g><path d="M25.90495947265625,13.529610191345215L25.90495947265625,4.1509201913452145C25.90495947265625,3.5986321913452146,25.45725947265625,3.150917191345215,24.90495947265625,3.150917191345215L22.07185947265625,3.150917191345215C21.51955947265625,3.150917191345215,21.07185947265625,3.5986321913452146,21.07185947265625,4.1509201913452145L21.07185947265625,13.529610191345215L25.90495947265625,13.529610191345215ZM17.485759472656248,13.202410191345216L17.485759472656248,3.7560961913452147C17.485759472656248,3.2038111913452147,17.03805947265625,2.7560958862452147,16.485759472656248,2.7560958862452147L13.65264947265625,2.7560958862452147C13.10036947265625,2.7560958862452147,12.65264947265625,3.2038111913452147,12.65264947265625,3.7560961913452147L12.65264947265625,13.202410191345216L17.485759472656248,13.202410191345216ZM9.06658947265625,16.018910191345213L9.06658947265625,6.707830191345215C9.06658947265625,6.1555401913452155,8.61886947265625,5.707830191345215,8.06658947265625,5.707830191345215L5.23345947265625,5.707830191345215C4.68117447265625,5.707830191345215,4.23345947265625,6.1555401913452155,4.23345947265625,6.707830191345215L4.23345947265625,16.018910191345213L9.06658947265625,16.018910191345213Z" fill="url(#master_svg1_247_05520)" fill-opacity="1"/></g></g></g></svg>