<svg xmlns="http://www.w3.org/2000/svg" xmlns:xlink="http://www.w3.org/1999/xlink" fill="none" version="1.1" width="30" height="30" viewBox="0 0 30 30"><defs><linearGradient x1="0.10837093740701675" y1="0" x2="0.10837093740701675" y2="1" id="master_svg0_247_05230"><stop offset="0%" stop-color="#5790FC" stop-opacity="1"/><stop offset="44.999998807907104%" stop-color="#5862F0" stop-opacity="1"/><stop offset="100%" stop-color="#5862F0" stop-opacity="1"/></linearGradient></defs><g><g><path d="M0.8096657265625,27.243903515625L29.1903947265625,27.243903515625Q29.2102947265625,27.243903515625,29.2286947265625,27.236303515625Q29.2470947265625,27.228703515625,29.2610947265625,27.214603515625Q29.2751947265625,27.200503515625,29.2827947265625,27.182203515625Q29.2903947265625,27.163803515625,29.2903947265625,27.143903515625L29.2903947265625,26.025003515625Q29.2903947265625,26.005203515625,29.2827947265625,25.986803515625Q29.2751947265625,25.968403515625,29.2610947265625,25.954303515625Q29.2470947265625,25.940303515625,29.2286947265625,25.932703515625Q29.2102947265625,25.925003515625,29.1903947265625,25.925003515625L2.0285647265625,25.925003515625L2.0285647265625,2.856103515625Q2.0285647265625,2.836212615625,2.0209547265625,2.817835415625Q2.0133447265625,2.799458215625,1.9992747265625,2.785392915625Q1.9852047265625,2.771327615625,1.9668347265625,2.763715585625Q1.9484547265625,2.756103515625,1.9285647265625,2.756103515625L0.8097167265625,2.756103515625Q0.7898258265625,2.756103515625,0.7714487265625,2.763715585625Q0.7530715265625,2.771327615625,0.7390062265625,2.785392915625Q0.7249409265625,2.799458215625,0.7173288665625,2.817835415625Q0.7097167965625,2.836212615625,0.7097167965625,2.856103515625L0.7097167965625,26.021803515625L0.7096652984625,26.025003515625L0.7096652984625,27.143903515625Q0.7096652984625,27.163803515625,0.7172773765625,27.182203515625Q0.7248894265625,27.200503515625,0.7389547265625,27.214603515625Q0.7530200265625,27.228703515625,0.7713972265625,27.236303515625Q0.7897743265625,27.243903515625,0.8096657265625,27.243903515625ZM17.4857947265625,13.202503515625L17.4857947265625,3.756123515625C17.4857947265625,3.203834515625,17.0380947265625,2.756119728125,16.4857947265625,2.756119728125L13.6526947265625,2.756119728125C13.1003947265625,2.756119728125,12.6526947265625,3.203834515625,12.6526947265625,3.756123515625L12.6526947265625,13.202503515625L17.4857947265625,13.202503515625ZM25.9049947265625,13.529703515625L25.9049947265625,4.150943515625C25.9049947265625,3.598655515625,25.4572947265625,3.150940515625,24.9049947265625,3.150940515625L22.0718947265625,3.150940515625C21.5195947265625,3.150940515625,21.0718947265625,3.598655515625,21.0718947265625,4.150943515625L21.0718947265625,13.529703515625L25.9049947265625,13.529703515625ZM9.0666547265625,16.018903515625L9.0666547265625,6.7078535156250005C9.0666547265625,6.1555635156249995,8.6189347265625,5.7078535156250005,8.0666547265625,5.7078535156250005L5.2335247265625,5.7078535156250005C4.6812347265625,5.7078535156250005,4.2335247265625,6.1555635156249995,4.2335247265625,6.7078535156250005L4.2335247265625,16.018903515625L9.0666547265625,16.018903515625ZM17.4857947265625,24.520603515625L17.4857947265625,14.074303515625L12.6526947265625,14.074303515625L12.6526947265625,24.520603515625L17.4857947265625,24.520603515625ZM25.9049947265625,24.520603515625L25.9049947265625,14.469103515625L21.0718947265625,14.469103515625L21.0718947265625,24.520603515625L25.9049947265625,24.520603515625ZM9.0666547265625,24.520603515625L9.0666547265625,17.026003515625L4.2335247265625,17.026003515625L4.2335247265625,24.520603515625L9.0666547265625,24.520603515625Z" fill-rule="evenodd" fill="url(#master_svg0_247_05230)" fill-opacity="1"/></g></g></svg>