<svg xmlns="http://www.w3.org/2000/svg" xmlns:xlink="http://www.w3.org/1999/xlink" fill="none" version="1.1" width="30" height="30" viewBox="0 0 30 30"><defs><linearGradient x1="0.10837093740701675" y1="0" x2="0.10837093740701675" y2="1" id="master_svg0_247_05230"><stop offset="0%" stop-color="#5790FC" stop-opacity="1"/><stop offset="44.999998807907104%" stop-color="#5862F0" stop-opacity="1"/><stop offset="100%" stop-color="#5862F0" stop-opacity="1"/></linearGradient></defs><g><g><path d="M18.624727030944825,18.106924169921875Q18.790027030944824,18.106924169921875,18.955027030944827,18.098824169921876Q19.120127030944822,18.090724169921877,19.284527030944822,18.074524169921872Q19.449027030944826,18.058324169921875,19.612527030944825,18.034124169921874Q19.775927030944825,18.009824169921878,19.938027030944824,17.977624169921874Q20.100127030944826,17.945324169921875,20.260427030944825,17.905224169921873Q20.420727030944825,17.865024169921874,20.578827030944822,17.817124169921875Q20.737027030944823,17.769124169921874,20.892627030944823,17.713424169921876Q21.048227030944823,17.657724169921877,21.200827030944826,17.594524169921876Q21.353527030944825,17.531324169921874,21.502927030944825,17.460624169921875Q21.652327030944825,17.389924169921876,21.798027030944823,17.312024169921877Q21.943827030944824,17.234124169921877,22.085527030944824,17.149224169921872Q22.227227030944825,17.064224169921875,22.364727030944824,16.972424169921876Q22.502127030944823,16.880624169921873,22.634827030944823,16.782224169921875Q22.767527030944823,16.683724169921874,22.895327030944824,16.578924169921876Q23.023027030944824,16.474124169921875,23.145527030944823,16.363124169921875Q23.267927030944826,16.252124169921874,23.384827030944823,16.135224169921877Q23.501627030944825,16.018424169921875,23.612627030944825,15.895924169921875Q23.723627030944826,15.773524169921876,23.828427030944823,15.645824169921875Q23.933227030944824,15.518024169921874,24.031727030944825,15.385324169921875Q24.130127030944823,15.252624169921875,24.221927030944823,15.115124169921875Q24.313727030944825,14.977724169921874,24.398727030944823,14.836024169921876Q24.483727030944824,14.694324169921876,24.561627030944823,14.548544169921875Q24.639527030944823,14.402794169921876,24.710127030944825,14.253414169921875Q24.780827030944824,14.104024169921875,24.844027030944826,13.951344169921875Q24.907227030944824,13.798674169921876,24.962927030944826,13.643074169921874Q25.018627030944824,13.487484169921874,25.066627030944826,13.329344169921875Q25.114527030944824,13.171204169921875,25.154727030944823,13.010904169921876Q25.194827030944825,12.850604169921874,25.227127030944825,12.688524169921875Q25.259327030944824,12.526444169921875,25.283627030944825,12.362984169921875Q25.307827030944825,12.199514169921876,25.324027030944823,12.035054169921874Q25.340227030944824,11.870594169921876,25.348327030944823,11.705544169921875Q25.356427030944825,11.540484169921875,25.356427030944825,11.375234169921875Q25.356427030944825,11.209984169921874,25.348327030944823,11.044924169921874Q25.340227030944824,10.879864169921875,25.324027030944823,10.715414169921875Q25.307827030944825,10.550954169921875,25.283627030944825,10.387484169921876Q25.259327030944824,10.224024169921876,25.227127030944825,10.061944169921876Q25.194827030944825,9.899864169921875,25.154727030944823,9.739564169921875Q25.114527030944824,9.579264169921874,25.066627030944826,9.421124169921875Q25.018627030944824,9.262984169921875,24.962927030944826,9.107394169921875Q24.907227030944824,8.951794169921875,24.844027030944826,8.799124169921875Q24.780827030944824,8.646444169921875,24.710127030944825,8.497054169921874Q24.639527030944823,8.347664169921876,24.561627030944823,8.201924169921874Q24.483727030944824,8.056184169921874,24.398727030944823,7.914444169921875Q24.313727030944825,7.772704169921875,24.221927030944823,7.635294169921875Q24.130127030944823,7.497894169921874,24.031727030944825,7.365154169921875Q23.933227030944824,7.232424169921876,23.828427030944823,7.104684169921875Q23.723627030944826,6.976934169921876,23.612627030944825,6.854494169921875Q23.501627030944825,6.732044169921875,23.384827030944823,6.615194169921875Q23.267927030944826,6.498344169921875,23.145527030944823,6.3873641699218755Q23.023027030944824,6.276384169921875,22.895327030944824,6.171554169921875Q22.767527030944823,6.066714169921875,22.634827030944823,5.968274169921875Q22.502127030944823,5.869834169921875,22.364727030944824,5.778024169921875Q22.227227030944825,5.686214169921875,22.085527030944824,5.6012531699218755Q21.943827030944824,5.516296169921875,21.798027030944823,5.438396169921875Q21.652327030944825,5.360495169921875,21.502927030944825,5.289840169921875Q21.353527030944825,5.219185169921875,21.200827030944826,5.155945169921875Q21.048227030944823,5.092705169921875,20.892627030944823,5.037032169921875Q20.737027030944823,4.981360169921875,20.578827030944822,4.933389169921875Q20.420727030944825,4.885418169921875,20.260427030944825,4.845265169921875Q20.100127030944826,4.805111169921875,19.938027030944824,4.772872169921875Q19.775927030944825,4.740632569921875,19.612527030944825,4.716384769921875Q19.449027030944826,4.692136969921875,19.284527030944822,4.675939169921875Q19.120127030944822,4.659741469921875,18.955027030944827,4.651632809921875Q18.790027030944824,4.643524169921875,18.624727030944825,4.643524169921875Q18.459527030944827,4.643524169921875,18.294427030944824,4.651632809921875Q18.129427030944825,4.659741469921875,17.964927030944825,4.675939169921875Q17.800427030944824,4.692136969921875,17.63702703094482,4.716384769921875Q17.473527030944823,4.740632569921875,17.311427030944824,4.772872169921875Q17.149327030944825,4.805111169921875,16.989027030944825,4.845265169921875Q16.828727030944826,4.885418169921875,16.670627030944825,4.933389169921875Q16.512527030944824,4.981360169921875,16.356927030944824,5.037032169921875Q16.201327030944825,5.092705169921875,16.04862703094482,5.155945169921875Q15.895927030944824,5.219185169921875,15.746527030944824,5.289840169921875Q15.597227030944824,5.360495169921875,15.451427030944824,5.438396169921875Q15.305727030944825,5.516296169921875,15.163927030944825,5.601254169921875Q15.022227030944824,5.686214169921875,14.884827030944825,5.778024169921875Q14.747427030944824,5.869834169921875,14.614677030944824,5.968274169921875Q14.481937030944824,6.066714169921875,14.354197030944825,6.171554169921875Q14.226457030944824,6.276384169921875,14.104007030944825,6.3873641699218755Q13.981567030944824,6.498344169921875,13.864707030944825,6.615194169921875Q13.747857030944823,6.732044169921875,13.636877030944824,6.854494169921875Q13.525897030944824,6.976934169921876,13.421067030944824,7.104684169921875Q13.316227030944825,7.232424169921876,13.217787030944825,7.365154169921875Q13.119347030944825,7.497894169921874,13.027537030944824,7.635294169921875Q12.935727030944824,7.772704169921875,12.850767030944825,7.914444169921875Q12.765807030944824,8.056184169921874,12.687907030944825,8.201924169921874Q12.610007030944825,8.347664169921876,12.539357030944824,8.497054169921874Q12.468697030944824,8.646444169921875,12.405457030944824,8.799124169921875Q12.342217030944823,8.951794169921875,12.286547030944824,9.107384169921875Q12.230877030944825,9.262984169921875,12.182907030944826,9.421124169921875Q12.134937030944824,9.579264169921874,12.094777030944824,9.739564169921875Q12.054627030944825,9.899864169921875,12.022387030944824,10.061944169921876Q11.990147030944824,10.224024169921876,11.965897030944824,10.387484169921876Q11.941647030944825,10.550954169921875,11.925457030944823,10.715414169921875Q11.909257030944824,10.879864169921875,11.901147030944824,11.044924169921874Q11.893037030944825,11.209984169921874,11.893037030944825,11.375234169921875Q11.893037030944825,11.540484169921875,11.901147030944824,11.705544169921875Q11.909257030944824,11.870594169921876,11.925457030944823,12.035054169921874Q11.941647030944825,12.199514169921876,11.965897030944824,12.362984169921875Q11.990147030944824,12.526444169921875,12.022387030944824,12.688524169921875Q12.054627030944825,12.850604169921874,12.094777030944824,13.010904169921876Q12.134937030944824,13.171204169921875,12.182907030944826,13.329344169921875Q12.230877030944825,13.487484169921874,12.286547030944824,13.643074169921874Q12.342217030944823,13.798674169921876,12.405457030944824,13.951344169921875Q12.468697030944824,14.104024169921875,12.539357030944824,14.253414169921875Q12.610007030944825,14.402794169921876,12.687907030944825,14.548534169921876Q12.765807030944824,14.694324169921876,12.850767030944825,14.836024169921876Q12.935727030944824,14.977724169921874,13.027537030944824,15.115124169921875Q13.119347030944825,15.252524169921875,13.217787030944825,15.385324169921875Q13.316227030944825,15.518024169921874,13.421067030944824,15.645824169921875Q13.525897030944824,15.773524169921876,13.636877030944824,15.895924169921875Q13.747857030944823,16.018424169921875,13.864707030944825,16.135224169921877Q13.981567030944824,16.252124169921874,14.104007030944825,16.363124169921875Q14.226457030944824,16.474124169921875,14.354197030944825,16.578924169921876Q14.481937030944824,16.683724169921874,14.614677030944824,16.782224169921875Q14.747427030944824,16.880624169921873,14.884827030944825,16.972424169921876Q15.022227030944824,17.064224169921875,15.163927030944825,17.149224169921872Q15.305727030944825,17.234124169921877,15.451427030944824,17.312024169921877Q15.597227030944824,17.389924169921876,15.746527030944824,17.460624169921875Q15.895927030944824,17.531324169921874,16.04862703094482,17.594524169921876Q16.201327030944825,17.657724169921877,16.356927030944824,17.713424169921876Q16.512527030944824,17.769124169921874,16.670627030944825,17.817124169921875Q16.828727030944826,17.865024169921874,16.989027030944825,17.905224169921873Q17.149327030944825,17.945324169921875,17.311427030944824,17.977624169921874Q17.473527030944823,18.009824169921878,17.63702703094482,18.034124169921874Q17.800427030944824,18.058324169921875,17.964927030944825,18.074524169921872Q18.129427030944825,18.090724169921877,18.294427030944824,18.098824169921876Q18.459527030944827,18.106924169921875,18.624727030944825,18.106924169921875ZM9.303937030944823,25.356424169921876C6.7310070309448236,25.356424169921876,4.643527030944824,23.269024169921874,4.643527030944824,20.696024169921873C4.643527030944824,18.123124169921873,6.728977030944824,16.035624169921874,9.303937030944823,16.035624169921874C11.878897030944824,16.035624169921874,13.964357030944825,18.123124169921873,13.964357030944825,20.696024169921873C13.964357030944825,23.269024169921874,11.876877030944824,25.356424169921876,9.303937030944823,25.356424169921876ZM21.213927030944824,25.356424169921876C19.498627030944824,25.356424169921876,18.106927030944824,23.964824169921876,18.106927030944824,22.249524169921877C18.106927030944824,20.534224169921877,19.498627030944824,19.142624169921874,21.213927030944824,19.142624169921874C22.929227030944823,19.142624169921874,24.320827030944823,20.534224169921877,24.320827030944823,22.249524169921877C24.320827030944823,23.964824169921876,22.929227030944823,25.356424169921876,21.213927030944824,25.356424169921876Z" fill-rule="evenodd" fill="url(#master_svg0_247_05230)" fill-opacity="1"/></g></g></svg>