<svg xmlns="http://www.w3.org/2000/svg" xmlns:xlink="http://www.w3.org/1999/xlink" fill="none" version="1.1" width="30" height="30" viewBox="0 0 30 30"><defs><linearGradient x1="0.10837093740701675" y1="0" x2="0.10837093740701675" y2="1" id="master_svg0_247_05230"><stop offset="0%" stop-color="#5790FC" stop-opacity="1"/><stop offset="44.999998807907104%" stop-color="#5862F0" stop-opacity="1"/><stop offset="100%" stop-color="#5862F0" stop-opacity="1"/></linearGradient></defs><g><g style="opacity:0.9900000095367432;"><path d="M10.506183787231446,13.201907429504395Q10.631223787231445,13.201907429504395,10.756113787231445,13.195707429504395Q10.881003787231446,13.189607429504395,11.005443787231446,13.177307429504394Q11.129883787231446,13.165107429504394,11.253573787231446,13.146707429504394Q11.377263787231445,13.128407429504394,11.499903787231446,13.104007429504394Q11.622543787231447,13.079607429504394,11.743833787231445,13.049207429504394Q11.865123787231445,13.018807429504395,11.984783787231446,12.982537429504395Q12.104443787231446,12.946237429504395,12.222173787231444,12.904117429504394Q12.339903787231446,12.861987429504394,12.455433787231446,12.814137429504395Q12.570953787231446,12.766287429504395,12.683993787231445,12.712827429504394Q12.797023787231446,12.659367429504394,12.907303787231445,12.600417429504395Q13.017583787231445,12.541477429504395,13.124833787231445,12.477187429504395Q13.232083787231446,12.412907429504395,13.336053787231446,12.343437429504394Q13.440023787231445,12.273967429504394,13.540453787231446,12.199477429504395Q13.640893787231445,12.124987429504394,13.737553787231445,12.045667429504395Q13.834203787231445,11.966337429504394,13.926853787231446,11.882367429504395Q14.019503787231445,11.798397429504394,14.107923787231446,11.709977429504395Q14.196343787231445,11.621557429504394,14.280313787231446,11.528907429504395Q14.364283787231445,11.436257429504394,14.443613787231445,11.339607429504394Q14.522933787231445,11.242947429504394,14.597423787231445,11.142507429504395Q14.671913787231444,11.042077429504394,14.741383787231445,10.938107429504395Q14.810853787231446,10.834137429504395,14.875133787231446,10.726887429504394Q14.939423787231446,10.619637429504394,14.998363787231446,10.509357429504394Q15.057313787231445,10.399077429504395,15.110773787231444,10.286047429504395Q15.164233787231446,10.173007429504395,15.212083787231446,10.057487429504395Q15.259933787231445,9.941957429504395,15.302063787231445,9.824227429504393Q15.344183787231445,9.706497429504395,15.380483787231446,9.586837429504396Q15.416753787231446,9.467187429504396,15.447153787231445,9.345887429504394Q15.477553787231445,9.224597429504396,15.501953787231445,9.101957429504395Q15.526353787231445,8.979317429504395,15.544653787231445,8.855627429504395Q15.563053787231445,8.731937429504395,15.575253787231444,8.607497429504395Q15.587553787231446,8.483057429504395,15.593653787231446,8.358167429504395Q15.599853787231446,8.233277429504394,15.599853787231446,8.108237429504396Q15.599853787231446,7.983197429504394,15.593653787231446,7.858307429504395Q15.587553787231446,7.733417429504395,15.575253787231444,7.608977429504394Q15.563053787231445,7.484537429504394,15.544653787231445,7.360847429504394Q15.526353787231445,7.237157429504395,15.501953787231445,7.114517429504395Q15.477553787231445,6.991877429504394,15.447153787231445,6.870587429504395Q15.416753787231446,6.7492874295043945,15.380483787231446,6.6296374295043945Q15.344183787231445,6.509977429504394,15.302063787231445,6.392247429504394Q15.259933787231445,6.274517429504394,15.212083787231446,6.1589874295043945Q15.164233787231446,6.043467429504394,15.110773787231444,5.930427429504395Q15.057313787231445,5.817397429504394,14.998363787231446,5.707117429504395Q14.939423787231446,5.596837429504395,14.875133787231446,5.489587429504395Q14.810853787231446,5.382337429504394,14.741383787231445,5.278367429504394Q14.671913787231444,5.174397429504395,14.597423787231445,5.073967429504394Q14.522933787231445,4.9735274295043945,14.443613787231445,4.876877429504395Q14.364283787231445,4.780217429504394,14.280313787231446,4.687567429504394Q14.196343787231445,4.594917429504394,14.107923787231446,4.506497429504394Q14.019503787231445,4.418077429504395,13.926853787231446,4.334107429504394Q13.834203787231445,4.250137429504394,13.737553787231445,4.170807429504395Q13.640893787231445,4.091487429504395,13.540453787231446,4.016997429504395Q13.440023787231445,3.9425084295043944,13.336053787231446,3.8730384295043945Q13.232083787231446,3.8035694295043947,13.124833787231445,3.7392854295043945Q13.017583787231445,3.6750014295043947,12.907303787231445,3.6160564295043947Q12.797023787231446,3.5571124295043948,12.683993787231445,3.5036504295043946Q12.570953787231446,3.4501884295043945,12.455433787231446,3.4023364295043947Q12.339903787231446,3.3544854295043947,12.222173787231444,3.3123604295043947Q12.104443787231446,3.2702354295043947,11.984783787231446,3.2339374295043943Q11.865123787231445,3.1976394295043944,11.743833787231445,3.1672574295043945Q11.622543787231447,3.1368744295043944,11.499903787231446,3.1124801295043945Q11.377263787231445,3.0880857295043946,11.253573787231446,3.0697383295043945Q11.129883787231446,3.0513908295043946,11.005443787231446,3.0391346295043946Q10.881003787231446,3.0268784295043947,10.756113787231445,3.0207429295043946Q10.631223787231445,3.0146074295043945,10.506183787231446,3.0146074295043945Q10.381143787231444,3.0146074295043945,10.256253787231445,3.0207429295043946Q10.131363787231447,3.0268784295043947,10.006923787231445,3.0391346295043946Q9.882483787231445,3.0513908295043946,9.758793787231445,3.0697383295043945Q9.635103787231445,3.0880857295043946,9.512463787231447,3.1124801295043945Q9.389823787231446,3.1368744295043944,9.268533787231446,3.1672574295043945Q9.147233787231446,3.1976394295043944,9.027583787231446,3.2339374295043943Q8.907923787231445,3.2702354295043947,8.790193787231445,3.3123604295043947Q8.672463787231445,3.3544854295043947,8.556933787231445,3.4023364295043947Q8.441413787231445,3.4501884295043945,8.328373787231445,3.5036504295043946Q8.215343787231445,3.5571124295043948,8.105063787231446,3.6160564295043947Q7.994783787231445,3.6750014295043947,7.887533787231446,3.7392854295043945Q7.780283787231445,3.8035694295043947,7.676313787231445,3.8730384295043945Q7.572343787231445,3.9425084295043944,7.471913787231445,4.016997429504395Q7.371473787231445,4.091487429504395,7.274823787231446,4.170807429504395Q7.178163787231445,4.250137429504394,7.085513787231445,4.334107429504394Q6.992863787231445,4.418077429504395,6.904443787231445,4.506497429504394Q6.816023787231446,4.594917429504394,6.732053787231445,4.687567429504394Q6.648083787231445,4.780217429504394,6.568753787231445,4.876877429504395Q6.489433787231445,4.9735274295043945,6.414943787231445,5.073967429504394Q6.340454787231446,5.174397429504395,6.270984787231446,5.278367429504394Q6.201515787231445,5.382337429504394,6.137231787231445,5.489587429504395Q6.0729477872314455,5.596837429504395,6.014002787231445,5.707117429504395Q5.9550587872314455,5.817397429504394,5.901596787231445,5.930427429504395Q5.848134787231445,6.043467429504394,5.8002827872314455,6.1589874295043945Q5.752431787231445,6.274517429504394,5.7103067872314455,6.392247429504394Q5.668181787231445,6.509977429504394,5.631883787231446,6.6296374295043945Q5.595585787231445,6.7492874295043945,5.565203787231446,6.870587429504395Q5.534820787231445,6.991877429504394,5.510426487231445,7.114517429504395Q5.486031987231446,7.237157429504395,5.467684587231445,7.360847429504394Q5.449337187231445,7.484537429504394,5.437080987231445,7.608977429504394Q5.4248247872314455,7.733417429504395,5.418689287231445,7.858307429504395Q5.412553787231445,7.983197429504394,5.412553787231445,8.108237429504396Q5.412553787231445,8.233277429504394,5.418689287231445,8.358167429504395Q5.4248247872314455,8.483057429504395,5.437080987231445,8.607497429504395Q5.449337187231445,8.731937429504395,5.467684587231445,8.855627429504395Q5.486031987231446,8.979317429504395,5.510426487231445,9.101957429504395Q5.534820787231445,9.224597429504396,5.565203787231446,9.345887429504394Q5.595585787231445,9.467187429504396,5.631883787231446,9.586837429504396Q5.668181787231445,9.706497429504395,5.7103067872314455,9.824227429504393Q5.752431787231445,9.941957429504395,5.8002827872314455,10.057487429504395Q5.848134787231445,10.173007429504395,5.901596787231445,10.286047429504395Q5.9550587872314455,10.399077429504395,6.014002787231445,10.509357429504394Q6.0729477872314455,10.619637429504394,6.137231787231445,10.726887429504394Q6.201515787231445,10.834137429504395,6.270984787231446,10.938107429504395Q6.340454787231446,11.042077429504394,6.414943787231445,11.142507429504395Q6.489433787231445,11.242947429504394,6.568753787231445,11.339607429504394Q6.648083787231445,11.436267429504394,6.732053787231445,11.528917429504395Q6.816023787231446,11.621557429504394,6.904443787231445,11.709977429504395Q6.992863787231445,11.798397429504394,7.085513787231445,11.882367429504395Q7.178163787231445,11.966337429504394,7.274823787231446,12.045667429504395Q7.371473787231445,12.124987429504394,7.471913787231445,12.199477429504395Q7.572343787231445,12.273967429504394,7.676313787231445,12.343437429504394Q7.780283787231445,12.412907429504395,7.887533787231446,12.477187429504395Q7.994783787231445,12.541477429504395,8.105063787231446,12.600417429504395Q8.215343787231445,12.659367429504394,8.328373787231445,12.712827429504394Q8.441413787231445,12.766287429504395,8.556933787231445,12.814137429504395Q8.672463787231445,12.861987429504394,8.790193787231445,12.904117429504394Q8.907923787231445,12.946237429504395,9.027583787231446,12.982537429504395Q9.147233787231446,13.018807429504395,9.268533787231446,13.049207429504394Q9.389823787231446,13.079607429504394,9.512463787231447,13.104007429504394Q9.635103787231445,13.128407429504394,9.758793787231445,13.146707429504394Q9.882483787231445,13.165107429504394,10.006923787231445,13.177307429504394Q10.131363787231447,13.189607429504395,10.256253787231445,13.195707429504395Q10.381143787231444,13.201907429504395,10.506183787231446,13.201907429504395ZM17.996053787231446,10.505357429504395C17.996053787231446,12.325517429504394,19.471553787231443,13.801007429504395,21.291753787231446,13.801007429504395C23.111953787231446,13.801007429504395,24.587453787231446,12.325517429504394,24.587453787231446,10.505357429504395C24.587453787231446,8.685207429504395,23.111953787231446,7.209677429504395,21.291753787231446,7.209677429504395C19.471553787231443,7.209677429504395,17.996053787231446,8.685207429504395,17.996053787231446,10.505357429504395ZM13.202343787231445,17.096707429504395C13.202343787231445,17.924107429504396,13.873043787231445,18.594807429504392,14.700393787231445,18.594807429504392C15.527753787231445,18.594807429504392,16.198453787231443,17.924107429504396,16.198453787231443,17.096707429504395C16.198453787231443,16.269407429504394,15.527753787231445,15.598707429504394,14.700393787231445,15.598707429504394C13.873043787231445,15.598707429504394,13.202343787231445,16.269407429504394,13.202343787231445,17.096707429504395ZM20.093453787231446,16.197907429504394C19.266053787231446,16.197907429504394,18.595353787231446,16.868607429504394,18.595353787231446,17.696007429504395C18.595353787231446,18.523307429504392,19.266053787231446,19.194007429504396,20.093453787231446,19.194007429504396C20.920753787231448,19.194007429504396,21.591453787231444,18.523307429504392,21.591453787231444,17.696007429504395C21.591453787231444,16.868607429504394,20.920753787231448,16.197907429504394,20.093453787231446,16.197907429504394ZM12.005653787231445,20.392407429504395C12.005653787231445,19.068007429504394,10.931533787231444,17.994707429504395,9.607133787231446,17.995607429504396C8.284033787231445,17.996507429504394,7.2119337872314455,19.069307429504395,7.2119337872314455,20.392407429504395C7.2119337872314455,21.715507429504395,8.284033787231445,22.788407429504396,9.607133787231446,22.789307429504394C10.931533787231444,22.790207429504395,12.005653787231445,21.716807429504396,12.005653787231445,20.392407429504395ZM17.696453787231444,26.985407429504395C19.517253787231446,26.985407429504395,20.993053787231446,25.508907429504394,20.992153787231445,23.688107429504395C20.993053787231446,21.867307429504393,19.517253787231446,20.390807429504395,17.696453787231444,20.390807429504395C15.875653787231446,20.390807429504395,14.399893787231445,21.867307429504393,14.400783787231445,23.688107429504395C14.399893787231445,25.508907429504394,15.875653787231446,26.985407429504395,17.696453787231444,26.985407429504395Z" fill-rule="evenodd" fill="url(#master_svg0_247_05230)" fill-opacity="1"/></g></g></svg>