<svg xmlns="http://www.w3.org/2000/svg" xmlns:xlink="http://www.w3.org/1999/xlink" fill="none" version="1.1" width="30" height="30" viewBox="0 0 30 30"><defs><linearGradient x1="0.10837093740701675" y1="0" x2="0.10837093740701675" y2="1" id="master_svg0_247_05230"><stop offset="0%" stop-color="#5790FC" stop-opacity="1"/><stop offset="44.999998807907104%" stop-color="#5862F0" stop-opacity="1"/><stop offset="100%" stop-color="#5862F0" stop-opacity="1"/></linearGradient></defs><g><g><path d="M10.797940586166382,20.22606204223633L20.069460586166382,20.22606204223633C20.769160586166382,20.22606204223633,21.252560586166382,20.926262042236328,21.00456058616638,21.580462042236327L19.415460586166382,25.772862042236326C19.26816058616638,26.161462042236327,18.89596058616638,26.418462042236328,18.480360586166384,26.418462042236328L12.335910586166381,26.418462042236328C11.916440586166383,26.418462042236328,11.541550586166382,26.156662042236327,11.397090586166382,25.76286204223633L9.859120586166382,21.57046204223633C9.619700586166381,20.91786204223633,10.102780586166382,20.22606204223633,10.797940586166382,20.22606204223633M8.031710586166382,11.916122042236328L22.72686058616638,11.916122042236328C23.42686058616638,11.916122042236328,23.91026058616638,12.616872042236329,23.66166058616638,13.271272042236328L22.25926058616638,16.962762042236328C22.111760586166383,17.350962042236326,21.73966058616638,17.607662042236328,21.32436058616638,17.607662042236328L9.491110586166382,17.607662042236328C9.080740586166382,17.607662042236328,8.712030586166382,17.35686204223633,8.56115058616638,16.97526204223633L7.101750586166382,13.283782042236329C6.842280586166382,12.627462042236328,7.3259605861663815,11.916122042236328,8.031710586166382,11.916122042236328M3.924590586166382,3.581562042236328L26.075460586166383,3.581562042236328C26.803960586166383,3.581562042236328,27.28796058616638,4.335564042236328,26.98466058616638,4.997922042236328L25.064860586166382,9.19029204223633C24.901960586166382,9.545902042236328,24.546760586166382,9.773932042236328,24.15566058616638,9.773932042236328L5.950860586166382,9.773932042236328C5.567250586166382,9.773932042236328,5.2174505861663825,9.554482042236328,5.050510586166382,9.209092042236328L3.024237586166382,5.016722042236328C2.7032935861663816,4.352692042236328,3.187063586166382,3.581562042236328,3.924590586166382,3.581562042236328" fill="url(#master_svg0_247_05230)" fill-opacity="1"/></g></g></svg>