<svg xmlns="http://www.w3.org/2000/svg" xmlns:xlink="http://www.w3.org/1999/xlink" fill="none" version="1.1" width="30" height="30" viewBox="0 0 30 30"><defs><linearGradient x1="0.10837093740701675" y1="0" x2="0.10837093740701675" y2="1" id="master_svg0_247_05230"><stop offset="0%" stop-color="#5790FC" stop-opacity="1"/><stop offset="44.999998807907104%" stop-color="#5862F0" stop-opacity="1"/><stop offset="100%" stop-color="#5862F0" stop-opacity="1"/></linearGradient></defs><g><g><path d="M6.34021390625,26.552323388671876L6.34021390625,22.675223388671874Q6.34021390625,22.576723388671876,6.35942390625,22.480123388671874Q6.37864390625,22.383523388671875,6.41633390625,22.292623388671874Q6.45402390625,22.201623388671877,6.50874390625,22.119723388671876Q6.56345390625,22.037823388671875,6.63310390625,21.968123388671874Q6.70274390625,21.898523388671876,6.78464390625,21.843823388671876Q6.86653390625,21.789023388671875,6.95752390625,21.751423388671874Q7.04852390625,21.713723388671873,7.14512390625,21.694523388671875Q7.24171390625,21.675223388671874,7.34021390625,21.675223388671874L26.55225390625,21.675223388671874Q26.65075390625,21.675223388671874,26.74735390625,21.694523388671875Q26.84395390625,21.713723388671873,26.93495390625,21.751423388671874Q27.02595390625,21.789023388671875,27.10785390625,21.843823388671876Q27.18975390625,21.898523388671876,27.25935390625,21.968123388671874Q27.32895390625,22.037823388671875,27.38375390625,22.119723388671876Q27.43845390625,22.201623388671877,27.47615390625,22.292623388671874Q27.51385390625,22.383523388671875,27.53305390625,22.480123388671874Q27.55225390625,22.576723388671876,27.55225390625,22.675223388671874L27.55225390625,26.552323388671876Q27.55225390625,26.650723388671874,27.53305390625,26.747323388671877Q27.51385390625,26.843923388671875,27.47615390625,26.934923388671876Q27.43845390625,27.025923388671874,27.38375390625,27.107823388671875Q27.32895390625,27.189723388671876,27.25935390625,27.259423388671873Q27.18975390625,27.329023388671875,27.10785390625,27.383723388671875Q27.02595390625,27.438423388671875,26.93495390625,27.476123388671876Q26.84395390625,27.513823388671874,26.74735390625,27.533023388671875Q26.65075390625,27.552323388671876,26.55225390625,27.552323388671876L7.34021390625,27.552323388671876Q7.24171390625,27.552323388671876,7.14512390625,27.533023388671875Q7.04852390625,27.513823388671874,6.95752390625,27.476123388671876Q6.86653390625,27.438423388671875,6.78464390625,27.383723388671875Q6.70274390625,27.329023388671875,6.63310390625,27.259423388671873Q6.56345390625,27.189723388671876,6.50874390625,27.107823388671875Q6.45402390625,27.025923388671874,6.41633390625,26.934923388671876Q6.37864390625,26.843923388671875,6.35942390625,26.747323388671877Q6.34021390625,26.650723388671874,6.34021390625,26.552323388671876ZM2.44775390625,16.938523388671875L2.44775390625,13.061523388671874Q2.44775390625,12.963023388671875,2.46696860625,12.866423388671874Q2.48618330625,12.769823388671876,2.52387440625,12.678823388671875Q2.56156490625,12.587823388671875,2.61628390625,12.505923388671874Q2.67100290625,12.424033388671875,2.74064690625,12.354383388671875Q2.81029090625,12.284743388671876,2.89218390625,12.230023388671874Q2.97407590625,12.175303388671875,3.0650699062499998,12.137613388671875Q3.15606490625,12.099923388671876,3.25266390625,12.080703388671875Q3.34926290625,12.061493388671876,3.44775390625,12.061493388671876L18.82785390625,12.061493388671876Q18.92635390625,12.061493388671876,19.02295390625,12.080703388671875Q19.11955390625,12.099923388671876,19.21045390625,12.137613388671875Q19.30145390625,12.175303388671875,19.38335390625,12.230023388671874Q19.46525390625,12.284743388671876,19.53495390625,12.354383388671875Q19.60455390625,12.424033388671875,19.65925390625,12.505923388671874Q19.71405390625,12.587823388671875,19.75165390625,12.678823388671875Q19.78935390625,12.769823388671876,19.80855390625,12.866423388671874Q19.82785390625,12.963023388671875,19.82785390625,13.061523388671874L19.82785390625,16.938523388671875Q19.82785390625,17.037023388671876,19.80855390625,17.133623388671875Q19.78935390625,17.230223388671874,19.75165390625,17.321223388671875Q19.71405390625,17.412223388671876,19.65925390625,17.494123388671873Q19.60455390625,17.575923388671875,19.53495390625,17.645623388671876Q19.46525390625,17.715223388671873,19.38335390625,17.770023388671873Q19.30145390625,17.824723388671877,19.21045390625,17.862423388671875Q19.11955390625,17.900123388671876,19.02295390625,17.919323388671877Q18.92635390625,17.938523388671875,18.82785390625,17.938523388671875L3.44775390625,17.938523388671875Q3.34926290625,17.938523388671875,3.25266390625,17.919323388671877Q3.15606490625,17.900123388671876,3.0650699062499998,17.862423388671875Q2.97407590625,17.824723388671877,2.89218390625,17.770023388671873Q2.81029090625,17.715223388671873,2.74064690625,17.645623388671876Q2.67100290625,17.575923388671875,2.61628390625,17.494123388671873Q2.56156490625,17.412223388671876,2.52387440625,17.321223388671875Q2.48618330625,17.230223388671874,2.46696860625,17.133623388671875Q2.44775390625,17.037023388671876,2.44775390625,16.938523388671875ZM14.03445390625,7.324733388671875L14.03445390625,3.447723388671875Q14.03445390625,3.349232388671875,14.05365390625,3.252633388671875Q14.07285390625,3.156034388671875,14.11055390625,3.0650393886718748Q14.14825390625,2.974045388671875,14.20295390625,2.892153388671875Q14.25765390625,2.810260388671875,14.32735390625,2.740616388671875Q14.39695390625,2.670972388671875,14.47885390625,2.616253388671875Q14.56075390625,2.561534388671875,14.65175390625,2.523843888671875Q14.74275390625,2.486152788671875,14.83935390625,2.466938088671875Q14.93595390625,2.447723388671875,15.03445390625,2.447723388671875L26.55225390625,2.447723388671875Q26.65075390625,2.447723388671875,26.74735390625,2.466938088671875Q26.84395390625,2.486152788671875,26.93495390625,2.523843888671875Q27.02595390625,2.561534388671875,27.10785390625,2.616253388671875Q27.18975390625,2.670972388671875,27.25935390625,2.740616388671875Q27.32895390625,2.810260388671875,27.38375390625,2.892153388671875Q27.43845390625,2.974045388671875,27.47615390625,3.0650393886718748Q27.51385390625,3.156034388671875,27.53305390625,3.252633388671875Q27.55225390625,3.349232388671875,27.55225390625,3.447723388671875L27.55225390625,7.324733388671875Q27.55225390625,7.423233388671875,27.53305390625,7.519823388671875Q27.51385390625,7.616423388671875,27.47615390625,7.707423388671875Q27.43845390625,7.798413388671875,27.38375390625,7.880303388671875Q27.32895390625,7.962203388671875,27.25935390625,8.031843388671875Q27.18975390625,8.101483388671875,27.10785390625,8.156203388671875Q27.02595390625,8.210923388671876,26.93495390625,8.248613388671874Q26.84395390625,8.286303388671875,26.74735390625,8.305523388671876Q26.65075390625,8.324733388671875,26.55225390625,8.324733388671875L15.03445390625,8.324733388671875Q14.93595390625,8.324733388671875,14.83935390625,8.305523388671876Q14.74275390625,8.286303388671875,14.65175390625,8.248613388671874Q14.56075390625,8.210923388671876,14.47885390625,8.156203388671875Q14.39695390625,8.101483388671875,14.32735390625,8.031843388671875Q14.25765390625,7.962203388671875,14.20295390625,7.880303388671875Q14.14825390625,7.798413388671875,14.11055390625,7.707423388671875Q14.07285390625,7.616423388671875,14.05365390625,7.519823388671875Q14.03445390625,7.423233388671875,14.03445390625,7.324733388671875Z" fill="url(#master_svg0_247_05230)" fill-opacity="1"/></g></g></svg>