<svg xmlns="http://www.w3.org/2000/svg" xmlns:xlink="http://www.w3.org/1999/xlink" fill="none" version="1.1" width="30" height="30" viewBox="0 0 30 30"><defs><linearGradient x1="0.10837093740701675" y1="0" x2="0.10837093740701675" y2="1" id="master_svg0_247_05230"><stop offset="0%" stop-color="#5790FC" stop-opacity="1"/><stop offset="44.999998807907104%" stop-color="#5862F0" stop-opacity="1"/><stop offset="100%" stop-color="#5862F0" stop-opacity="1"/></linearGradient><linearGradient x1="1" y1="0.5" x2="0" y2="0.5" id="master_svg1_247_06555"><stop offset="0%" stop-color="#5862F0" stop-opacity="1"/><stop offset="44.999998807907104%" stop-color="#5862F0" stop-opacity="1"/><stop offset="100%" stop-color="#5790FC" stop-opacity="1"/></linearGradient></defs><g><g><path d="M7.130000381469726,14.421492309570311C8.460000381469726,14.421492309570311,9.580000381469727,13.471492309570312,9.580000381469727,11.891492309570314C9.580000381469727,10.281492309570313,8.640000381469726,9.561492309570312,7.400000381469726,9.561492309570312C6.9800003814697265,9.561492309570312,6.350000381469727,9.821492309570313,5.9800003814697265,10.291492309570312C6.050000381469727,8.671492309570313,6.660000381469727,8.121492309570312,7.430000381469727,8.121492309570312C7.840000381469727,8.121492309570312,8.300000381469726,8.381492309570312,8.540000381469728,8.641492309570312L9.480000381469726,7.591492309570312C9.010000381469727,7.111492309570313,8.290000381469726,6.7014923095703125,7.3100003814697265,6.7014923095703125C5.7700003814697265,6.7014923095703125,4.350000381469727,7.931492309570313,4.350000381469727,10.621492309570312C4.350000381469727,13.331492309570312,5.7300003814697265,14.421492309570311,7.130000381469726,14.421492309570311ZM6.010000381469727,11.481492309570314C6.3100003814697265,10.991492309570312,6.700000381469726,10.811492309570312,7.0600003814697265,10.811492309570312C7.550000381469727,10.811492309570312,7.960000381469726,11.081492309570312,7.960000381469726,11.891492309570314C7.960000381469726,12.741492309570312,7.5600003814697265,13.091492309570313,7.090000381469727,13.091492309570313C6.620000381469726,13.091492309570313,6.160000381469727,12.721492309570312,6.010000381469727,11.481492309570314ZM13.030000381469726,14.421492309570311C14.600000381469727,14.421492309570311,15.660000381469727,13.081492309570312,15.660000381469727,10.521492309570313C15.660000381469727,7.971492309570312,14.600000381469727,6.7014923095703125,13.030000381469726,6.7014923095703125C11.460000381469726,6.7014923095703125,10.390000381469726,7.961492309570312,10.390000381469726,10.521492309570313C10.390000381469726,13.081492309570312,11.460000381469726,14.421492309570311,13.030000381469726,14.421492309570311ZM13.030000381469726,13.041492309570312C12.500000381469727,13.041492309570312,12.070000381469725,12.561492309570312,12.070000381469725,10.521492309570313C12.070000381469725,8.491492309570312,12.500000381469727,8.061492309570312,13.030000381469726,8.061492309570312C13.560000381469727,8.061492309570312,13.980000381469727,8.491492309570312,13.980000381469727,10.521492309570313C13.980000381469727,12.561492309570312,13.560000381469727,13.041492309570312,13.030000381469726,13.041492309570312ZM18.23000038146973,11.431492309570313C19.320000381469725,11.431492309570313,20.120000381469726,10.541492309570312,20.120000381469726,9.051492309570312C20.120000381469726,7.561492309570313,19.320000381469725,6.7014923095703125,18.23000038146973,6.7014923095703125C17.140000381469726,6.7014923095703125,16.350000381469727,7.561492309570313,16.350000381469727,9.051492309570312C16.350000381469727,10.541492309570312,17.140000381469726,11.431492309570313,18.23000038146973,11.431492309570313ZM18.23000038146973,10.451492309570312C17.880000381469728,10.451492309570312,17.580000381469727,10.091492309570313,17.580000381469727,9.051492309570312C17.580000381469727,8.011492309570313,17.880000381469728,7.681492309570313,18.23000038146973,7.681492309570313C18.580000381469727,7.681492309570313,18.880000381469728,8.011492309570313,18.880000381469728,9.051492309570312C18.880000381469728,10.091492309570313,18.580000381469727,10.451492309570312,18.23000038146973,10.451492309570312ZM18.490000381469727,14.421492309570311L19.510000381469727,14.421492309570311L23.52000038146973,6.7014923095703125L22.500000381469725,6.7014923095703125L18.490000381469727,14.421492309570311ZM23.77000038146973,14.421492309570311C24.850000381469727,14.421492309570311,25.650000381469727,13.531492309570313,25.650000381469727,12.041492309570312C25.650000381469727,10.551492309570312,24.850000381469727,9.681492309570313,23.77000038146973,9.681492309570313C22.690000381469726,9.681492309570313,21.890000381469726,10.551492309570312,21.890000381469726,12.041492309570312C21.890000381469726,13.531492309570313,22.690000381469726,14.421492309570311,23.77000038146973,14.421492309570311ZM23.77000038146973,13.431492309570313C23.420000381469727,13.431492309570313,23.120000381469726,13.081492309570312,23.120000381469726,12.041492309570312C23.120000381469726,10.991492309570312,23.420000381469727,10.671492309570313,23.77000038146973,10.671492309570313C24.120000381469726,10.671492309570313,24.420000381469727,10.991492309570312,24.420000381469727,12.041492309570312C24.420000381469727,13.081492309570312,24.120000381469726,13.431492309570313,23.77000038146973,13.431492309570313Z" fill="url(#master_svg0_247_05230)" fill-opacity="1"/></g><g><g><rect x="0.200103759765625" y="17.421493530273438" width="29.59979248046875" height="5.87701416015625" rx="1" fill="#F0F0F0" fill-opacity="1"/></g><g><rect x="0.200103759765625" y="17.421493530273438" width="19.88751220703125" height="5.87701416015625" rx="1" fill="url(#master_svg1_247_06555)" fill-opacity="1"/></g></g></g></svg>