<svg xmlns="http://www.w3.org/2000/svg" xmlns:xlink="http://www.w3.org/1999/xlink" fill="none" version="1.1" width="30" height="30" viewBox="0 0 30 30"><defs><linearGradient x1="0.10837093740701675" y1="0" x2="0.10837093740701675" y2="1" id="master_svg0_247_05230"><stop offset="0%" stop-color="#5790FC" stop-opacity="1"/><stop offset="44.999998807907104%" stop-color="#5862F0" stop-opacity="1"/><stop offset="100%" stop-color="#5862F0" stop-opacity="1"/></linearGradient></defs><g><g><path d="M13.61687265625,26.75425424194336L29.08767265625,26.75425424194336C29.44137265625,26.75425424194336,29.72807265625,26.46755424194336,29.72807265625,26.113854241943358L29.72807265625,3.8861032419433594C29.72807265625,3.532448241943359,29.44137265625,3.2457542419433594,29.08767265625,3.2457542419433594L13.61687265625,3.2457542419433594C13.26317265625,3.2457542419433594,12.97647265625,3.532448241943359,12.97647265625,3.886104241943359L12.97647265625,26.113854241943358C12.97647265625,26.46755424194336,13.26317265625,26.75425424194336,13.61687265625,26.75425424194336ZM10.72967265625,9.770724241943359L0.77197265625,9.770724241943359C0.49583065625,9.770724241943359,0.27197265625,9.54686424194336,0.27197265625,9.270724241943359L0.27197265625,5.575684241943359C0.27197265625,5.299534241943359,0.49583065625,5.075684241943359,0.77197265625,5.075684241943359L10.72967265625,5.075684241943359C11.00577265625,5.075684241943359,11.22967265625,5.299534241943359,11.22967265625,5.575684241943359L11.22967265625,9.270724241943359C11.22967265625,9.54686424194336,11.00577265625,9.770724241943359,10.72967265625,9.770724241943359ZM26.79527265625,6.856044241943359L26.79527265625,7.78070424194336L16.54957265625,7.77950424194336C16.19597265625,7.779454241943359,15.90927265625,7.492774241943359,15.90927265625,7.139154241943359L15.90927265625,6.856044241943359C15.90927265625,6.502384241943359,16.19597265625,6.215694241943359,16.54967265625,6.215694241943359L26.15487265625,6.215694241943359C26.50857265625,6.215694241943359,26.79527265625,6.502384241943359,26.79527265625,6.856044241943359ZM26.79527265625,10.85694424194336L26.79527265625,11.14125424194336C26.79527265625,11.49491424194336,26.50857265625,11.78160424194336,26.15487265625,11.78160424194336L16.54967265625,11.78160424194336C16.19597265625,11.78160424194336,15.90927265625,11.49491424194336,15.90927265625,11.14125424194336L15.90927265625,10.85694424194336C15.90927265625,10.503284241943359,16.19597265625,10.216594241943358,16.54967265625,10.216594241943358L26.15487265625,10.216594241943358C26.50857265625,10.216594241943358,26.79527265625,10.503284241943359,26.79527265625,10.85694424194336ZM10.72967265625,18.598654241943358L0.77197265625,18.598654241943358C0.49583065625,18.598654241943358,0.27197265625,18.37485424194336,0.27197265625,18.098654241943358L0.27197265625,14.403654241943359C0.27197265625,14.12755424194336,0.49583065625,13.903654241943359,0.77197265625,13.903654241943359L10.72967265625,13.903654241943359C11.00577265625,13.903654241943359,11.22967265625,14.12755424194336,11.22967265625,14.403654241943359L11.22967265625,18.098654241943358C11.22967265625,18.37485424194336,11.00577265625,18.598654241943358,10.72967265625,18.598654241943358ZM26.15487265625,15.782554241943359L16.54967265625,15.782554241943359C16.19597265625,15.782554241943359,15.90927265625,15.49585424194336,15.90927265625,15.14215424194336L15.90927265625,14.85785424194336C15.90927265625,14.50415424194336,16.19597265625,14.21745424194336,16.54967265625,14.21745424194336L26.15487265625,14.21745424194336C26.50857265625,14.21745424194336,26.79527265625,14.50415424194336,26.79527265625,14.85785424194336L26.79527265625,15.14215424194336C26.79527265625,15.49585424194336,26.50857265625,15.782554241943359,26.15487265625,15.782554241943359ZM10.58927265625,26.75425424194336L0.91232165625,26.75425424194336C0.55866665625,26.75425424194336,0.27197265625,26.46755424194336,0.27197265625,26.113854241943358L0.27197265625,22.69825424194336C0.27197265625,22.34465424194336,0.55866665625,22.05795424194336,0.91232165625,22.05795424194336L10.58927265625,22.05795424194336C10.94297265625,22.05795424194336,11.22967265625,22.34465424194336,11.22967265625,22.69825424194336L11.22967265625,26.113854241943358C11.22967265625,26.46755424194336,10.94297265625,26.75425424194336,10.58927265625,26.75425424194336ZM26.15487265625,23.78555424194336L16.54967265625,23.78555424194336C16.19597265625,23.78555424194336,15.90927265625,23.49885424194336,15.90927265625,23.14525424194336L15.90927265625,22.86095424194336C15.90927265625,22.50725424194336,16.19597265625,22.220554241943358,16.54967265625,22.220554241943358L26.15487265625,22.220554241943358C26.50857265625,22.220554241943358,26.79527265625,22.50725424194336,26.79527265625,22.86095424194336L26.79527265625,23.14525424194336C26.79527265625,23.49885424194336,26.50857265625,23.78555424194336,26.15487265625,23.78555424194336Z" fill-rule="evenodd" fill="url(#master_svg0_247_05230)" fill-opacity="1"/></g></g></svg>