<svg xmlns="http://www.w3.org/2000/svg" xmlns:xlink="http://www.w3.org/1999/xlink" fill="none" version="1.1" width="30" height="30" viewBox="0 0 30 30"><defs><linearGradient x1="0.10837093740701675" y1="0" x2="0.10837093740701675" y2="1" id="master_svg0_247_05230"><stop offset="0%" stop-color="#5790FC" stop-opacity="1"/><stop offset="44.999998807907104%" stop-color="#5862F0" stop-opacity="1"/><stop offset="100%" stop-color="#5862F0" stop-opacity="1"/></linearGradient></defs><g><g><path d="M14.409789204406739,2.900036297088623L2.7917892044067383,11.406815297088624C2.4457720044067384,11.660165297088623,2.2998258044067383,12.105945297088622,2.4290117044067383,12.514885297088624L6.8768292044067385,26.594355297088622C7.008239204406738,27.010355297088623,7.394139204406739,27.293155297088624,7.830379204406738,27.293155297088624L22.17058920440674,27.293155297088624C22.606989204406737,27.293155297088624,22.992989204406737,27.010155297088623,23.12428920440674,26.594055297088623L27.57118920440674,12.499155297088622C27.700289204406737,12.090015297088623,27.55398920440674,11.644115297088623,27.207689204406737,11.390945297088622L15.590689204406738,2.8995512970886232C15.238989204406739,2.642470297088623,14.761289204406738,2.642666597088623,14.409789204406739,2.900036297088623ZM15.588089204406739,4.426525297088623L25.835389204406738,11.866275297088624C26.18388920440674,12.119275297088622,26.331289204406737,12.566945297088623,26.201189204406738,12.977455297088623L22.280789204406737,25.35385529708862C22.14918920440674,25.769455297088623,21.76348920440674,26.051855297088622,21.32748920440674,26.051855297088622L8.672309204406737,26.051855297088622C8.236479204406738,26.051855297088622,7.850849204406738,25.769555297088623,7.719099204406739,25.354155297088624L3.7989692044067382,12.993055297088622C3.668859204406738,12.582825297088624,3.8158692044067384,12.135325297088624,4.163929204406738,11.882135297088624L14.412389204406738,4.427065297088623C14.762789204406738,4.172165297088623,15.237489204406739,4.171945297088623,15.588089204406739,4.426525297088623ZM7.198669204406738,12.841055297088623L14.397789204406738,7.401405297088623C14.754289204406739,7.132065297088623,15.246089204406738,7.131855297088623,15.602789204406738,7.400895297088623L22.800889204406737,12.830155297088623C23.137489204406737,13.083955297088623,23.27868920440674,13.521555297088623,23.154089204406738,13.924255297088623L20.38648920440674,22.865055297088624C20.25688920440674,23.28375529708862,19.86958920440674,23.569355297088624,19.43118920440674,23.569355297088624L10.569889204406739,23.569355297088624C10.131659204406738,23.569355297088624,9.744489204406738,23.283955297088625,9.61472920440674,22.865355297088623L6.846369204406738,13.934955297088623C6.721609204406739,13.532555297088622,6.862499204406738,13.095055297088622,7.198669204406738,12.841055297088623ZM13.050789204406739,9.944315297088622L10.31432920440674,14.618855297088624C10.069699204406739,15.036655297088624,10.159619204406738,15.569755297088623,10.527769204406738,15.884355297088623L17.556589204406738,21.889255297088624C18.31228920440674,22.534955297088622,19.445089204406738,21.80205529708862,19.16588920440674,20.848055297088624L15.69918920440674,9.002985297088623L21.428889204406737,13.305455297088622C21.766789204406738,13.559155297088623,21.908789204406737,13.997955297088623,21.783489204406738,14.401555297088622L19.541689204406737,21.624455297088623C19.411889204406737,22.04285529708862,19.024789204406737,22.328055297088625,18.58668920440674,22.328055297088625L11.412159204406738,22.328055297088625C10.974179204406738,22.328055297088625,10.587169204406738,22.043055297088625,10.457199204406738,21.624755297088623L8.215679204406738,14.411055297088623C8.090339204406739,14.007655297088624,8.231959204406738,13.569055297088623,8.569509204406739,13.315155297088623L13.050789204406739,9.944315297088622Z" fill-rule="evenodd" fill="url(#master_svg0_247_05230)" fill-opacity="1"/></g></g></svg>