<svg xmlns="http://www.w3.org/2000/svg" xmlns:xlink="http://www.w3.org/1999/xlink" fill="none" version="1.1" width="30" height="30" viewBox="0 0 30 30"><defs><linearGradient x1="0.10837093740701675" y1="0" x2="0.10837093740701675" y2="1" id="master_svg0_247_05230"><stop offset="0%" stop-color="#5790FC" stop-opacity="1"/><stop offset="44.999998807907104%" stop-color="#5862F0" stop-opacity="1"/><stop offset="100%" stop-color="#5862F0" stop-opacity="1"/></linearGradient><linearGradient x1="0.5" y1="0" x2="0.5" y2="1" id="master_svg1_247_05812"><stop offset="0%" stop-color="#C7DBFF" stop-opacity="1"/><stop offset="100%" stop-color="#4A8BFE" stop-opacity="1"/></linearGradient></defs><g><g><g><path d="M0.809630410925293,27.243903515625L29.19038151092529,27.243903515625Q29.21028151092529,27.243903515625,29.22868151092529,27.236303515625Q29.24698151092529,27.228703515625,29.261081510925294,27.214603515625Q29.275181510925293,27.200503515625,29.282781510925293,27.182203515625Q29.290381510925293,27.163803515625,29.290381510925293,27.143903515625L29.290381510925293,26.025003515625Q29.290381510925293,26.005203515625,29.282781510925293,25.986803515625Q29.275181510925293,25.968403515625,29.261081510925294,25.954303515625Q29.24698151092529,25.940303515625,29.22868151092529,25.932703515625Q29.21028151092529,25.925003515625,29.19038151092529,25.925003515625L2.0285315109252933,25.925003515625L2.0285315109252933,2.856103515625Q2.0285315109252933,2.836212615625,2.0209215109252927,2.817835415625Q2.013301510925293,2.799458215625,1.999241510925293,2.785392915625Q1.985171510925293,2.771327615625,1.966801510925293,2.763715585625Q1.948421510925293,2.756103515625,1.928531510925293,2.756103515625L0.809681510925293,2.756103515625Q0.789790610925293,2.756103515625,0.7714134109252929,2.763715585625Q0.7530362109252929,2.771327615625,0.738970910925293,2.785392915625Q0.7249056109252929,2.799458215625,0.7172935809252929,2.817835415625Q0.709681510925293,2.836212615625,0.709681510925293,2.856103515625L0.709681510925293,26.021803515625L0.709630012525293,26.025003515625L0.709630012525293,27.143903515625Q0.709630012525293,27.163803515625,0.717242090925293,27.182203515625Q0.724854210925293,27.200503515625,0.738919410925293,27.214603515625Q0.752984710925293,27.228703515625,0.7713619109252929,27.236303515625Q0.7897391109252929,27.243903515625,0.809630410925293,27.243903515625ZM10.680321510925292,6.136033515625L4.577161510925293,12.239193515625C4.389621510925293,12.426733515625,4.284261510925293,12.681083515625,4.284261510925293,12.946303515625L4.284261510925293,23.367703515625C4.284261510925293,23.920003515625,4.731981510925293,24.367703515625,5.284261510925293,24.367703515625L24.593781510925293,24.367703515625C25.146081510925292,24.367703515625,25.593781510925293,23.920003515625,25.593781510925293,23.367703515625L25.593781510925293,7.843143515625C25.593781510925293,6.952233515625,24.516581510925292,6.506063515625,23.886681510925293,7.136033515625L19.197681510925293,11.824983515625C18.807181510925293,12.215503515625,18.173981510925294,12.215503515625,17.78348151092529,11.824983515625L12.094581510925293,6.136033515625C11.703981510925294,5.745503515625,11.070881510925293,5.745503515625,10.680321510925292,6.136033515625Z" fill-rule="evenodd" fill="url(#master_svg0_247_05230)" fill-opacity="1"/></g><g><path d="M4.577159471862793,18.454465556640624L10.680316471862792,12.351302556640626C11.070846471862794,11.960778556640625,11.704006471862794,11.960778556640625,12.094536471862792,12.351302556640626L17.783466471862795,18.040245556640624C18.17396647186279,18.430775556640626,18.807166471862793,18.430775556640626,19.197666471862792,18.040245556640624L23.886666471862792,13.351305556640625C24.51656647186279,12.721335556640625,25.593766471862793,13.167505556640625,25.593766471862793,14.058405556640626L25.593766471862793,23.367695556640626C25.593766471862793,23.919995556640625,25.14606647186279,24.367695556640626,24.593766471862793,24.367695556640626L5.284266471862793,24.367695556640626C4.731981471862793,24.367695556640626,4.284266471862793,23.919995556640625,4.284266471862793,23.367695556640626L4.284266471862793,19.161565556640625C4.284266471862793,18.896355556640625,4.389623471862793,18.641995556640623,4.577159471862793,18.454465556640624" fill="url(#master_svg1_247_05812)" fill-opacity="1"/></g></g></g></svg>