<svg xmlns="http://www.w3.org/2000/svg" xmlns:xlink="http://www.w3.org/1999/xlink" fill="none" version="1.1" width="30" height="30" viewBox="0 0 30 30"><defs><linearGradient x1="0.10837093740701675" y1="0" x2="0.10837093740701675" y2="1" id="master_svg0_247_05230"><stop offset="0%" stop-color="#5790FC" stop-opacity="1"/><stop offset="44.999998807907104%" stop-color="#5862F0" stop-opacity="1"/><stop offset="100%" stop-color="#5862F0" stop-opacity="1"/></linearGradient></defs><g><g><path d="M15.018282009887695,27.498563413238525C21.594082009887696,27.498563413238525,26.985582009887697,22.427663413238527,27.495582009887695,15.982863413238526C27.539182009887696,15.432363413238525,27.087382009887694,14.981763413238525,26.535082009887695,14.981763413238525L16.018282009887695,14.981763413238525C15.465982009887695,14.981763413238525,15.018282009887695,14.533963413238526,15.018282009887695,13.981763413238525L15.018282009887695,3.4649344132385256C15.018282009887695,2.912649413238525,14.567682009887696,2.4608188132385256,14.017082009887694,2.504390683238525C7.572372009887696,3.014430413238525,2.5014820098876953,8.405893413238525,2.5014820098876953,14.981763413238525C2.5014820098876953,21.894563413238526,8.105442009887696,27.498563413238525,15.018282009887695,27.498563413238525ZM19.773382009887694,11.226683413238526L25.599882009887697,11.226683413238526C26.275082009887694,11.226683413238526,26.752582009887696,10.563483413238526,26.480582009887694,9.945433413238526C25.220482009887697,7.081503413238526,22.918482009887697,4.779503413238525,20.054582009887696,3.5193434132385253C19.436482009887694,3.2473974132385255,18.773382009887694,3.7249034132385255,18.773382009887694,4.400143413238525L18.773382009887694,10.226683413238526C18.773382009887694,10.778963413238525,19.221082009887695,11.226683413238526,19.773382009887694,11.226683413238526Z" fill-rule="evenodd" fill="url(#master_svg0_247_05230)" fill-opacity="1"/></g></g></svg>