<svg xmlns="http://www.w3.org/2000/svg" xmlns:xlink="http://www.w3.org/1999/xlink" fill="none" version="1.1" width="30" height="30" viewBox="0 0 30 30"><defs><linearGradient x1="0.10837093740701675" y1="0" x2="0.10837093740701675" y2="1" id="master_svg0_247_05230"><stop offset="0%" stop-color="#5790FC" stop-opacity="1"/><stop offset="44.999998807907104%" stop-color="#5862F0" stop-opacity="1"/><stop offset="100%" stop-color="#5862F0" stop-opacity="1"/></linearGradient></defs><g><g><path d="M16.12751740875244,6.921991285552979C20.776917408752443,7.5032212855529785,23.14821740875244,10.897271285552979,23.14821740875244,15.012051285552978C23.14821740875244,15.776651285552978,23.065017408752443,16.517551285552976,22.88161740875244,17.21765128555298C22.755817408752442,17.69775128555298,22.93161740875244,18.21895128555298,23.360917408752442,18.468051285552978L25.705217408752443,19.82895128555298C26.216017408752442,20.125451285552977,26.87831740875244,19.90805128555298,27.071317408752442,19.34985128555298C27.54001740875244,17.99435128555298,27.77441740875244,16.52525128555298,27.77441740875244,15.012051285552978C27.77441740875244,8.66836128555298,23.57941740875244,3.3890012855529785,17.20651740875244,2.3577786855529785C16.628917408752443,2.2643260855529785,16.127417408752443,2.7278002855529784,16.127417408752443,3.3128462855529786L16.12751740875244,6.921991285552979L16.12751740875244,6.921991285552979ZM12.981117408752441,22.913551285552977C9.791657408752442,21.981951285552977,6.851867408752441,18.80285128555298,6.851867408752441,15.012151285552978C6.851867408752441,11.221321285552978,9.791627408752442,8.042221285552978,12.981117408752441,7.110611285552978C13.450317408752442,6.973551285552978,13.802817408752441,6.563711285552978,13.802817408752441,6.0748712855529785L13.802817408752441,3.3310192855529785C13.802817408752441,2.7393972855529785,13.305617408752441,2.2716877855529787,12.72591740875244,2.3896333855529783C7.2995874087524415,3.4935812855529784,2.2256174087524414,8.731121285552979,2.2256174087524414,15.012051285552978C2.2256174087524414,21.293051285552977,7.2995874087524415,26.530651285552977,12.72591740875244,27.634551285552977C13.305617408752441,27.75245128555298,13.802817408752441,27.28475128555298,13.802817408752441,26.69315128555298L13.802817408752441,23.94925128555298C13.802817408752441,23.460451285552978,13.450317408752442,23.050651285552977,12.981117408752441,22.913551285552977M20.87101740875244,20.702651285552978C19.84461740875244,21.78445128555298,18.577417408752442,22.561151285552977,16.98661740875244,22.940751285552977C16.50151740875244,23.056451285552978,16.12751740875244,23.47315128555298,16.12751740875244,23.97195128555298L16.12751740875244,26.69315128555298C16.12751740875244,27.28475128555298,16.63051740875244,27.75115128555298,17.21101740875244,27.63695128555298C20.017617408752443,27.08465128555298,22.83841740875244,25.497051285552978,24.74721740875244,23.25405128555298C25.124417408752443,22.81075128555298,24.97571740875244,22.15215128555298,24.47451740875244,21.85615128555298L22.18181740875244,20.50205128555298C21.75031740875244,20.247151285552977,21.216017408752442,20.33895128555298,20.87101740875244,20.702651285552978" fill="url(#master_svg0_247_05230)" fill-opacity="1"/></g></g></svg>