<svg xmlns="http://www.w3.org/2000/svg" xmlns:xlink="http://www.w3.org/1999/xlink" fill="none" version="1.1" width="30" height="30" viewBox="0 0 30 30"><defs><linearGradient x1="0.10837093740701675" y1="0" x2="0.10837093740701675" y2="1" id="master_svg0_247_05230"><stop offset="0%" stop-color="#5790FC" stop-opacity="1"/><stop offset="44.999998807907104%" stop-color="#5862F0" stop-opacity="1"/><stop offset="100%" stop-color="#5862F0" stop-opacity="1"/></linearGradient></defs><g><g><path d="M27.80116590270996,15.98878694152832C27.28826590270996,22.60188694152832,21.763965902709963,27.81718694152832,15.01166590270996,27.81718694152832C7.931745902709961,27.81718694152832,2.196065902709961,22.066286941528322,2.196065902709961,14.981286941528321C2.196065902709961,8.23740694152832,7.396375902709961,2.6997139415283202,14.00586590270996,2.1855891315283205C14.556465902709961,2.14275854152832,15.01166590270996,2.5943389415283202,15.01166590270996,3.14662394152832L15.01166590270996,8.19544694152832C15.01166590270996,8.74998694152832,14.56366590270996,9.18937694152832,14.01626590270996,9.27860694152832C11.20044590270996,9.737666941528321,9.04855590270996,12.18184694152832,9.04922590270996,15.13078694152832C9.04922590270996,18.40508694152832,11.70203590270996,21.05958694152832,14.974865902709961,21.06028694152832L14.974965902709961,21.06028694152832C18.24846590270996,21.05888694152832,20.901165902709963,18.40448694152832,20.90066590270996,15.13108694152832L20.90066590270996,15.13018694152832C20.899965902709962,15.04878694152832,20.96576590270996,14.98248694152832,21.04706590270996,14.98248694152832L26.83996590270996,14.98248694152832C27.392265902709962,14.98248694152832,27.84386590270996,15.43818694152832,27.80116590270996,15.98878694152832ZM27.66596590270996,12.07575694152832C26.83546590270996,6.758486941528321,22.616065902709963,3.2587069415283203,17.13016590270996,2.3353749415283205L17.11836590270996,2.33340894152832C16.998365902709963,2.3133909415283203,16.90516590270996,2.4385439415283203,16.90516590270996,2.5601839415283205L16.90516590270996,8.68299694152832C16.90516590270996,9.11657694152832,17.18856590270996,9.49438694152832,17.586965902709963,9.66554694152832C18.79486590270996,10.18453694152832,19.88416590270996,11.04005694152832,20.54116590270996,12.45648694152832C20.72316590270996,12.84878694152832,21.099565902709962,13.133686941528321,21.53206590270996,13.133686941528321L26.71316590270996,13.133686941528321C27.29246590270996,13.133686941528321,27.75536590270996,12.64808694152832,27.66596590270996,12.07575694152832Z" fill-rule="evenodd" fill="url(#master_svg0_247_05230)" fill-opacity="1"/></g></g></svg>