<svg xmlns="http://www.w3.org/2000/svg" xmlns:xlink="http://www.w3.org/1999/xlink" fill="none" version="1.1" width="24" height="24" viewBox="0 0 24 24"><defs><clipPath id="master_svg0_65_26297"><rect x="0" y="0" width="24" height="24" rx="0"/></clipPath></defs><g clip-path="url(#master_svg0_65_26297)"><g><path d="M12.000034423828126,24.0000234375C11.161180423828124,24.0001234375,10.480689523828126,23.3209234375,10.479035139084125,22.4820234375L10.479035139084125,1.5210734375C10.478454351828125,0.6806384375,11.159598423828125,-0.0009765625,12.000034423828126,-0.0009765625C12.840474423828125,-0.0009765124705,13.521614423828126,0.6806384375,13.521034423828125,1.5210734375L13.521034423828125,22.4820234375C13.519384423828125,23.3209234375,12.838894423828124,24.0000234375,12.000034423828126,24.0000234375Z" fill="#979797" fill-opacity="1"/></g><g><path d="M22.481992919921876,13.520515625L1.521042919921875,13.520515625C0.680607919921875,13.521095625000001,-0.001007080078125,12.839955625,-0.001007080078125,11.999515625C-0.001007180224125,11.159079625,0.680607919921875,10.477935553,1.521042919921875,10.478516340256L22.481992919921876,10.478516340256C23.322492919921874,10.477936268,24.004092919921874,11.159080625,24.004092919921874,11.999515625C24.004092919921874,12.839955625,23.322492919921874,13.521095625000001,22.481992919921876,13.520515625Z" fill="#979797" fill-opacity="1"/></g></g></svg>