<svg xmlns="http://www.w3.org/2000/svg" xmlns:xlink="http://www.w3.org/1999/xlink" fill="none" version="1.1" width="34.2554931640625" height="34" viewBox="0 0 34.2554931640625 34"><defs><mask id="master_svg0_960_26512" style="mask-type:alpha" maskUnits="userSpaceOnUse"><g><path d="M-0.000011444091796875,10.439915180206299L19.1896885559082,10.439915180206299L19.1896885559082,26.3012151802063L-0.000011444091796875,26.3012151802063L-0.000011444091796875,10.439915180206299Z" fill-rule="evenodd" fill="#FFFFFF" fill-opacity="1"/></g></mask><mask id="master_svg1_960_26539" style="mask-type:alpha" maskUnits="userSpaceOnUse"><g><path d="M2.0784926414489746,18.804090976715088L34.255492641448974,18.804090976715088L34.255492641448974,30.24549097671509L2.0784926414489746,30.24549097671509L2.0784926414489746,18.804090976715088Z" fill-rule="evenodd" fill="#FFFFFF" fill-opacity="1"/></g></mask></defs><g><g><g><path d="M21.154087384033204,7.003629451446534C21.154087384033204,7.003629451446534,21.423387384033205,4.243353451446533,18.193527384033203,3.6656425514465334C16.264337384033205,3.3204604514465332,12.447107384033202,4.001092451446533,10.960166384033203,5.796889451446534C10.360766384033203,6.520729451446533,10.716510484033202,7.966479451446533,11.174165384033204,8.671439451446533C11.712937384033204,9.501289451446533,13.494567384033203,9.579439451446532,13.508957384033202,9.783069451446533C13.508957384033202,9.783069451446533,14.634487384033203,7.549339451446533,16.373227384033203,7.065259451446533C18.111827384033205,6.581329451446534,20.289177384033202,6.654609451446533,21.154087384033204,7.003629451446534L21.154087384033204,7.003629451446534Z" fill-rule="evenodd" fill="#6AACEF" fill-opacity="1"/></g><g><path d="M13.17136929168701,9.998730445992486L13.247839291687011,11.080430445992484L13.821939291687013,9.945790445992484C13.832549291687013,9.924860445992485,14.900659291687012,7.8452104459924845,16.466389291687012,7.409350445992485C18.072109291687013,6.9622804459924845,20.19697929168701,7.001500445992485,21.02391929168701,7.335330445992485L21.458119291687012,7.510500445992484L21.50411929168701,7.0388104459924845C21.50711929168701,7.0068104459924845,21.576319291687014,6.244790445992485,21.206019291687014,5.405500445992485C20.864419291687014,4.631240445992485,20.074859291687012,3.639927445992485,18.254559291687013,3.3142090459924844C16.23087929168701,2.9520704459924847,12.278299291687011,3.6499534459924847,10.690607291687012,5.567400445992485C9.976357291687012,6.429840445992484,10.341841891687011,8.038230445992484,10.880182291687012,8.867640445992485C11.306149291687012,9.523940445992483,12.259109291687011,9.764870445992486,12.889769291687012,9.924410445992486C12.983099291687012,9.948010445992484,13.090099291687011,9.975140445992484,13.17136929168701,9.998730445992486ZM14.496709291687012,4.274580445992485C15.370439291687012,4.052227445992485,16.29025929168701,3.9351524459924847,17.088099291687012,3.9351524459924847C17.470299291687013,3.9351524459924847,17.824589291687012,3.9619884459924846,18.13250929168701,4.017134445992484C20.26129929168701,4.398000445992484,20.70571929168701,5.795980445992485,20.790319291687013,6.524680445992485C19.687929291687013,6.279320445992484,17.82938929168701,6.289940445992485,16.280079291687013,6.721230445992484C14.800259291687013,7.133060445992484,13.759049291687012,8.653270445992485,13.366529291687012,9.313850445992484C13.274799291687012,9.286280445992485,13.172009291687012,9.260180445992486,13.060069291687011,9.231870445992485C12.567519291687011,9.107420445992485,11.742929291687012,8.898780445992486,11.468019291687012,8.475300445992485C11.061972291687011,7.849670445992484,10.767142291687012,6.5848404459924845,11.229595291687012,6.026440445992485C11.852259291687012,5.274440445992484,13.012529291687011,4.652200445992484,14.496709291687012,4.274580445992485Z" fill-rule="evenodd" fill="#000000" fill-opacity="1"/></g><g><path d="M14.928530889892578,19.55394874832153C14.928530889892578,19.55394874832153,9.594970889892577,11.134086748321533,6.328580889892578,10.811022848321533C3.707670889892578,10.551657748321533,0.14107688989257813,13.807958748321534,0.3619084198925781,16.843808748321532C0.5988768898925781,20.103798748321534,8.444870889892577,27.569178748321534,16.092230889892576,25.625378748321534C22.88843088989258,23.897978748321535,14.928530889892578,19.55394874832153,14.928530889892578,19.55394874832153L14.928530889892578,19.55394874832153Z" fill-rule="evenodd" fill="#7694FF" fill-opacity="1"/></g><g><path d="M11.397586622314453,18.871852810821533C11.397586622314453,18.871852810821533,12.469036622314453,13.409253810821534,9.202496622314452,13.086042410821534C6.581746622314453,12.826824810821533,3.584451622314453,15.939062810821532,3.8049920223144533,18.975072810821533C4.042106622314453,22.23490281082153,6.834556622314453,26.468492810821534,14.481806622314453,24.524692810821534C21.278006622314454,22.797282810821535,11.397586622314453,18.871852810821533,11.397586622314453,18.871852810821533L11.397586622314453,18.871852810821533Z" fill-rule="evenodd" fill="#4B6EEF" fill-opacity="1"/></g><g mask="url(#master_svg0_960_26512)"><g><path d="M-0.000011444091796875,10.439915180206299L19.1896885559082,10.439915180206299L19.1896885559082,26.3012151802063L-0.000011444091796875,26.3012151802063L-0.000011444091796875,10.439915180206299Z" fill-rule="evenodd" fill="#D8D8D8" fill-opacity="0.009999999776482582"/></g><g><path d="M10.077049504936719,25.80083928012848C11.245549504936719,26.13393928012848,12.394249504936719,26.30073928012848,13.513749504936719,26.30063928012848C14.42274950493672,26.30063928012848,15.312449504936719,26.19073928012848,16.17754950493672,25.970939280128476C18.046149504936718,25.49593928012848,19.055349504936718,24.75233928012848,19.177349504936718,23.76073928012848C19.29074950493672,22.83723928012848,18.62014950493672,21.78713928012848,17.18374950493672,20.63953928012848C16.31684950493672,19.946809280128477,15.441249504936719,19.43441928012848,15.17504950493672,19.283869280128478C14.917149504936718,18.883839280128477,13.67404950493672,16.984229280128478,12.12464950493672,15.076069280128479C9.75194950493672,12.153459280128478,7.813309504936719,10.598739280128479,6.36256950493672,10.45512258012848C4.99861950493672,10.320205280128478,3.3232695049367194,11.057753280128479,1.9886795049367194,12.37978928012848C0.6225485049367193,13.73294928012848,-0.09838919506328068,15.369349280128478,0.010645504936719313,16.86936928012848C0.13639850493671932,18.59836928012848,2.1100695049367193,21.18833928012848,4.8103495049367195,23.16773928012848C6.462879504936719,24.379139280128477,8.28419950493672,25.28963928012848,10.077049504936719,25.80083928012848ZM2.4804695049367194,12.89038928012848C3.5812895049367195,11.799839280128479,4.9141195049367195,11.152535280128479,6.027729504936719,11.152535280128479C6.118009504936719,11.152535280128479,6.2068395049367195,11.15681128012848,6.2940695049367195,11.16536328012848C7.534159504936719,11.28804228012848,9.36113950493672,12.795579280128479,11.57754950493672,15.524889280128479C13.28694950493672,17.629589280128478,14.618949504936719,19.725309280128478,14.63234950493672,19.74609928012848L14.681349504936719,19.82379928012848L14.761449504936719,19.86744928012848C15.778949504936719,20.42274928012848,18.64614950493672,22.313639280128477,18.47894950493672,23.67243928012848C18.37644950493672,24.50653928012848,17.07784950493672,25.00623928012848,16.006449504936718,25.278539280128477C14.19614950493672,25.73863928012848,12.26514950493672,25.68333928012848,10.26724950493672,25.113739280128478C8.553269504936718,24.62503928012848,6.8087095049367194,23.75213928012848,5.222479504936719,22.58923928012848C2.3859695049367193,20.51003928012848,0.8065695049367193,18.11145928012848,0.7123635049367193,16.81684928012848C0.6200475049367193,15.54626928012848,1.2810895049367192,14.07839928012848,2.4804695049367194,12.89038928012848Z" fill-rule="evenodd" fill="#000000" fill-opacity="1"/></g></g><g><path d="M19.821704864501953,29.21363216629028C20.783535864501953,29.320242166290285,21.505924864501953,29.980082166290284,22.950274864501953,30.07916216629028C23.635014864501954,30.126052166290282,23.998464864501955,30.066192166290282,24.603964864501954,29.737822166290282C25.045044864501953,29.498502166290283,25.714374864501952,29.065152166290282,25.911654864501955,28.34529216629028C26.226254864501954,27.197542166290283,24.567474864501953,26.981232166290283,24.567474864501953,26.981232166290283L19.821704864501953,29.21363216629028Z" fill-rule="evenodd" fill="#4B6EEF" fill-opacity="1"/></g><g><path d="M23.302434786376953,30.449349295196534C23.18554478637695,30.449349295196534,23.061244786376953,30.444339295196535,22.926484786376953,30.435199295196533C22.052024786376954,30.375189295196535,21.431394786376952,30.124959295196533,20.883604786376953,29.90407929519653C20.491227786376953,29.745869295196535,20.152202786376954,29.609179295196533,19.783374786376953,29.568339295196534L19.859844486376954,28.858809295196533C20.32360578637695,28.91026929519653,20.721945786376953,29.070839295196535,21.143544786376953,29.240849295196533C21.667784786376952,29.452149295196534,22.209614786376953,29.670669295196532,22.974024786376955,29.723159295196535C23.623434786376954,29.767689295196533,23.911134786376955,29.708859295196532,24.437994786376954,29.423099295196533C25.080574786376953,29.074379295196533,25.451724786376953,28.690709295196534,25.572534786376952,28.249839295196534C25.634174786376953,28.024679295196535,25.576754786376952,27.899489295196535,25.528194786376954,27.824739295196533C25.321904786376955,27.508011295196532,24.71726478637695,27.361445295196532,24.521874786376955,27.334904295196534L24.612444786376955,26.627289295196533C24.721624786376953,26.641444495196534,25.692324786376954,26.785061295196535,26.113924786376952,27.429125295196535C26.304664786376954,27.720929295196534,26.352064786376953,28.070679295196534,26.250584786376955,28.440779295196535C26.075544786376952,29.079689295196534,25.59114478637695,29.606969295196535,24.769894786376952,30.052419295196533C24.242454786376953,30.338619295196533,23.856764786376953,30.449349295196534,23.302434786376953,30.449349295196534L23.302434786376953,30.449349295196534Z" fill-rule="evenodd" fill="#000000" fill-opacity="1"/></g><g><path d="M26.64978381958008,11.038159666290284C26.42878381958008,10.690619666290283,26.164583819580077,10.286899666290283,25.84978381958008,9.867549666290284L26.298383819580078,9.079419666290283C26.882783819580077,8.052869666290283,26.53258381958008,6.728177666290283,25.52058381958008,6.135426666290283C24.50848381958008,5.542823666290284,23.202383819580078,5.897884166290283,22.61808381958008,6.924429666290283L22.513583819580077,7.108009666290283C21.996483819580078,6.891259666290283,21.42908381958008,6.731126666290283,20.80418381958008,6.652535666290284C18.48948381958008,6.361468666290283,16.168913819580077,6.646047666290283,13.85418381958008,8.010999666290283L13.716653819580078,7.791439666290283C13.090063819580077,6.791139666290283,11.770163819580079,6.492699666290283,10.783763819580077,7.128359666290283C9.797503819580077,7.764019666290283,9.503263819580077,9.102569666290282,10.12999381958008,10.103029666290283L10.542573819580078,10.761689666290284C10.473813819580078,10.836439666290282,10.405193819580077,10.912089666290283,10.336433819580078,10.989349666290284C6.750933819580078,15.019319666290283,7.561859819580079,23.691319666290283,10.530943819580077,27.368419666290283C11.118863819580078,28.096519666290284,11.924993819580077,27.890819666290284,12.651743819580078,28.224719666290284C15.749493819580078,29.647619666290282,23.832483819580077,30.923519666290282,27.126583819580077,23.353819666290285C29.590183819580076,17.692719666290284,27.914583819580077,13.027849666290283,26.64978381958008,11.038159666290284L26.64978381958008,11.038159666290284Z" fill-rule="evenodd" fill="#7694FF" fill-opacity="1"/></g><g><path d="M12.506680012817384,28.54998454246521C13.640050012817383,29.07058454246521,15.668250012817383,29.66568454246521,17.945060012817382,29.66568454246521C19.258360012817384,29.66568454246521,20.654960012817384,29.46748454246521,22.009660012817385,28.94258454246521C24.459660012817384,27.99318454246521,26.289560012817383,26.16138454246521,27.44866001281738,23.49798454246521C28.561560012817385,20.94028454246521,28.96086001281738,18.34168454246521,28.635360012817383,15.77378454246521C28.310860012817383,13.21390454246521,27.345560012817383,11.47414454246521,26.94566001281738,10.84482454246521C26.758360012817384,10.55036454246521,26.53556001281738,10.20739454246521,26.270460012817384,9.84215454246521L26.603160012817384,9.25795454246521C27.285960012817384,8.05844454246521,26.879360012817383,6.51906454246521,25.696660012817382,5.82663754246521C25.125660012817384,5.49222026246521,24.458760012817383,5.40404484246521,23.817960012817384,5.57818394246521C23.207460012817382,5.74406554246521,22.693460012817383,6.12861654246521,22.361260012817382,6.6656345424652095C21.87406001281738,6.48692154246521,21.366260012817385,6.36365254246521,20.847660012817382,6.29847954246521C18.311060012817382,5.97954454246521,16.057860012817383,6.38414854246521,13.971520012817383,7.53485454246521C13.617090012817382,7.00565454246521,13.083830012817383,6.6387945424652095,12.461750012817383,6.498124542465209C11.814520012817383,6.35170954246521,11.151450012817383,6.46863754246521,10.595230012817382,6.827234542465209C10.038860012817382,7.18583454246521,9.653020012817382,7.74482454246521,9.508510012817382,8.40127454246521C9.364300012817383,9.057864542465211,9.479580012817383,9.73024454246521,9.833150012817383,10.294534542465211L10.100930012817383,10.72184454246521C10.092210012817382,10.731284542465211,10.083780012817382,10.74086454246521,10.075350012817383,10.75045454246521C8.375570012817382,12.66082454246521,7.482212012817383,15.78648454246521,7.624248212817383,19.32568454246521C7.754799012817383,22.57508454246521,8.764170012817383,25.74348454246521,10.258960012817383,27.59458454246521C10.715740012817383,28.16048454246521,11.282140012817383,28.26398454246521,11.781670012817383,28.35548454246521C12.039570012817382,28.40268454246521,12.282940012817383,28.44718454246521,12.506680012817384,28.54998454246521ZM10.972670012817382,7.4295445424652105C11.258490012817383,7.24552454246521,11.583560012817383,7.15056454246521,11.916040012817383,7.15056454246521C12.046450012817383,7.15056454246521,12.178160012817383,7.1651645424652095,12.308710012817382,7.19480454246521C12.772620012817383,7.29963454246521,13.167180012817383,7.57949454246521,13.419990012817383,7.982924542465209L13.738810012817382,8.49207454246521L14.031170012817384,8.319554542465209C16.061980012817383,7.12210454246521,18.263360012817383,6.69258454246521,20.76106001281738,7.00665454246521C21.319960012817383,7.07698454246521,21.864260012817383,7.22193454246521,22.379460012817383,7.43794454246521L22.664260012817383,7.55723454246521L22.92306001281738,7.10279454246521C23.158560012817382,6.68889454246521,23.541160012817382,6.39222754246521,24.000160012817382,6.26748454246521C24.45926001281738,6.14288854246521,24.936660012817384,6.20570254246521,25.34486001281738,6.44457254246521C26.191460012817384,6.94044454246521,26.482460012817384,8.04234454246521,25.993860012817382,8.90109454246521L25.427860012817384,9.894914542465209L25.569960012817383,10.083944542465211C25.88306001281738,10.50064454246521,26.14206001281738,10.89787454246521,26.35416001281738,11.23155454246521C26.915760012817383,12.114784542465209,29.575760012817383,16.84268454246521,26.804760012817383,23.20968454246521C25.72446001281738,25.69248454246521,24.026760012817384,27.39698454246521,21.758560012817384,28.27578454246521C18.272060012817384,29.62688454246521,14.485040012817382,28.67508454246521,12.797190012817383,27.89978454246521C12.493780012817382,27.76028454246521,12.195310012817384,27.70578454246521,11.906590012817382,27.65298454246521C11.453590012817383,27.57008454246521,11.095810012817383,27.50478454246521,10.803450012817382,27.14238454246521C9.400680012817382,25.40518454246521,8.452081012817382,22.39888454246521,8.327345012817382,19.29678454246521C8.192869012817383,15.94228454246521,9.020370012817382,13.00154454246521,10.597880012817383,11.22845454246521C10.665190012817384,11.15266454246521,10.732800012817382,11.07835454246521,10.800250012817383,11.00492454246521L10.985610012817382,10.80306454246521L10.427210012817383,9.91172454246521C10.174390012817383,9.50829454246521,10.092110012817383,9.02702454246521,10.195470012817383,8.55665454246521C10.298980012817383,8.08613454246521,10.574910012817384,7.685954542465209,10.972670012817382,7.4295445424652105Z" fill-rule="evenodd" fill="#000000" fill-opacity="1"/></g><g><path d="M26.02235520629883,23.297653474884033C22.57895520629883,28.537323474884033,13.820385206298827,26.644223474884033,12.022625206298828,25.15833347488403C10.114375206298828,23.581343474884033,9.289775206298827,23.008503474884034,8.028464806298828,16.955364474884032C7.685223206298828,20.769913474884035,8.695321206298829,24.95234347488403,10.530885206298828,27.225923474884034C11.118795206298827,27.954023474884032,11.924925206298829,27.74832347488403,12.65168520629883,28.082123474884035C15.749575206298829,29.505023474884034,23.832555206298828,30.780723474884034,27.126655206298828,23.211103474884034C28.207855206298827,20.726553474884035,28.491655206298827,18.433703474884034,28.362955206298828,16.474823474884033C28.07585520629883,18.601063474884032,27.43085520629883,21.154603474884034,26.02235520629883,23.297653474884033L26.02235520629883,23.297653474884033Z" fill-rule="evenodd" fill="#4B6EEF" fill-opacity="1"/></g><g><path d="M12.506680012817384,28.54998454246521C13.640050012817383,29.07058454246521,15.668250012817383,29.66568454246521,17.945060012817382,29.66568454246521C19.258360012817384,29.66568454246521,20.654960012817384,29.46748454246521,22.009660012817385,28.94258454246521C24.459660012817384,27.99318454246521,26.289560012817383,26.16138454246521,27.44866001281738,23.49798454246521C28.561560012817385,20.94028454246521,28.96086001281738,18.34168454246521,28.635360012817383,15.77378454246521C28.310860012817383,13.21390454246521,27.345560012817383,11.47414454246521,26.94566001281738,10.84482454246521C26.758360012817384,10.55036454246521,26.53556001281738,10.20739454246521,26.270460012817384,9.84215454246521L26.603160012817384,9.25795454246521C27.285960012817384,8.05844454246521,26.879360012817383,6.51906454246521,25.696660012817382,5.82663754246521C25.125660012817384,5.49222026246521,24.458760012817383,5.40404484246521,23.817960012817384,5.57818394246521C23.207460012817382,5.74406554246521,22.693460012817383,6.12861654246521,22.361260012817382,6.6656345424652095C21.87406001281738,6.48692154246521,21.366260012817385,6.36365254246521,20.847660012817382,6.29847954246521C18.311060012817382,5.97954454246521,16.057860012817383,6.38414854246521,13.971520012817383,7.53485454246521C13.617090012817382,7.00565454246521,13.083830012817383,6.6387945424652095,12.461750012817383,6.498124542465209C11.814520012817383,6.35170954246521,11.151450012817383,6.46863754246521,10.595230012817382,6.827234542465209C10.038860012817382,7.18583454246521,9.653020012817382,7.74482454246521,9.508510012817382,8.40127454246521C9.364300012817383,9.057864542465211,9.479580012817383,9.73024454246521,9.833150012817383,10.294534542465211L10.100930012817383,10.72184454246521C10.092210012817382,10.731284542465211,10.083780012817382,10.74086454246521,10.075350012817383,10.75045454246521C8.375570012817382,12.66082454246521,7.482212012817383,15.78648454246521,7.624248212817383,19.32568454246521C7.754799012817383,22.57508454246521,8.764170012817383,25.74348454246521,10.258960012817383,27.59458454246521C10.715740012817383,28.16048454246521,11.282140012817383,28.26398454246521,11.781670012817383,28.35548454246521C12.039570012817382,28.40268454246521,12.282940012817383,28.44718454246521,12.506680012817384,28.54998454246521ZM10.972670012817382,7.4295445424652105C11.258490012817383,7.24552454246521,11.583560012817383,7.15056454246521,11.916040012817383,7.15056454246521C12.046450012817383,7.15056454246521,12.178160012817383,7.1651645424652095,12.308710012817382,7.19480454246521C12.772620012817383,7.29963454246521,13.167180012817383,7.57949454246521,13.419990012817383,7.982924542465209L13.738810012817382,8.49207454246521L14.031170012817384,8.319554542465209C16.061980012817383,7.12210454246521,18.263360012817383,6.69258454246521,20.76106001281738,7.00665454246521C21.319960012817383,7.07698454246521,21.864260012817383,7.22193454246521,22.379460012817383,7.43794454246521L22.664260012817383,7.55723454246521L22.92306001281738,7.10279454246521C23.158560012817382,6.68889454246521,23.541160012817382,6.39222754246521,24.000160012817382,6.26748454246521C24.45926001281738,6.14288854246521,24.936660012817384,6.20570254246521,25.34486001281738,6.44457254246521C26.191460012817384,6.94044454246521,26.482460012817384,8.04234454246521,25.993860012817382,8.90109454246521L25.427860012817384,9.894914542465209L25.569960012817383,10.083944542465211C25.88306001281738,10.50064454246521,26.14206001281738,10.89787454246521,26.35416001281738,11.23155454246521C26.915760012817383,12.114784542465209,29.575760012817383,16.84268454246521,26.804760012817383,23.20968454246521C25.72446001281738,25.69248454246521,24.026760012817384,27.39698454246521,21.758560012817384,28.27578454246521C18.272060012817384,29.62688454246521,14.485040012817382,28.67508454246521,12.797190012817383,27.89978454246521C12.493780012817382,27.76028454246521,12.195310012817384,27.70578454246521,11.906590012817382,27.65298454246521C11.453590012817383,27.57008454246521,11.095810012817383,27.50478454246521,10.803450012817382,27.14238454246521C9.400680012817382,25.40518454246521,8.452081012817382,22.39888454246521,8.327345012817382,19.29678454246521C8.192869012817383,15.94228454246521,9.020370012817382,13.00154454246521,10.597880012817383,11.22845454246521C10.665190012817384,11.15266454246521,10.732800012817382,11.07835454246521,10.800250012817383,11.00492454246521L10.985610012817382,10.80306454246521L10.427210012817383,9.91172454246521C10.174390012817383,9.50829454246521,10.092110012817383,9.02702454246521,10.195470012817383,8.55665454246521C10.298980012817383,8.08613454246521,10.574910012817384,7.685954542465209,10.972670012817382,7.4295445424652105Z" fill-rule="evenodd" fill="#000000" fill-opacity="1"/></g><g><path d="M8.079303741455078,24.682770252227783C8.079303741455078,24.682770252227783,10.141953741455078,25.908380252227783,9.986393741455078,27.210810252227784C9.830693741455079,28.51324025222778,10.185853741455078,29.44380025222778,10.600473741455078,29.798560252227784C11.426083741455077,30.505440252227782,14.170123741455079,30.628270252227782,14.79220374145508,30.079310252227785C15.667683741455079,29.306520252227784,15.045163741455077,27.66761025222778,15.045163741455077,27.66761025222778L8.079303741455078,24.682770252227783Z" fill-rule="evenodd" fill="#4B6EEF" fill-opacity="1"/></g><g><path d="M13.170797100830079,30.777795623321534C12.993717100830079,30.777795623321534,12.846747100830079,30.771455623321533,12.752387100830077,30.766005623321533C12.357977100830078,30.743005623321533,11.020627100830078,30.625185623321535,10.373547100830077,30.071215623321535C9.776327100830079,29.560155623321535,9.487307100830078,28.420365623321533,9.637057100830077,27.167625623321534C9.699277100830079,26.646675623321535,9.248747100830078,26.09683562332153,8.859857100830078,25.72747562332153C8.397837100830078,25.288365623321532,7.906018100830078,24.993464623321533,7.901220100830078,24.990367623321532C7.733743130830078,24.890691623321533,7.677626600830078,24.672022623321535,7.775903200830078,24.502159623321532C7.8740341008300785,24.332148773321535,8.089632100830078,24.275232923321532,8.256964100830078,24.374761923321532C8.279353100830079,24.388179923321534,8.812317100830079,24.706672623321534,9.331027100830077,25.197240623321534C10.076537100830079,25.901905623321532,10.414397100830078,26.593895623321533,10.335597100830078,27.253585623321534C10.176847100830077,28.581965623321533,10.587837100830079,29.32084562332153,10.827417100830079,29.525795623321535C11.142027100830077,29.795185623321533,11.913697100830078,30.002355623321534,12.792657100830077,30.053525623321534C13.702007100830079,30.106455623321533,14.382677100830078,29.967415623321532,14.561207100830078,29.809935623321532C15.227767100830079,29.221605623321533,14.721847100830079,27.809175623321533,14.716617100830078,27.795175623321533C14.64741710083008,27.611155623321533,14.738127100830077,27.404865623321534,14.919277100830078,27.334385623321534C15.100707100830078,27.264055623321532,15.303657100830078,27.35547562332153,15.37329710083008,27.539195623321532C15.402517100830078,27.615575623321533,16.072567100830078,29.422285623321535,15.02307710083008,30.348275623321534C14.609767100830078,30.713065623321533,13.737487100830078,30.777795623321534,13.170797100830079,30.777795623321534L13.170797100830079,30.777795623321534Z" fill-rule="evenodd" fill="#000000" fill-opacity="1"/></g><g><path d="M16.834857940673828,19.253892810821533L17.20455794067383,21.116192810821534C17.288877940673828,21.531702810821535,17.717311940673827,21.679302810821532,18.028277940673828,21.704962810821534L22.524437940673828,21.334562810821534C22.75776794067383,21.309942810821532,23.177767940673828,21.142442810821535,23.32038794067383,20.948392810821534C23.908297940673826,20.148772810821534,24.330917940673828,18.871852810821533,24.330917940673828,18.871852810821533L22.68391794067383,17.614542810821533L21.34889794067383,15.633392810821533L19.59648794067383,18.058512810821533L16.834857940673828,19.253892810821533Z" fill-rule="evenodd" fill="#FFFFFF" fill-opacity="1"/></g><g><path d="M18.028422130126952,21.943592537384035L18.009522130126953,21.942112537384034C17.578468130126954,21.906582537384033,17.08039813012695,21.683492537384033,16.975143130126952,21.164162537384033L16.605152130126953,19.30083553738403L17.064988130126952,19.206909537384032L17.434688130126954,21.069352537384034C17.499382130126953,21.387702537384033,17.90906213012695,21.453612537384032,18.029722130126952,21.466142537384034L22.505672130126953,21.097522537384034C22.693942130126953,21.077612537384034,23.041982130126954,20.929572537384033,23.132692130126955,20.806152537384033C23.690812130126954,20.047232537384033,24.104852130126954,18.808645837384034,24.108922130126953,18.796112537384033L24.553632130126953,18.947691537384035C24.535902130126953,19.001216537384032,24.112262130126954,20.270032537384033,23.508652130126954,21.090732537384035C23.313982130126952,21.355412537384034,22.817662130126955,21.54297253738403,22.548992130126955,21.571282537384032L18.028422130126952,21.943592537384035Z" fill-rule="evenodd" fill="#000000" fill-opacity="1"/></g><g><path d="M16.7411942199707,19.526134314727784C15.884614219970704,19.526134314727784,14.995764219970702,19.319854314727785,14.224674219970703,18.90551431472778C12.778434219970704,18.128454314727783,11.982044219970703,16.797564314727783,11.982044219970703,15.157764314727784C11.982044219970703,14.960623314727783,12.139490219970703,14.800934314727783,12.333863219970704,14.800934314727783C12.528235219970703,14.800934314727783,12.685681219970704,14.960623314727783,12.685681219970704,15.157764314727784C12.685681219970704,16.996474314727784,13.856274219970704,17.899904314727785,14.554104219970704,18.274864314727782C15.914274219970704,19.005634314727782,17.679474219970704,19.000034314727785,18.751934219970703,18.261454314727782C20.755704219970703,16.881464314727783,20.752214219970703,15.556028314727783,20.751054219970705,15.500292314727783C20.742474219970703,15.303445314727783,20.893084219970703,15.138891314727783,21.087164219970703,15.130191314727783C21.281834219970705,15.121934314727783,21.445524219970704,15.276167314727783,21.454254219970704,15.473161314727783C21.457164219970704,15.544085314727782,21.502374219970704,17.23003431472778,19.147224219970703,18.851994314727783C18.495344219970704,19.300684314727782,17.6360042199707,19.526134314727784,16.7411942199707,19.526134314727784L16.7411942199707,19.526134314727784Z" fill-rule="evenodd" fill="#000000" fill-opacity="1"/></g><g><path d="M26.572330079345704,10.917694568634033C26.572330079345704,10.917694568634033,28.862350079345703,13.423174568634034,28.509220079345702,16.028184568634032C28.185460079345702,18.41643456863403,24.953530079345704,19.144254568634032,23.412940079345702,18.197034568634034C21.992439079345704,17.323824568634034,21.169300079345703,15.633454568634033,21.169300079345703,15.633454568634033L26.572330079345704,10.917694568634033Z" fill-rule="evenodd" fill="#7694FF" fill-opacity="1"/></g><g><path d="M25.025168262939452,18.956290974884034C24.357878262939455,18.956290974884034,23.722418262939453,18.804860974884033,23.230168262939454,18.502140974884032C21.73930026293945,17.585590974884035,20.889119862939452,15.864250974884033,20.853647262939454,15.791410974884034C20.767582462939455,15.614770974884033,20.839109262939452,15.400670974884033,21.013274262939454,15.313380974884033C21.187729262939452,15.226090974884034,21.398530262939452,15.298780974884032,21.484594262939453,15.475430974884034C21.492154262939454,15.491060974884032,22.282728262939454,17.085000974884032,23.594928262939455,17.891850974884033C24.370378262939454,18.368550974884034,25.670948262939454,18.358230974884034,26.687588262939453,17.867070974884033C27.173878262939454,17.632040974884035,28.011998262939453,17.074380974884033,28.160278262939453,15.979560974884034C28.486948262939453,13.569780974884033,26.335908262939455,11.184028974884033,26.31395826293945,11.160289974884034C26.181958262939453,11.015640974884032,26.190528262939452,10.789893974884032,26.332858262939453,10.656008874884034C26.475328262939453,10.521976374884034,26.697908262939453,10.530381074884033,26.830198262939454,10.675029974884033C26.854628262939453,10.701865974884033,27.437158262939455,11.343570974884033,27.979578262939455,12.321020974884034C28.70894826293945,13.635100974884033,29.012498262939452,14.933690974884033,28.857518262939454,16.076730974884033C28.714178262939452,17.134100974884035,28.050958262939453,17.998750974884032,26.990268262939452,18.511290974884034C26.376178262939455,18.808100974884034,25.685188262939455,18.956290974884034,25.025168262939452,18.956290974884034L25.025168262939452,18.956290974884034Z" fill-rule="evenodd" fill="#000000" fill-opacity="1"/></g><g><path d="M20.5747211574707,16.084625291290283L19.925892157470702,15.356505291290283C19.737043657470704,15.144624291290283,19.766846557470704,14.815367291290283,19.989277157470703,14.640048291290283C20.255903157470705,14.429636291290283,20.782904157470703,14.212883991290283,21.388120157470702,14.234706691290283C21.873400157470705,14.252253291290284,22.097720157470704,14.374342291290283,22.3155001574707,14.507490291290283C22.571360157470703,14.663935291290283,22.654520157470703,15.001154291290284,22.505220157470703,15.263915291290283L22.1055701574707,15.967395291290284C21.958730157470704,16.226325291290284,21.686440157470702,16.385865291290283,21.391900157470705,16.385865291290283L21.243760157470703,16.385865291290283C20.988760157470704,16.385865291290283,20.7456871574707,16.276455291290283,20.5747211574707,16.084625291290283L20.5747211574707,16.084625291290283Z" fill-rule="evenodd" fill="#000000" fill-opacity="1"/></g><g><path d="M15.452250659423829,13.862905486602783C15.427536659423827,13.862905486602783,15.402531659423827,13.860245486602784,15.377380659423828,13.854795486602782C15.187660159423828,13.813065486602783,15.066995059423828,13.623145486602784,15.107992099423829,13.430575486602784C15.120785459423828,13.370855486602784,15.435096659423827,11.966394486602784,16.76851465942383,11.776625286602783C18.29151465942383,11.559725486602783,18.85951465942383,12.774125486602783,18.99704465942383,13.151455486602783C19.064354659423827,13.336355486602784,18.971164659423827,13.541605486602784,18.789004659423828,13.610025486602783C18.606404659423827,13.678445486602783,18.40432465942383,13.583775486602782,18.33701465942383,13.399025486602783C18.191344659423827,12.999575486602783,17.80681465942383,12.349175486602784,16.866354659423827,12.483355486602782C16.01356165942383,12.604707486602782,15.797818659423829,13.571685486602783,15.795637659423829,13.581415486602783C15.760164659423829,13.748625486602783,15.614203659423827,13.862905486602783,15.452250659423829,13.862905486602783L15.452250659423829,13.862905486602783Z" fill-rule="evenodd" fill="#000000" fill-opacity="1"/></g><g><path d="M22.432716550048827,13.442074568634034C22.40756555004883,13.442074568634034,22.381978550048828,13.439274568634033,22.356537550048827,13.433524568634033C22.16754405004883,13.391054568634033,22.04775125004883,13.202614568634033,22.08874833004883,13.010784568634033C22.099942550048826,12.957404568634033,22.380670550048826,11.704075568634034,23.572927550048828,11.534360268634034C24.933677550048827,11.341052568634034,25.439887550048827,12.424666568634033,25.562597550048828,12.761444568634033C25.629907550048827,12.946344568634034,25.537007550048827,13.151594568634033,25.35469755004883,13.219864568634033C25.172397550048828,13.288284568634033,24.97002755004883,13.193764568634034,24.90256755004883,13.008864568634033C24.780447550048827,12.674154568634034,24.458437550048828,12.128733568634033,23.67076755004883,12.241090568634034C22.96844055004883,12.341061568634034,22.783517550048828,13.129924568634033,22.77595755004883,13.163394568634033C22.738740550048828,13.328984568634032,22.59350655004883,13.442074568634034,22.432716550048827,13.442074568634034L22.432716550048827,13.442074568634034Z" fill-rule="evenodd" fill="#000000" fill-opacity="1"/></g><g><path d="M20.685304352783202,21.628441658477783L20.256580352783203,21.435131658477783C20.265739272783204,21.41434165847778,21.1678193527832,19.310811658477782,21.009356352783204,16.398957858477782L21.4776203527832,16.372711658477783C21.642770352783202,19.40532165847778,20.724557352783204,21.539081658477784,20.685304352783202,21.628441658477783L20.685304352783202,21.628441658477783Z" fill-rule="evenodd" fill="#000000" fill-opacity="1"/></g><g><path d="M2.260998855048828,26.48295079910278C2.232649875048828,26.381650799102783,2.300687475048828,26.27873079910278,2.403906675048828,26.26709079910278L5.616655675048828,25.903770799102784C6.492705675048828,25.788460799102783,7.362955675048828,25.629810799102785,8.224035675048828,25.42898079910278L26.79703567504883,21.093050799102784C28.210535675048828,20.720290799102784,30.139135675048827,19.929369799102783,31.48603567504883,19.356524799102782L32.28933567504883,19.034934999102784C32.48413567504883,18.956933699102784,32.70233567504883,18.966075599102783,32.890135675048825,19.059706699102783L33.19353567504883,19.211285799102782C33.700535675048826,19.57725779910278,34.01453567504883,20.158210799102783,34.04633567504882,20.788420799102784L34.078935675048825,21.434840799102783C34.09103567504883,21.674150799102783,33.93483567504883,21.888840799102784,33.70583567504883,21.947670799102784L30.57153567504883,22.754080799102784L6.314615675048828,28.832280799102783C5.504275675048828,29.035330799102784,5.192865675048829,29.145430799102783,4.433695675048828,29.497830799102783L3.475495675048828,30.045030799102783C3.380715675048828,30.099030799102785,3.2613556750488284,30.049230799102784,3.231552675048828,29.943130799102782L2.742205675048828,28.198100799102782L2.260998855048828,26.48295079910278Z" fill-rule="evenodd" fill="#684227" fill-opacity="1"/></g><g mask="url(#master_svg1_960_26539)"><g><path d="M2.0784926414489746,18.804090976715088L34.255492641448974,18.804090976715088L34.255492641448974,30.24549097671509L2.0784926414489746,30.24549097671509L2.0784926414489746,18.804090976715088Z" fill-rule="evenodd" fill="#D8D8D8" fill-opacity="0.009999999776482582"/></g><g><path d="M3.2620626265478134,30.218479731082915C3.3045126265478135,30.236179731082917,3.3489926265478136,30.244879731082918,3.3930426265478135,30.244879731082918C3.451342626547813,30.244879731082918,3.5092026265478133,30.229879731082917,3.5616826265478134,30.199779731082916L4.513482626547813,29.656479731082918C5.261172626547813,29.309479731082916,5.555562626547813,29.205579731082917,6.356752626547814,29.004879731082916L30.614792626547814,22.926499731082917L33.74899262654782,22.120099731082917C34.05829262654781,22.040479731082918,34.270992626547816,21.748229731082915,34.254692626547815,21.425019731082916L34.22199262654782,20.778739731082915C34.18719262654781,20.089849731082918,33.849492626547814,19.465399731082915,33.29549262654781,19.065218731082915L32.96759262654781,18.899042131082915C32.73569262654782,18.783293431082917,32.46499262654781,18.772234631082917,32.22459262654782,18.868372431082918L31.417992626547814,19.191436731082916C30.09449262654781,19.754254731082916,28.170992626547815,20.545769731082917,26.757292626547812,20.918669731082915L8.184322626547814,25.254309731082916C7.332542626547814,25.453369731082915,6.460992626547814,25.612019731082917,5.5971426265478135,25.725849731082917L2.384255626547813,26.089169731082915C2.2836536265478133,26.100519731082915,2.1933726265478133,26.156109731082918,2.1369652265478134,26.241339731082917C2.0804125865478134,26.326709731082914,2.0639847265478135,26.432289731082918,2.0916068265478134,26.531229731082917L3.062160626547813,29.99147973108292C3.0912326265478134,30.094779731082916,3.1640726265478136,30.177679731082918,3.2620626265478134,30.218479731082915ZM3.3978826265478137,29.883879731082914L2.4325576265478133,26.442839731082916L5.639192626547814,26.080259731082915C6.517582626547814,25.964509731082916,7.400322626547814,25.803639731082917,8.263152626547814,25.602219731082915L26.841092626547812,21.265259731082917C28.281192626547814,20.885579731082917,30.220592626547813,20.087569731082915,31.550492626547815,19.521953731082917L32.35359262654781,19.200363731082916C32.501892626547814,19.140940731082917,32.66899262654781,19.147871731082915,32.812292626547816,19.219384731082915L33.102692626547814,19.364328731082917C33.56179262654781,19.700957731082916,33.841392626547815,20.222339731082915,33.870492626547815,20.796959731082914L33.90319262654781,21.443379731082917C33.91089262654781,21.597169731082914,33.80959262654781,21.736359731082917,33.66239262654781,21.774259731082918L30.529192626547815,22.580369731082918L6.2721826265478136,28.65842973108292C5.4510726265478135,28.864079731082917,5.129492626547814,28.978079731082914,4.360432626547814,29.335079731082914L3.3978826265478137,29.883879731082914Z" fill-rule="evenodd" fill="#000000" fill-opacity="1"/></g></g><g><path d="M34.04615374145508,20.788432642852783C34.03195374145508,20.505180642852782,33.96015374145507,20.232102642852784,33.83985374145507,19.983795642852783C33.13715374145508,20.156312642852782,32.33335374145508,20.399016642852782,31.816653741455077,20.698488642852784C30.727153741455076,21.329875642852784,28.09475374145508,22.153825642852784,26.531553741455077,22.570665642852784C24.967953741455077,22.987655642852783,23.21685374145508,23.342865642852782,21.854953741455077,23.737445642852784C20.49285374145508,24.132165642852783,16.87395374145508,24.404505642852783,15.862253741455078,24.682745642852783C14.850453741455079,24.960985642852783,13.021253741455078,25.992695642852784,11.484293741455078,26.266215642852785C9.947343741455079,26.539735642852783,8.312983741455078,26.554335642852784,7.379073741455078,26.981205642852785C6.445293741455078,27.40792564285278,4.943963741455078,27.018065642852783,4.301383741455078,27.813565642852783C3.658806741455078,28.608915642852786,3.124536741455078,29.026195642852784,3.124536741455078,29.026195642852784L2.985553741455078,29.066305642852782L3.231390741455078,29.943195642852785C3.2611937414550782,30.049195642852784,3.380549741455078,30.09909564285278,3.4753377414550783,30.045095642852782L4.433683741455078,29.497895642852782C5.1927037414550785,29.145485642852783,5.504113741455078,29.035335642852782,6.314453741455078,28.83230564285278L30.571453741455077,22.754245642852784L33.70575374145508,21.947685642852782C33.93465374145508,21.888855642852782,34.09095374145508,21.674165642852785,34.07885374145508,21.43485564285278L34.04615374145508,20.788432642852783Z" fill-rule="evenodd" fill="#000000" fill-opacity="1"/></g><g><path d="M8.079303741455078,17.738373279571533C8.079303741455078,17.738373279571533,8.780033741455078,22.527123279571533,12.022873741455077,25.158373279571535C13.217163741455078,26.12742327957153,14.968113741455078,26.409203279571535,15.798523741455078,26.444583279571532C17.107663741455077,26.500183279571534,17.954653741455076,25.702173279571532,17.954653741455076,25.702173279571532C18.755003741455077,24.947813279571534,18.16860374145508,23.22368327957153,17.16596374145508,23.046743279571533C16.31418374145508,22.89663327957153,15.495693741455078,23.020643279571534,14.597683741455079,22.219103279571534C13.624803741455079,21.350913279571532,13.482043741455078,20.84427327957153,13.482043741455078,20.84427327957153L8.079303741455078,17.738373279571533Z" fill-rule="evenodd" fill="#7694FF" fill-opacity="1"/></g><g><path d="M15.929871925048829,26.804171756134032C15.881751925048828,26.804171756134032,15.833041925048828,26.803141756134032,15.783621925048829,26.801071756134036C14.664341925048827,26.753451756134034,12.950021925048828,26.36772175613403,11.802981925048828,25.437011756134034C8.490359925048828,22.749131756134034,7.760699525048828,17.991937756134032,7.7310421350488285,17.790815756134034C7.702547725048828,17.59573775613403,7.835278925048828,17.414374156134034,8.027616925048829,17.385473816134034C8.219807925048828,17.356573556134034,8.398624925048829,17.49090075613403,8.427264925048828,17.685830756134035C8.433952925048828,17.73227775613403,9.149221925048828,22.369741756134033,12.242601925048827,24.879641756134035C13.578061925048829,25.96326175613403,15.588221925048828,26.078421756134034,15.813131925048829,26.088001756134034C16.951011925048828,26.136661756134032,17.70873192504883,25.446591756134033,17.71629192504883,25.439661756134033C18.02129192504883,25.151991756134034,18.016891925048828,24.661421756134033,17.910991925048826,24.298691756134033C17.77109192504883,23.82051175613403,17.44734192504883,23.458661756134035,17.10555192504883,23.398361756134033C16.92354192504883,23.366361756134033,16.742831925048826,23.347491756134033,16.55136192504883,23.327581756134034C15.891201925048827,23.259021756134032,15.143071925048828,23.181311756134033,14.365001925048828,22.486961756134033C13.344291925048829,21.575871756134035,13.161261925048828,21.004501756134033,13.143811925048828,20.94242175613403L13.820411925048827,20.746311756134034L13.817791925048828,20.737611756134033C13.819251925048828,20.742041756134032,13.976551925048827,21.189551756134033,14.830071925048827,21.951131756134032C15.43878192504883,22.494631756134034,15.987581925048827,22.55155175613403,16.623181925048826,22.617611756134032C16.818141925048828,22.637951756134033,17.01978192504883,22.658891756134032,17.226071925048828,22.695161756134034C17.834591925048827,22.802511756134034,18.367991925048827,23.352201756134033,18.585691925048827,24.095651756134032C18.797591925048827,24.820371756134033,18.647491925048826,25.536091756134034,18.194191925048827,25.963411756134033C18.15639192504883,25.999091756134035,17.28553192504883,26.804171756134032,15.929871925048829,26.804171756134032L15.929871925048829,26.804171756134032Z" fill-rule="evenodd" fill="#000000" fill-opacity="1"/></g><g><path d="M29.116074552001955,23.297666013946532C29.116074552001955,23.297666013946532,29.193844552001952,22.251801013946533,28.532374552001954,21.797948413946532C27.870894552001953,21.343948013946534,26.139133552001955,22.666137013946532,26.022538752001953,23.297666013946532C25.905653552001954,23.929196013946534,26.800755552001952,24.205516013946532,27.345494552001952,24.166006013946532C27.890234552001953,24.126486013946533,28.72689455200195,23.909436013946532,29.116074552001955,23.297666013946532L29.116074552001955,23.297666013946532Z" fill-rule="evenodd" fill="#4B6EEF" fill-opacity="1"/></g><g><path d="M25.893304994384767,24.011002471466064C26.211830994384766,24.373282471466066,26.785787994384766,24.526632471466066,27.237047994384767,24.526632471466066C27.283137994384767,24.526632471466066,27.327617994384767,24.525012471466063,27.370647994384765,24.521922471466063C27.711277994384766,24.497292471466064,28.865447994384766,24.349992471466063,29.411777994384764,23.491092471466064C29.443617994384766,23.441102471466063,29.462517994384765,23.383892471466066,29.467027994384765,23.324622471466064C29.470657994384766,23.273302471466064,29.550617994384766,22.065687471466063,28.729517994384764,21.502279471466064C28.517117994384765,21.356450481466066,28.127497994384765,21.240554471466066,27.478817994384766,21.514959471466064C27.101847994384766,21.674648471466064,26.687807994384766,21.946842471466063,26.342963994384764,22.261943471466065C26.075610994384764,22.505972471466066,25.743127594384767,22.872532471466066,25.676689094384766,23.231872471466065C25.623480194384765,23.519992471466065,25.698350594384767,23.789382471466066,25.893304994384767,24.011002471466064ZM27.750007994384767,22.173609471466065C27.943947994384764,22.091479471466066,28.091947994384764,22.061989471466063,28.193997994384766,22.061989471466063C28.260727994384766,22.061989471466063,28.307687994384764,22.074522471466064,28.335307994384767,22.093396471466065C28.721877994384766,22.358662471466065,28.765197994384767,22.952152471466064,28.766937994384765,23.180252471466066C28.451037994384766,23.588542471466063,27.822847994384766,23.773592471466063,27.320417994384766,23.810012471466063C27.020787994384765,23.831542471466065,26.586393994384764,23.726852471466064,26.418480994384765,23.535902471466066C26.369632994384766,23.480462471466065,26.355676994384766,23.432102471466063,26.368469994384764,23.363382471466064C26.408885994384764,23.144422471466065,27.034597994384765,22.476472471466064,27.750007994384767,22.173609471466065Z" fill-rule="evenodd" fill="#000000" fill-opacity="1"/></g><g><path d="M1.518871588330078,26.775697275665284C1.553035788330078,26.598315275665282,1.679370288330078,26.453076275665282,1.8439402883300782,26.384069275665283C2.0451452883300782,26.299580075665283,2.397836288330078,26.191056575665282,2.635244288330078,26.340128975665284C2.984004288330078,26.559093275665283,3.233184288330078,26.508517275665284,3.615244288330078,26.660244275665285C3.9973042883300782,26.811823275665283,4.379364288330079,28.041564275665284,4.362784288330078,28.462824275665284C4.346064288330078,28.883944275665282,4.1136042883300785,28.985094275665283,3.980734288330078,29.305214275665282C3.847854288330078,29.625174275665284,3.498944288330078,30.147444275665283,3.150174288330078,30.181214275665283C2.8012642883300782,30.214834275665282,2.3527692883300784,30.012674275665283,1.9211372883300781,29.338834275665285C1.4892141883300782,28.664984275665283,1.7549682883300781,28.260674275665284,1.6885292883300782,27.873174275665285C1.6386642883300782,27.582544275665285,1.449816288330078,27.133118275665282,1.518871588330078,26.775697275665284L1.518871588330078,26.775697275665284Z" fill-rule="evenodd" fill="#563411" fill-opacity="1"/></g><g><path d="M1.7735539017639161,29.43611132217407C2.275839901763916,30.219811322174074,2.7788579017639163,30.36299132217407,3.0790579017639157,30.36299132217407C3.110757901763916,30.36299132217407,3.140117901763916,30.361361322174073,3.166867901763916,30.35886132217407C3.651707901763916,30.311971322174074,4.035807901763916,29.632371322174073,4.142807901763916,29.374481322174073C4.183797901763916,29.275981322174072,4.237297901763916,29.200041322174073,4.293857901763916,29.119681322174074C4.402597901763916,28.965451322174072,4.525877901763916,28.790721322174072,4.538527901763916,28.470021322174073C4.556267901763916,28.019111322174073,4.1633079017639165,26.686162322174074,3.679337901763916,26.494034322174073C3.507927901763916,26.426059322174073,3.360227901763916,26.395242322174074,3.2298179017639157,26.367963322174074C3.0562379017639163,26.33183832217407,2.906347901763916,26.300431322174074,2.727967901763916,26.188516322174074C2.437067901763916,26.005825322174072,2.050065901763916,26.104469722174073,1.776751901763916,26.21918632217407C1.551994901763916,26.313554322174074,1.391205301763916,26.50877932217407,1.346283001763916,26.741456322174074C1.289439601763916,27.035324322174073,1.3781211017639161,27.365471322174074,1.449356901763916,27.630581322174073C1.476542901763916,27.731581322174073,1.501984901763916,27.826991322174074,1.5152139017639161,27.90381132217407C1.5319159017639161,28.001471322174073,1.521631901763916,28.10869132217407,1.509726901763916,28.23283132217407L1.509689901763916,28.23321132217407L1.509633901763916,28.23379132217407C1.480276901763916,28.540241322174072,1.443748901763916,28.921541322174072,1.7735539017639161,29.43611132217407ZM1.788457901763916,27.53614132217407C1.723815901763916,27.29495132217407,1.650604901763916,27.021803322174073,1.691411901763916,26.81000232217407C1.713218901763916,26.696613322174073,1.797392901763916,26.596641322174072,1.911225901763916,26.548867322174072C2.186137901763916,26.433413322174072,2.416417901763916,26.412770322174072,2.5424679017639162,26.49195132217407C2.774057901763916,26.637337322174073,2.9695879017639157,26.67803432217407,3.158727901763916,26.71755132217407C3.281137901763916,26.743059322174073,3.407617901763916,26.769453322174073,3.551107901763916,26.826369322174074C3.807557901763916,26.928257322174073,4.203857901763916,28.024111322174072,4.186707901763916,28.455701322174072C4.1782779017639164,28.66979132217407,4.1067479017639155,28.771391322174072,4.007597901763916,28.912061322174072C3.945227901763916,29.000531322174073,3.874577901763916,29.10079132217407,3.818457901763916,29.236001322174072C3.674967901763916,29.581631322174072,3.358337901763916,29.981961322174072,3.133427901763916,30.003631322174073C2.9307679017639163,30.022951322174073,2.5225479017639163,29.950251322174072,2.068525901763916,29.241611322174073C1.805643901763916,28.831721322174072,1.833133901763916,28.545291322174073,1.859727901763916,28.268191322174072L1.859760901763916,28.26784132217407C1.8729909017639161,28.13027132217407,1.8866569017639159,27.987981322174072,1.861796901763916,27.842601322174072C1.845804901763916,27.749411322174073,1.818036901763916,27.646191322174072,1.788670901763916,27.536931322174073L1.788457901763916,27.53614132217407Z" fill-rule="evenodd" fill="#000000" fill-opacity="1"/></g><g><path d="M4.301563262939453,27.499779412384033C4.301563262939453,27.499779412384033,6.035213262939453,27.122600412384035,6.613683262939453,26.927670412384032C7.192293262939453,26.732888412384032,7.745893262939453,26.578655412384034,8.286273262939453,26.513777412384034C8.826793262939454,26.449046212384033,9.363973262939453,26.298941612384034,9.314103262939454,26.380186812384032C9.264093262939454,26.461432412384035,8.132603262939453,26.741440412384033,7.590633262939454,26.944332412384032C7.048653262939453,27.147371412384032,7.0402232629394526,27.183939412384035,6.232783262939453,27.366479412384034C5.425343262939453,27.549029412384034,4.805013262939453,27.64235941238403,4.5612112629394534,27.784509412384033C4.317264262939453,27.926649412384034,4.301563262939453,27.499779412384033,4.301563262939453,27.499779412384033L4.301563262939453,27.499779412384033Z" fill-rule="evenodd" fill="#000000" fill-opacity="1"/></g><g><path d="M33.92857337036133,19.97971692410278C33.92857337036133,19.97971692410278,32.25017337036133,20.559491924102783,31.69787337036133,20.821508924102783C31.145723370361328,21.08337892410278,30.613633370361327,21.302048924102785,30.084453370361327,21.430338924102784C29.55512337036133,21.558618924102785,29.038734770361327,21.771388924102784,29.079150250361327,21.684688924102783C29.11942037036133,21.598128924102785,30.210933370361328,21.186308924102782,30.725863370361328,20.920448924102782C31.24065337036133,20.654892924102782,31.24487337036133,20.617439924102783,32.025853370361325,20.340675924102783C32.80668337036133,20.063763924102783,33.41219337036133,19.897586924102782,33.63796337036133,19.727724024102784C33.86388337036133,19.557860924102783,33.92857337036133,19.97971692410278,33.92857337036133,19.97971692410278L33.92857337036133,19.97971692410278Z" fill-rule="evenodd" fill="#000000" fill-opacity="1"/></g><g><path d="M24.735099844970705,22.243344758446533C24.860709844970703,22.234202831446535,24.892539844970702,22.416156951446535,24.771009844970703,22.449922951446535C24.020269844970702,22.658564951446532,22.973529844970702,22.955235951446532,22.619529844970703,23.083517951446535C22.045429844970702,23.291721951446533,21.495459844970704,23.458631951446534,20.956679844970704,23.535891951446533C20.417904844970703,23.613311951446533,19.884216244970702,23.77580195144653,19.932336934970703,23.693371951446533C19.980457544970704,23.610951951446534,21.084319844970704,23.410271951446532,21.621359844970705,23.19484295144653C22.158529844970705,22.979269951446533,22.193279844970704,22.965114951446534,22.996359844970705,22.763992951446532C23.799429844970703,22.562722951446535,23.952659844970704,22.494010951446533,24.193119844970703,22.346412951446535C24.2826798449707,22.291561051446532,24.498859844970703,22.260596451446535,24.735099844970705,22.243344758446533L24.735099844970705,22.243344758446533Z" fill-rule="evenodd" fill="#000000" fill-opacity="1"/></g><g><path d="M21.907103360595702,24.004698966040284C21.982123360595704,24.006468375040285,22.014543360595702,24.165567385040283,21.944033360595704,24.185325385040283C21.507603360595702,24.307857385040283,20.899623360595704,24.483618385040284,20.696233360595702,24.56722238504028C20.366083360595702,24.70287738504028,20.047554360595704,24.804765385040284,19.729028360595702,24.83042138504028C19.410501360595703,24.855930385040285,19.101278960595703,24.955460385040283,19.124103510595702,24.888074385040284C19.147073460595703,24.820837385040285,19.796338360595705,24.731924385040283,20.103816360595705,24.587276385040283C20.411153360595705,24.442479385040283,20.430923360595703,24.432895385040283,20.899183360595703,24.320832385040283C21.3676033605957,24.208623385040283,21.454833360595703,24.161144385040284,21.588723360595704,24.052177985040284C21.638293360595704,24.011776585040284,21.766083360595704,24.00160250504028,21.907103360595702,24.004698966040284L21.907103360595702,24.004698966040284Z" fill-rule="evenodd" fill="#000000" fill-opacity="1"/></g><g><path d="M11.224938839111328,26.585734454571533C11.501018839111328,26.539287504571533,11.379768839111328,26.677743904571532,11.309258839111328,26.697501904571535C10.872838839111328,26.820032904571534,9.941388839111328,27.111100904571533,9.737858839111329,27.194704904571534C9.407838839111328,27.330358904571533,9.089318839111328,27.432247904571533,8.770648839111328,27.457903904571534C8.452263839111328,27.483412904571534,7.706466539111328,27.734663904571534,7.729291164111328,27.66743390457153C7.7521157391113285,27.600193904571533,8.480321839111328,27.37046590457153,8.816878839111329,27.331096904571535C9.172328839111328,27.289515904571534,9.296628839111328,27.102990904571534,9.765038839111329,26.990780904571533C10.233598839111329,26.878570904571532,10.346558839111328,26.800716904571534,10.518108839111328,26.796293904571534C10.846668839111327,26.787888904571535,11.085958839111328,26.609179104571535,11.224938839111328,26.585734454571533L11.224938839111328,26.585734454571533Z" fill-rule="evenodd" fill="#000000" fill-opacity="1"/></g><g><path d="M8.270263067626953,27.003270568477785C8.500253067626954,26.969356958477782,8.404303067626953,27.101030658477782,8.345863067626953,27.117397658477785C7.984153067626953,27.219580658477785,7.213643067626953,27.466854658477782,7.046163067626953,27.540727658477785C6.774453067626953,27.66045765847778,6.511023067626953,27.74730565847778,6.244397067626953,27.758806658477784C5.9777710676269535,27.770307658477783,5.361507267626953,27.986322658477782,5.377935163626953,27.920854658477783C5.394363067626953,27.85523965847778,5.996525067626953,27.659867658477783,6.277835067626953,27.635538658477785C6.574843067626953,27.609881658477782,6.6715230676269535,27.430876658477782,7.060413067626953,27.340342658477784C7.449453067626953,27.249807658477785,7.540893067626953,27.177556658477783,7.684963067626953,27.180653658477784C7.960893067626953,27.186551658477782,8.154253067626954,27.020374858477783,8.270263067626953,27.003270568477785L8.270263067626953,27.003270568477785Z" fill-rule="evenodd" fill="#000000" fill-opacity="1"/></g><g><path d="M2.8844214973144533,29.592075056915284C2.808678497314453,29.592075056915284,2.734971497314453,29.556395056915285,2.665479497314453,29.48591505691528C2.487389497314453,29.305435056915282,2.0733488403144533,28.834335056915283,2.0733488403144533,28.361755056915282C2.0733488403144533,28.110935056915284,2.106349997314453,27.780207056915284,2.2637964973144533,27.63010305691528C2.325000497314453,27.571712056915285,2.401470497314453,27.543697056915285,2.483028497314453,27.548710056915283C2.785272497314453,27.567289056915282,3.245983497314453,27.811175056915282,3.2801434973144534,28.15089505691528C3.3009334973144533,28.357775056915283,3.2394434973144532,28.552405056915283,3.119643497314453,28.658425056915284C3.0385234973144533,28.730525056915283,2.935885497314453,28.756035056915284,2.8315034973144533,28.730525056915283C2.5815954973144533,28.669485056915285,2.488407497314453,28.435625056915285,2.488407497314453,28.302475056915284C2.488407497314453,28.236865056915285,2.541034497314453,28.183635056915282,2.605728497314453,28.183635056915282C2.670422497314453,28.183635056915282,2.7230504973144534,28.236865056915285,2.7230504973144534,28.302475056915284C2.7230504973144534,28.304095056915283,2.737733497314453,28.462905056915282,2.886456497314453,28.499175056915284C2.917131497314453,28.50684505691528,2.941555497314453,28.500505056915284,2.965397497314453,28.479265056915285C3.0260214973144532,28.425595056915284,3.059458497314453,28.300555056915282,3.046810497314453,28.174935056915285C3.028638497314453,27.995195056915282,2.700516497314453,27.800408056915284,2.4689264973144533,27.786105056915282C2.4539524973144533,27.78536805691528,2.440868497314453,27.787875056915283,2.424585497314453,27.80335705691528C2.353786497314453,27.870885056915284,2.3078464973144532,28.090145056915283,2.3078464973144532,28.361755056915282C2.3078464973144532,28.627895056915282,2.503672497314453,28.985325056915283,2.831358497314453,29.317675056915284C2.860724497314453,29.347605056915285,2.880205497314453,29.354245056915282,2.885293497314453,29.354095056915284C2.925854497314453,29.351295056915284,3.013664497314453,29.233625056915283,3.071525497314453,29.15577505691528C3.159773497314453,29.037375056915284,3.259793497314453,28.903195056915283,3.395863497314453,28.809265056915283C3.585293497314453,28.678625056915283,3.535573497314453,28.426925056915284,3.4508234973144534,28.111235056915284C3.436423497314453,28.057265056915284,3.4227634973144534,28.006245056915283,3.412293497314453,27.959355056915282C3.355303497314453,27.704565056915282,3.2808734973144533,27.602382056915282,3.081413497314453,27.329156056915284L3.056260497314453,27.294505056915284C2.9674334973144534,27.172711056915283,2.7652104973144533,27.076721056915282,2.5405984973144533,27.050032056915285C2.3870774973144533,27.031749056915285,2.2992684973144533,27.056815056915283,2.2824044973144533,27.07111805691528C2.2444604973144533,27.12420005691528,2.172497697314453,27.134227056915282,2.120161097314453,27.095595056915283C2.067824417314453,27.056963056915283,2.057647797314453,26.980878056915284,2.0957372973144532,26.927649056915282C2.167409397314453,26.827677156915282,2.319040497314453,26.806149426915283,2.433744497314453,26.805707075715283C2.703423497314453,26.80438001691528,3.0697804973144533,26.912904056915284,3.2448134973144533,27.15310005691528L3.2699634973144533,27.187604056915283C3.4781534973144534,27.47292005691528,3.573233497314453,27.603267056915282,3.6409734973144534,27.90671505691528C3.6507134973144533,27.950665056915284,3.6636534973144532,27.998435056915284,3.6771734973144534,28.048715056915285C3.7542234973144533,28.335805056915284,3.870533497314453,28.769595056915282,3.527723497314453,29.006115056915284C3.4236334973144533,29.077915056915284,3.335823497314453,29.195435056915283,3.258623497314453,29.299245056915282C3.150613497314453,29.444185056915284,3.048555497314453,29.58116505691528,2.901576497314453,29.591485056915282C2.895761497314453,29.591935056915283,2.890091497314453,29.592075056915284,2.8844214973144533,29.592075056915284L2.8844214973144533,29.592075056915284Z" fill-rule="evenodd" fill="#000000" fill-opacity="1"/></g><g><path d="M0.6839585770019532,18.371065076446534L0.6839585770019532,18.371065076446534C0.6218814770019532,18.312525076446533,0.6396177970019531,18.189845076446534,0.7235018770019531,18.09842507644653L5.582520177001953,12.927485076446533C5.666260177001953,12.836065876446533,5.748260177001953,12.785047976446533,5.781980177001953,12.817044756446533C5.8173101770019535,12.850221076446534,5.756540177001953,12.941935076446534,5.672660177001953,13.033207076446534L0.9492761770019531,18.311635076446535C0.8653921770019531,18.402915076446533,0.7461810770019531,18.42959507644653,0.6839585770019532,18.371065076446534L0.6839585770019532,18.371065076446534Z" fill-rule="evenodd" fill="#000000" fill-opacity="1"/></g><g><path d="M1.861786060595703,20.17237185379028L1.861786060595703,20.17237185379028C1.8008720605957032,20.114861853790284,1.819771400595703,19.993211853790285,1.9035100605957032,19.901941853790284L6.761218360595703,14.729674853790284C6.845108360595703,14.638403153790284,6.926668360595703,14.587090353790284,6.959808360595703,14.618349833790283C6.9942683605957034,14.650788953790283,6.933348360595703,14.742207853790283,6.849468360595703,14.833479853790283L2.124777360595703,20.110731853790284C2.040893360595703,20.202001853790282,1.9225547605957032,20.229721853790284,1.861786060595703,20.17237185379028L1.861786060595703,20.17237185379028Z" fill-rule="evenodd" fill="#000000" fill-opacity="1"/></g><g><path d="M0.4623542316894531,15.573576025665282L0.4623542316894531,15.573576025665282C0.5197792316894532,15.511351825665283,0.6599247316894531,15.548804295665283,0.7740477316894532,15.656738025665284L7.247513731689454,21.902738025665283C7.361483731689453,22.010818025665284,7.430103731689453,22.110938025665284,7.398703731689453,22.144858025665282C7.366283731689453,22.180098025665284,7.255073731689453,22.098258025665285,7.140943731689453,21.990328025665285L0.5654287316894531,15.883222025665283C0.4514507316894531,15.775141025665283,0.4050747316894531,15.635800125665282,0.4623542316894531,15.573576025665282L0.4623542316894531,15.573576025665282Z" fill-rule="evenodd" fill="#000000" fill-opacity="1"/></g><g><path d="M1.0992783840332032,13.699241163946533L1.0992783840332032,13.699241163946533C1.1843258840332032,13.606937163946533,1.334792884033203,13.607969363946534,1.4337968840332032,13.701747863946533L7.015644884033203,19.157707263946534C7.114644884033203,19.25133726394653,7.163354884033203,19.349837263946533,7.116974884033203,19.40026726394653C7.069004884033203,19.452467263946534,6.965194884033203,19.38920726394653,6.866344884033203,19.295577263946534L1.124574484033203,14.037492263946532C1.025570984033203,13.943861263946534,1.0142313840332031,13.791545263946533,1.0992783840332032,13.699241163946533L1.0992783840332032,13.699241163946533Z" fill-rule="evenodd" fill="#000000" fill-opacity="1"/></g><g><path d="M2.5860312133300782,11.996328840509033L2.5860312133300782,11.996328840509033C2.652033413330078,11.924667840509033,2.761068413330078,11.918032640509033,2.828379413330078,11.981731240509033L6.613917413330078,15.698218240509034C6.681087413330078,15.762068240509034,6.711757413330078,15.831668240509034,6.675707413330078,15.870738240509034C6.6381974133300785,15.911438240509034,6.566237413330078,15.870148240509033,6.498917413330078,15.806448240509033L2.588211913330078,12.242571240509033C2.520901113330078,12.178872240509033,2.5198834133300783,12.068137240509033,2.5860312133300782,11.996328840509033L2.5860312133300782,11.996328840509033Z" fill-rule="evenodd" fill="#000000" fill-opacity="1"/></g><g><path d="M5.062682331689453,10.984454328009033L5.062682331689453,10.984454328009033C5.095974331689453,10.948181508009034,5.153254231689453,10.947149348009033,5.189889231689453,10.981800228009034L7.257046231689453,13.005852928009034C7.293676231689453,13.040502928009033,7.311126231689453,13.077662928009033,7.292946231689453,13.097422928009033C7.274196231689453,13.117912928009034,7.235236231689453,13.094912928009034,7.198596231689454,13.060112928009033L5.068788331689453,11.113325928009033C5.032007271689453,11.078674928009033,5.029390441689453,11.020579728009034,5.062682331689453,10.984454328009033L5.062682331689453,10.984454328009033Z" fill-rule="evenodd" fill="#000000" fill-opacity="1"/></g><g><path d="M3.270864772705078,21.864245818634032L3.270864772705078,21.864245818634032C3.164155672705078,21.763535818634033,3.1228678727050783,21.630835818634033,3.1792751727050783,21.569345818634034L6.511810772705078,18.149379518634035C6.568220772705079,18.087892618634033,6.642940772705078,18.072262818634034,6.7010907727050775,18.127114418634033C6.761570772705078,18.184177818634033,6.733660772705078,18.258197818634034,6.677400772705078,18.319537818634032L3.567293772705078,21.935755818634032C3.510885772705078,21.997095818634033,3.377427772705078,21.96495581863403,3.270864772705078,21.864245818634032L3.270864772705078,21.864245818634032Z" fill-rule="evenodd" fill="#000000" fill-opacity="1"/></g><g><path d="M5.126728044970704,23.146001033477784L5.126728044970704,23.146001033477784C5.0552012449707036,23.078321033477785,5.020019344970703,22.99751103347778,5.0486591649707036,22.966401033477783L6.756864844970703,21.246539933477784C6.785504844970703,21.215280393477784,6.828684844970703,21.212331383477782,6.867934844970703,21.24919403347778C6.908354844970703,21.287531133477785,6.897884844970703,21.328375033477784,6.869104844970703,21.359487033477784L5.3090338449707035,23.212201033477783C5.280393844970703,23.243461033477782,5.198399844970703,23.213531033477782,5.126728044970704,23.146001033477784L5.126728044970704,23.146001033477784Z" fill-rule="evenodd" fill="#000000" fill-opacity="1"/></g><g><path d="M13.978577253173828,8.539881209259033C13.978577253173828,8.539881209259033,12.661148253173828,6.802471209259033,15.521348253173828,5.803347209259034C17.920838253173827,4.965239209259034,21.215138253173826,5.112836909259033,22.07127825317383,5.6191822092590336C23.00533825317383,6.171679209259033,22.450858253173827,7.364401209259033,22.274078253173826,7.457301209259033C20.98223825317383,7.324151209259034,15.979868253173828,7.715481209259034,13.978577253173828,8.539881209259033L13.978577253173828,8.539881209259033Z" fill-rule="evenodd" fill="#4C6EF0" fill-opacity="1"/></g><g><path d="M13.6998156796875,8.756882326698303L13.8630766796875,8.972162326698303L14.1110936796875,8.869982326698302C16.0420266796875,8.074482326698304,20.9930766796875,7.683442326698303,22.2386866796875,7.811732326698303L22.3427766796875,7.822492326698303L22.4359666796875,7.773682326698303C22.6977966796875,7.636112326698303,22.9381066796875,7.082442326698303,22.9503166796875,6.588772326698303C22.9639866796875,6.040112326698303,22.7148066796875,5.586111326698303,22.2487166796875,5.310378326698303C21.3142166796875,4.7577341266983035,17.9553666796875,4.575190326698303,15.4068666796875,5.465496326698303C14.2824966796875,5.8581523266983035,13.604882679687499,6.420532326698304,13.3927736796875,7.136992326698303C13.1369056796875,8.000762326698304,13.6766996796875,8.726362326698304,13.6998156796875,8.756882326698303ZM15.6359966796875,6.140232326698303C16.8435166796875,5.718380326698303,18.2355266796875,5.559428326698304,19.4132466796875,5.559428326698304C20.5800566796875,5.559428326698304,21.5368066796875,5.715726326698303,21.8940066796875,5.927022326698303C22.0933166796875,6.0448323266983035,22.2056966796875,6.204822326698303,22.2376766796875,6.415972326698303C22.2766366796875,6.674452326698303,22.1866466796875,6.944722326698303,22.1152666796875,7.087012326698304C20.6582766796875,7.009602326698303,16.273186679687498,7.350212326698303,14.1358196796875,8.098972326698304C14.0549886796875,7.912442326698303,13.9789556796875,7.630812326698303,14.0682186796875,7.336352326698304C14.2122896796875,6.861862326698303,14.7542666796875,6.448262326698304,15.6359966796875,6.140232326698303Z" fill-rule="evenodd" fill="#000000" fill-opacity="1"/></g></g></g></svg>