<svg xmlns="http://www.w3.org/2000/svg" xmlns:xlink="http://www.w3.org/1999/xlink" fill="none" version="1.1" width="20" height="20" viewBox="0 0 20 20"><g><rect x="0" y="0" width="20.000001907348633" height="20" rx="4" fill="#4B6EEF" fill-opacity="0.15000000596046448"/><g><g style="opacity:0.5;"><path d="M9.779544621658324,2.706501828515625C9.896884621658325,2.652517028515625,10.031524621658324,2.650433228515625,10.150474621658326,2.7007611285156248C10.443894621658325,2.796442228515625,10.736364621658325,2.894994228515625,11.027554621658325,2.996097228515625C11.470874621658325,3.149825228515625,11.912284621658326,3.307061228515625,12.354964621658326,3.462384228515625L14.010254621658325,4.042849228515625L14.086484621658325,4.067729228515625C14.127944621658326,4.266109228515625,14.161434621658325,4.463209228515625,14.211824621658325,4.655529228515625C14.234784621658326,4.739409228515624,14.266364621658326,4.820099228515625,14.305914621658324,4.897279228515625L5.694594621658325,4.896649228515625C5.744348821658325,4.781829228515625,5.785810321658325,4.663819228515625,5.819299621658325,4.544219228515625L5.8502366216583255,4.423659228515625C5.874227621658325,4.3083092285156255,5.891796621658325,4.191719228515625,5.902860621658325,4.0744292285156245C6.1675786216583255,3.980339228515625,6.433891621658325,3.885299228515625,6.700844621658325,3.791209228515625C7.203484621658325,3.613559228515625,7.706134621658325,3.436549228515625,8.208774621658325,3.2595392285156253C8.532504621658326,3.145678228515625,8.856224621658326,3.0324552285156248,9.180584621658326,2.919551228515625C9.384384621658326,2.859591228515625,9.584354621658324,2.788787228515625,9.779544621658324,2.706501828515625Z" fill="#1269FF" fill-opacity="1"/></g><g><path d="M14.638121678161621,4.876178741455078C14.704121678161622,5.131966741455078,14.79692167816162,5.443887741455078,14.912421678161621,5.568591741455078C15.134821678161622,5.817738741455078,15.43262167816162,5.987128741455078,15.760521678161622,6.050828741455078C15.89442167816162,6.072198741455078,16.02962167816162,6.0859087414550785,16.165221678161622,6.091008741455078C16.205721678161623,6.094518741455078,16.246821678161623,6.091648741455078,16.30042167816162,6.091648741455078C16.31642167816162,6.271528741455079,16.33772167816162,6.446948741455078,16.34672167816162,6.622998741455078C16.362621678161624,6.927588741455079,16.378221678161623,7.232808741455078,16.378621678161622,7.537398741455078C16.37982167816162,7.806898741455078,16.369021678161623,8.076078741455078,16.34542167816162,8.344308741455079C16.31192167816162,8.710128741455078,16.26312167816162,9.074668741455078,16.21562167816162,9.438898741455077C16.149221678161624,9.963538741455078,16.038321678161623,10.481568741455078,15.883921678161622,10.987338741455078C15.749321678161621,11.423648741455079,15.605821678161622,11.859638741455079,15.43392167816162,12.282228741455079C15.291921678161621,12.631148741455078,15.10702167816162,12.962208741455077,14.933521678161622,13.297088741455077C14.71212167816162,13.707748741455077,14.454921678161622,14.098058741455079,14.164821678161621,14.463448741455078C14.036021678161621,14.631848741455078,13.892421678161622,14.790038741455078,13.75182167816162,14.949178741455079C13.650921678161621,15.065178741455078,13.545261678161621,15.176878741455079,13.43510167816162,15.284078741455078C13.112021678161621,15.595878741455078,12.767471678161622,15.884578741455078,12.403981678161621,16.14807874145508C11.948081678161621,16.47367874145508,11.464031678161621,16.75787874145508,10.957601678161621,16.99737874145508C10.723501678161622,17.11447874145508,10.48142167816162,17.215578741455076,10.23361167816162,17.299478741455076C10.030731678161622,17.361278741455077,9.811911678161621,17.343178741455077,9.62189167816162,17.24907874145508C9.294341678161622,17.094678741455077,8.959131678161622,16.955578741455078,8.637321678161621,16.79037874145508C8.190811678161621,16.563978741455077,7.768541678161621,16.292878741455077,7.376251678161621,15.980978741455077C7.140551678161621,15.792478741455078,6.916971678161621,15.587978741455078,6.688301678161621,15.390878741455078C6.4211416781616215,15.148078741455079,6.174401678161621,14.883578741455079,5.950591678161621,14.600268741455078C5.685391678161621,14.280888741455078,5.444651678161621,13.941958741455078,5.230431678161621,13.586368741455079C4.993811678161621,13.208748741455079,4.790321678161622,12.811348741455078,4.622221678161621,12.398638741455077C4.4786976781616215,12.033458741455078,4.325607678161621,11.670508741455079,4.210470678161621,11.296078741455078C4.081620678161621,10.877628741455078,3.984025678161621,10.449298741455078,3.887706678161621,10.021918741455078C3.824237678161621,9.741568741455078,3.782137678161621,9.45675874145508,3.739400678161621,9.172588741455078C3.714697678161621,8.994158741455077,3.697671878161621,8.814748741455078,3.688370278161621,8.634858741455078C3.668277078161621,8.314328741455078,3.653286978161621,7.993798741455079,3.637978078161621,7.6732587414550775C3.630323428161621,7.505818741455078,3.615652578161621,7.337418741455078,3.623626018161621,7.170298741455078C3.637021378161621,6.878148741455078,3.6650879781616212,6.586638741455078,3.687094778161621,6.294808741455078C3.691559878161621,6.229748741455078,3.698576578161621,6.164688741455079,3.703998478161621,6.105998741455078C3.908118678161621,6.083678741455078,4.102670678161621,6.0763387414550785,4.290524678161621,6.038388741455078C4.535289678161621,5.986518741455078,4.762621678161621,5.872627741455078,4.950721678161621,5.707649741455078C5.112431678161621,5.574651741455078,5.242231678161621,5.067222741455078,5.329621678161621,4.876178741455078L5.329621678161621,4.876497503455078L14.638121678161621,4.876178741455078Z" fill="#1269FF" fill-opacity="1"/></g><g><path d="M13.225145668945313,8.269984205688477L9.410015668945313,12.759985205688476Q9.117555668945313,13.162165205688478,8.770225668945312,12.755845205688477L7.1238734689453125,10.522325205688476Q6.928683668945313,10.219335205688477,7.172989668945313,10.038495205688477C7.255913668945312,9.977895205688476,7.4431306689453125,9.882855205688477,7.6727656689453125,10.089525205688476L9.140195668945312,11.264485205688477L12.793945668945312,7.882155205688477Q13.039205668945312,7.657305005688476,13.253215668945312,7.833039005688477C13.317005668945313,7.885345205688477,13.390355668945313,8.035245205688476,13.224825668945313,8.269664205688477L13.225145668945313,8.269984205688477Z" fill="#FFFFFF" fill-opacity="1"/></g></g></g></svg>