<svg xmlns="http://www.w3.org/2000/svg" xmlns:xlink="http://www.w3.org/1999/xlink" fill="none" version="1.1" width="20.002946853637695" height="19.52335548400879" viewBox="0 0 20.002946853637695 19.52335548400879"><g><path d="M3.66687,2.98745C3.4071,2.73767,2.98745,2.73767,2.72767,2.98745C2.47789,3.23724,2.4679,3.6369,2.70769,3.89668L2.72767,3.91666L3.66687,4.83588C3.92665,5.08566,4.34629,5.08566,4.60607,4.83588C4.85586,4.58609,4.86585,4.18643,4.62606,3.92665L4.60607,3.90667L3.66687,2.98745ZM16.3361,2.98745L15.3969,3.90667C15.1471,4.15646,15.1371,4.55612,15.3769,4.81589C15.3769,4.82589,15.3869,4.82589,15.3969,4.83588C15.6567,5.08566,16.0763,5.08566,16.3361,4.83588L17.2753,3.91666C17.5251,3.66687,17.535,3.26721,17.2953,3.00744L17.2753,2.98745C17.0161,2.72772,16.5953,2.72772,16.3361,2.98745ZM1.9983,8.13307L0.669429,8.13307C0.299744,8.13307,0,8.42282,0,8.78251C0,9.14221,0.299744,9.43196,0.669429,9.43196L1.9983,9.43196C2.36798,9.43196,2.66773,9.14221,2.66773,8.78251C2.66773,8.42282,2.36798,8.13307,1.9983,8.13307ZM19.3335,8.13307L18.0047,8.13307C17.635,8.13307,17.3352,8.42282,17.3352,8.78251C17.3352,9.14221,17.635,9.43196,18.0047,9.43196L19.3335,9.43196C19.7032,9.43196,20.0029,9.14221,20.0029,8.78251C20.0029,8.42282,19.7032,8.13307,19.3335,8.13307ZM9.33204,0.649446L9.33204,1.94834C9.33204,2.30803,9.63179,2.59778,10.0015,2.59778C10.3712,2.59778,10.6709,2.30803,10.6709,1.94834L10.6709,0.649446C10.6709,0.289753,10.3712,-4.76837e-8,10.0015,-4.76837e-8C9.63179,-4.76837e-8,9.33204,0.289753,9.33204,0.649446ZM3.99659,9.76168C3.99659,12.9989,6.6843,15.6167,10.0015,15.6167C13.3186,15.6167,16.0064,12.9989,16.0064,9.76168C16.0064,6.52444,13.3186,3.90667,10.0015,3.90667C6.6843,3.90667,3.99659,6.52444,3.99659,9.76168ZM8.66261,18.8739C8.66261,19.2336,8.96236,19.5234,9.33204,19.5234L10.6609,19.5234C11.0306,19.5234,11.3303,19.2336,11.3303,18.8739C11.3303,18.5142,11.0306,18.2245,10.6609,18.2245L9.33204,18.2245C8.96236,18.2245,8.66261,18.5142,8.66261,18.8739ZM7.33375,16.9256C7.33375,17.2853,7.63349,17.575,8.00318,17.575L11.9998,17.575C12.3695,17.575,12.6692,17.2853,12.6692,16.9256C12.6692,16.5659,12.3695,16.2761,11.9998,16.2761L8.00318,16.2761C7.63349,16.2661,7.33375,16.5659,7.33375,16.9256Z" fill="#FA9757" fill-opacity="1"/></g></svg>