<svg xmlns="http://www.w3.org/2000/svg" xmlns:xlink="http://www.w3.org/1999/xlink" fill="none" version="1.1" width="50" height="32" viewBox="0 0 50 32"><defs><linearGradient x1="1" y1="0.5" x2="-0.02414638362824917" y2="0.7280085682868958" id="master_svg0_196_03264"><stop offset="0%" stop-color="#4BA0EF" stop-opacity="1"/><stop offset="100%" stop-color="#3D66FF" stop-opacity="1"/></linearGradient><clipPath id="master_svg1_259_40983"><rect x="13.6337890625" y="5.041015625" width="21.917903900146484" height="21.917903900146484" rx="0"/></clipPath></defs><g><g><rect x="0" y="0" width="50" height="32" rx="4" fill="url(#master_svg0_196_03264)" fill-opacity="1"/></g><g clip-path="url(#master_svg1_259_40983)"><g><path d="M33.5694890625,5.282112625L14.5995470625,16.400015625C13.9844750625,16.761615624999997,13.6680357625,17.243815625,13.6337890625,17.710915625L13.6337890625,17.884915624999998C13.6776248625,18.443815625,14.1269420625,18.954815625000002,14.9529690625,19.178115625L18.6338090625,20.175315625C19.0287690625,20.268615625000002,19.4245190625,20.023815624999997,19.517379062499998,19.628715624999998C19.6224990625,19.234115625,19.3976990625,18.826815625000002,19.0077890625,18.705415625L15.3392790625,17.712315625000002L34.033889062499995,6.756095625L31.9954890625,21.813715625C31.9653890625,22.037015625,31.7995890625,22.149315625,31.5941890625,22.091815625L23.7680890625,19.945215625L30.1105890625,13.398585625C30.3973890625,13.097525625,30.3973890625,12.624305625,30.1105890625,12.323235624999999C29.8263890625,12.026655625,29.3522890625,12.026655625,29.0680890625,12.323235624999999L22.1160190625,19.501315625C22.0563690625,19.563115625000002,22.000119062499998,19.628015625,21.9475190625,19.695915624999998C21.7255290625,19.840415625,21.5947490625,20.090015625,21.6023190625,20.354815625C21.5279090625,20.579915624999998,21.4899890625,20.815715625,21.4899890625,21.053415625L21.4899890625,25.471215625C21.4899890625,26.534215625,22.6365690625,27.165815625,23.4927290625,26.578115625L27.0516890625,24.130115625C27.2707890625,23.980815625,27.3940890625,23.720515625,27.3776890625,23.447915625C27.3611890625,23.179815625,27.2051890625,22.940115625,26.966689062500002,22.816415625C26.732089062500002,22.695915625,26.4501890625,22.714915625,26.233889062499998,22.865715625L22.9625990625,25.115115625L22.9625990625,21.295915625L31.2132890625,23.556215625C32.2749890625,23.847915625,33.299589062500004,23.147915625,33.4516890625,22.019215625L35.531189062500005,6.660205625C35.711989062499995,5.365677625,34.6749890625,4.632797625,33.5694890625,5.282112625Z" fill="#FFFFFF" fill-opacity="1"/></g></g></g></svg>