<svg class="svg-icon quick-bi-common-delete-outlined-svg" viewBox="0 0 1024 1024" aria-hidden="true" width="1em" height="1em" fill="currentColor"><path d="M592 64a112 112 0 0 1 112 112v80h211.2a12.8 12.8 0 0 1 12.8 12.8v38.4a12.8 12.8 0 0 1-12.8 12.8H832v528a112 112 0 0 1-112 112H304a112 112 0 0 1-112-112V320H108.8a12.8 12.8 0 0 1-12.704-11.2L96 307.2v-38.4a12.8 12.8 0 0 1 12.8-12.8H320v-80a112 112 0 0 1 112-112h160z m176 256H256v528a48 48 0 0 0 43.376 47.776L304 896h416a48 48 0 0 0 48-48V320z m-352 128a32 32 0 0 1 32 32v256a32 32 0 1 1-64 0V480a32 32 0 0 1 32-32z m192 0a32 32 0 0 1 32 32v256a32 32 0 1 1-64 0V480a32 32 0 0 1 32-32zM592 128H432a48 48 0 0 0-48 48v80h256v-80a48 48 0 0 0-43.376-47.776L592 128z"></path></svg>