<svg xmlns="http://www.w3.org/2000/svg" xmlns:xlink="http://www.w3.org/1999/xlink" fill="currentColor" version="1.1" width="20" height="20" viewBox="0 0 20 20" fill-rule="evenodd"><g transform="matrix(-1,0,0,-1,40,40)"><g><path d="M37.002730706787105,35.66213125L38.19273070678711,29.38439125L38.19273070678711,29.38426125Q38.381430706787114,28.38748125,37.73413070678711,27.60627125Q37.08693070678711,26.82506125,36.07243070678711,26.82506125L32.39173070678711,26.84836125Q32.555830706787106,26.08548125,32.555830706787106,25.444591250000002Q32.555830706787106,24.28629125,31.728250706787108,23.39438425Q30.84646070678711,22.44410525,29.76369070678711,22.60137925Q28.81245070678711,22.73949525,28.463700706787108,23.58494125Q28.24993070678711,24.10317125,28.24993070678711,25.14297125L28.24993070678711,26.09947125Q28.24993070678711,26.81060125,27.72253070678711,27.36704125Q27.20659070678711,27.911381249999998,26.50196070678711,27.98790125L25.86796070678711,27.98165125L25.86796070678711,37.41803125L34.88253070678711,37.41803125Q35.66013070678711,37.41803125,36.25893070678711,36.92213125Q36.85783070678711,36.42613125,37.002730706787105,35.66213125ZM26.86796070678711,28.943191249999998L26.86796070678711,36.41803125L34.88253070678711,36.41803125Q35.299830706787105,36.41803125,35.62113070678711,36.151931250000004Q35.94253070678711,35.88583125,36.02023070678711,35.47583125L37.21013070678711,29.19828125L37.21013070678711,29.19815125Q37.31133070678711,28.66338125,36.96413070678711,28.24424125Q36.61683070678711,27.82506125,36.07243070678711,27.82506125L31.087040706787107,27.85664125L31.269160706787112,27.21576125Q31.55587070678711,26.20682125,31.55587070678711,25.444591250000002Q31.55587070678711,24.67878125,30.99522070678711,24.07458025Q30.47058070678711,23.50919625,29.90743070678711,23.59099425Q29.51972070678711,23.64728825,29.38814070678711,23.96627225Q29.24993070678711,24.30132125,29.24993070678711,25.14297125L29.24993070678711,26.09947125Q29.24993070678711,27.20921125,28.448320706787108,28.054951250000002Q27.773580706787108,28.76684125,26.86796070678711,28.943191249999998ZM24.835050706787108,27.98153125L23.36153070678711,27.966091249999998L23.35629070678711,27.96606125Q22.69886070678711,27.96606125,22.233995306787108,28.43093125Q21.76913070678711,28.895791250000002,21.76913070678711,29.55322125L21.76913070678711,35.83083125Q21.76913070678711,36.48843125,22.23391010678711,36.95323125Q22.69868970678711,37.41793125,23.35629070678711,37.41793125L24.835050706787108,37.41793125L24.835050706787108,27.98153125ZM22.94110170678711,29.13803125Q23.11227870678711,28.96686125,23.35404070678711,28.96607125L23.835050706787108,28.97111125L23.835050706787108,36.41793125L23.35629070678711,36.41793125Q23.112903706787108,36.41793125,22.94101670678711,36.24613125Q22.76913070678711,36.07423125,22.76913070678711,35.83083125L22.76913070678711,29.55322125Q22.76913070678711,29.31001125,22.94110170678711,29.13803125Z" /></g></g></svg>