<svg xmlns="http://www.w3.org/2000/svg" xmlns:xlink="http://www.w3.org/1999/xlink" fill="currentColor" fill-rule="evenodd" version="1.1" width="20" height="20" viewBox="0 0 20 20"><g><g><path d="M17.00273070678711,15.66213125L18.19273070678711,9.38439125L18.19273070678711,9.38426125Q18.38143070678711,8.38748125,17.73413070678711,7.60627125Q17.086930706787108,6.82506125,16.07243070678711,6.82506125L12.39173070678711,6.84836125Q12.555830706787109,6.08548125,12.555830706787109,5.44459125Q12.555830706787109,4.28629125,11.72825070678711,3.39438425Q10.84646070678711,2.44410525,9.76369070678711,2.60137925Q8.812450706787109,2.73949525,8.463700706787108,3.58494125Q8.24993070678711,4.10317125,8.24993070678711,5.14297125L8.24993070678711,6.099471250000001Q8.24993070678711,6.8106012499999995,7.72253070678711,7.36704125Q7.206590706787109,7.91138125,6.501960706787109,7.98790125L5.867960706787109,7.98165125L5.867960706787109,17.41803125L14.88253070678711,17.41803125Q15.66013070678711,17.41803125,16.258930706787112,16.92213125Q16.85783070678711,16.426131249999997,17.00273070678711,15.66213125ZM6.86796070678711,8.94319125L6.86796070678711,16.41803125L14.88253070678711,16.41803125Q15.299830706787109,16.41803125,15.62113070678711,16.15193125Q15.94253070678711,15.88583125,16.02023070678711,15.47583125L17.210130706787112,9.19828125L17.210130706787112,9.198151249999999Q17.31133070678711,8.66338125,16.96413070678711,8.24424125Q16.61683070678711,7.82506125,16.07243070678711,7.82506125L11.087040706787109,7.85664125L11.26916070678711,7.21576125Q11.55587070678711,6.20682125,11.55587070678711,5.44459125Q11.55587070678711,4.67878125,10.995220706787109,4.07458025Q10.470580706787109,3.50919625,9.90743070678711,3.59099425Q9.519720706787108,3.64728825,9.388140706787109,3.9662722500000003Q9.24993070678711,4.30132125,9.24993070678711,5.14297125L9.24993070678711,6.099471250000001Q9.24993070678711,7.20921125,8.44832070678711,8.05495125Q7.77358070678711,8.766841249999999,6.86796070678711,8.94319125ZM4.83505070678711,7.98153125L3.3615307067871094,7.96609125L3.3562907067871093,7.96606125Q2.6988607067871095,7.96606125,2.2339953067871092,8.43093125Q1.7691307067871094,8.89579125,1.7691307067871094,9.55322125L1.7691307067871094,15.83083125Q1.7691307067871094,16.488431249999998,2.233910106787109,16.95323125Q2.6986897067871096,17.417931250000002,3.3562907067871093,17.417931250000002L4.83505070678711,17.417931250000002L4.83505070678711,7.98153125ZM2.9411017067871095,9.138031250000001Q3.1122787067871096,8.966861250000001,3.354040706787109,8.966071249999999L3.8350507067871096,8.97111125L3.8350507067871096,16.417931250000002L3.3562907067871093,16.417931250000002Q3.1129037067871095,16.417931250000002,2.941016706787109,16.246131249999998Q2.7691307067871094,16.07423125,2.7691307067871094,15.83083125L2.7691307067871094,9.55322125Q2.7691307067871094,9.310011249999999,2.9411017067871095,9.138031250000001Z"/></g></g></svg> 