<svg xmlns="http://www.w3.org/2000/svg" xmlns:xlink="http://www.w3.org/1999/xlink" fill="none" version="1.1" width="14" height="14" viewBox="0 0 14 14"><defs><clipPath id="master_svg0_865_19645"><rect x="2" y="2" width="10" height="10" rx="0"/></clipPath></defs><g><g><ellipse cx="7.000038146972656" cy="7" rx="6.490638732910156" ry="6.5" fill="#1EA124" fill-opacity="1"/></g><g><g clip-path="url(#master_svg0_865_19645)"><g><path d="M10.9582088671875,7.83313L7.0833488671875,11.97466C7.0583488671875,11.99966,7.0250088671875,12.008,7.0000188671875,11.99133C6.9750188671875,12.008,6.9416788671875,11.99966,6.9166788671875,11.97466L3.0418168671875,7.83313C2.6668288671875002,7.42481,2.8168241671875,7.09983,3.3668048671875,7.09983L5.3000688671875,7.09983C5.3417388671875,7.09983,5.3750688671875,7.06649,5.3750688671875,7.02483L5.3750688671875,2.308323C5.3750688671875,2.133329,5.5083988671875,2,5.6833888671874995,2L8.3166388671875,2C8.4832988671875,2,8.6249588671875,2.133329,8.6249588671875,2.308323L8.6249588671875,7.02483C8.6249588671875,7.06649,8.658288867187501,7.09983,8.699958867187501,7.09983L10.6332188671875,7.09983C11.1832088671875,7.09983,11.3331988671875,7.42481,10.9582088671875,7.83313Z" fill="#FFFFFF" fill-opacity="1"/></g></g></g></g></svg>