<svg xmlns="http://www.w3.org/2000/svg" xmlns:xlink="http://www.w3.org/1999/xlink" fill="none" version="1.1" width="20" height="20" viewBox="0 0 20 20"><g><g><g><path d="M10.31454796875,16.782366147460937L4.06551796875,16.782366147460937L9.189727968749999,11.658156147460938C9.43968796875,11.408196147460938,9.43968796875,10.908276147460938,9.189727968749999,10.658306147460937C8.939757968750001,10.283366147460937,8.43983796875,10.283366147460937,8.06489796875,10.658306147460937L2.94068796875,15.782516147460939L2.94068796875,9.033561147460938C2.94068796875,8.658619147460938,2.56574796875,8.283676147460938,2.1908019687499998,8.283676147460938C1.8158599687499999,8.283676147460938,1.44091796875,8.658619147460938,1.44091796875,9.033561147460938L1.44091796875,16.157466147460937C1.44091796875,17.157306147460936,2.1908019687499998,18.407076147460938,3.3156279687500003,18.407076147460938L10.31454796875,18.407076147460938C10.68948796875,18.407076147460938,11.06443796875,18.032176147460937,11.06443796875,17.65722614746094C11.06443796875,17.157306147460936,10.68948796875,16.782366147460937,10.31454796875,16.782366147460937Z" fill="#666666" fill-opacity="1"/></g><g transform="matrix(-1,0,0,-1,37.1181640625,23.432647705078125)"><path d="M27.43271203125,20.215013852539062L21.18368203125,20.215013852539062L26.30789203125,15.090803852539063C26.55785203125,14.840843852539063,26.55785203125,14.340923852539063,26.30789203125,14.090953852539062C26.05792203125,13.716013852539062,25.55800203125,13.716013852539062,25.18306203125,14.090953852539062L20.05885203125,19.215163852539064L20.05885203125,12.466208852539063C20.05885203125,12.091266852539063,19.68391203125,11.716323852539062,19.30896603125,11.716323852539062C18.93402403125,11.716323852539062,18.55908203125,12.091266852539063,18.55908203125,12.466208852539063L18.55908203125,19.590113852539062C18.55908203125,20.58995385253906,19.30896603125,21.839723852539063,20.43379203125,21.839723852539063L27.43271203125,21.839723852539063C27.80765203125,21.839723852539063,28.18260203125,21.464823852539062,28.18260203125,21.089873852539064C28.18260203125,20.58995385253906,27.80765203125,20.215013852539062,27.43271203125,20.215013852539062Z" fill="#666666" fill-opacity="1"/></g></g></g></svg>