<svg xmlns="http://www.w3.org/2000/svg" xmlns:xlink="http://www.w3.org/1999/xlink" version="1.1" width="20.00008201599121" height="19.999858856201172" viewBox="0 0 20.00008201599121 19.999858856201172"><defs><clipPath id="master_svg0_259_44570"><rect x="0" y="0" width="20.00008201599121" height="19.999858856201172" rx="0"/></clipPath></defs><g clip-path="url(#master_svg0_259_44570)"><g><path d="M17.42293508605957,12.650868464660645L17.42293508605957,14.771768464660644C17.42293508605957,16.256268464660643,16.25653508605957,17.422668464660646,14.771935086059571,17.422668464660646L5.22824508605957,17.422668464660646C3.7436950860595704,17.422868464660645,2.5771350860595703,16.256468464660642,2.5771350860595703,14.771868464660644L2.5771350860595703,5.228138464660645C2.5771350860595703,3.7435784646606445,3.7436950860595704,2.5771684646606445,5.22824508605957,2.5771684646606445L7.34907508605957,2.5771684646606445C7.667215086059571,2.5771684646606445,7.8793550860595705,2.7891644646606446,7.8793550860595705,3.1074484646606444C7.8793550860595705,3.4255874646606443,7.667355086059571,3.6375884646606442,7.34907508605957,3.6375884646606442L5.22824508605957,3.6375884646606442C4.37997508605957,3.6375884646606442,3.63755508605957,4.379858464660645,3.63755508605957,5.228278464660645L3.63755508605957,14.771968464660645C3.63755508605957,15.620268464660645,4.37982508605957,16.362668464660644,5.22824508605957,16.362668464660644L14.771935086059571,16.362668464660644C15.620235086059571,16.362668464660644,16.36263508605957,15.620468464660645,16.36263508605957,14.771968464660645L16.36263508605957,12.650868464660645C16.36263508605957,12.332758464660644,16.574635086059573,12.120758464660645,16.89283508605957,12.120758464660645C17.210835086059568,12.120758464660645,17.42293508605957,12.332898464660644,17.42293508605957,12.650868464660645ZM17.26023508605957,6.817378464660645L12.50600508605957,2.6593857646606445C12.410875086059571,2.5767334566606444,12.28820508605957,2.5677431946606446,12.18757508605957,2.6377801646606445C12.08693508605957,2.7078174646606445,12.023575086059571,2.8442664646606444,12.023575086059571,2.9952154646606446L12.023575086059571,4.918838464660645L10.850485086059571,4.918838464660645C9.61954508605957,4.918838464660645,8.46169508605957,5.520458464660645,7.59050508605957,6.614228464660645C7.16607508605957,7.147698464660644,6.83242508605957,7.769188464660645,6.59809508605957,8.460708464660645C6.35550508605957,9.179348464660645,6.23283508605957,9.940908464660644,6.23283508605957,10.727558464660644C6.23283508605957,11.309458464660645,6.30026508605957,11.970538464660645,6.40930508605957,12.450068464660644C6.4451150860595705,12.609868464660645,6.55271508605957,12.724868464660645,6.680755086059571,12.739168464660645L6.70699508605957,12.739168464660645C6.82416508605957,12.739168464660645,6.9330550860595705,12.651168464660644,6.98554508605957,12.512848464660644C7.7147750860595705,10.565878464660646,9.23108508605957,9.308548464660644,10.84932508605957,9.308548464660644L12.02241508605957,9.308548464660644L12.02241508605957,11.311348464660645C12.02241508605957,11.460408464660645,12.08578508605957,11.596858464660645,12.18641508605957,11.668778464660644C12.287045086059571,11.738818464660644,12.40971508605957,11.731568464660645,12.50484508605957,11.647178464660644L17.26043508605957,7.489188464660645C17.345835086059573,7.413638464660645,17.398335086059568,7.2880584646606446,17.398335086059568,7.153358464660645C17.39813508605957,7.018498464660644,17.34713508605957,6.892778464660645,17.26023508605957,6.817378464660645ZM15.98113508605957,7.049968464660645L12.97973508605957,9.499518464660644L12.97973508605957,8.311648464660644C12.97973508605957,8.151128464660644,12.87223508605957,8.020478464660645,12.74013508605957,8.020478464660645L11.594945086059571,8.020478464660645C10.87224508605957,8.020478464660645,10.20594508605957,8.056728464660644,9.46642508605957,8.488118464660644C9.02691508605957,8.744478464660645,7.56803508605957,9.779518464660644,7.29136508605957,10.243968464660645C7.28396508605957,10.128838464660644,7.58340508605957,9.004618464660645,7.62487508605957,8.903988464660644C8.23388508605957,7.425378464660644,9.89404508605957,6.022608464660644,11.594945086059571,6.022608464660644L12.74013508605957,6.022608464660644C12.87213508605957,6.022608464660644,12.97973508605957,5.891818464660645,12.97973508605957,5.731438464660645L12.97973508605957,4.600408464660644L15.98113508605957,7.049968464660645Z" fill="currentColor"/></g></g></svg>