<svg xmlns="http://www.w3.org/2000/svg" xmlns:xlink="http://www.w3.org/1999/xlink" fill="none" version="1.1" width="20" height="20" viewBox="0 0 20 20"><defs><clipPath id="master_svg0_259_46004"><rect x="0" y="0" width="20" height="20" rx="0"/></clipPath></defs><g clip-path="url(#master_svg0_259_46004)"><g><path d="M6.703852396850586,3.714204788208008C4.478902396850586,3.714204788208008,2.675222396850586,5.517894788208007,2.675222396850586,7.7428347882080075C2.675222396850586,11.771464788208007,7.436332396850586,15.433804788208008,10.000002396850586,16.285804788208008C12.563672396850587,15.433804788208008,17.324822396850585,11.771464788208007,17.324822396850585,7.7428347882080075C17.324822396850585,5.517894788208007,15.521122396850586,3.714204788208008,13.296122396850587,3.714204788208008C11.933632396850586,3.714204788208008,10.729072396850587,4.390611788208008,10.000002396850586,5.425934788208008C9.270932396850586,4.390611788208008,8.066372396850586,3.714204788208008,6.703852396850586,3.714204788208008Z" fill="#4B6EEF" fill-opacity="1"/><path d="M10.000002396850586,4.491014788208008Q10.492942396850585,3.989472788208008,11.129302396850585,3.651813888208008Q12.142492396850585,3.1142047882080077,13.296122396850587,3.1142047882080077Q15.213422396850586,3.1142047882080077,16.569122396850588,4.469903788208008Q17.924822396850587,5.8256047882080075,17.924822396850587,7.7428347882080075Q17.924822396850587,10.724654788208007,15.050122396850586,13.627744788208007Q13.917722396850586,14.771304788208008,12.553752396850586,15.660704788208008Q11.275302396850586,16.494304788208005,10.189212396850586,16.855204788208006Q10.000002396850586,16.91810478820801,9.810782396850586,16.855204788208006Q8.724702396850585,16.494304788208005,7.446242396850586,15.660704788208008Q6.082272396850586,14.771304788208008,4.949892396850586,13.627744788208007Q2.075222396850586,10.724664788208008,2.075222396850586,7.7428347882080075Q2.075222396850586,5.8256047882080075,3.430916396850586,4.469903788208008Q4.786612396850586,3.1142047882080077,6.703852396850586,3.1142047882080077Q7.857512396850586,3.1142047882080077,8.870702396850586,3.6518139882080076Q9.507052396850586,3.989472788208008,10.000002396850586,4.491014788208008ZM6.703852396850586,4.3142047882080075Q8.483282396850587,4.3142047882080075,9.509432396850585,5.771394788208008Q9.569392396850585,5.856544788208008,9.654542396850587,5.916504788208008Q9.702862396850586,5.950524788208008,9.756882396850585,5.974474788208008Q9.810912396850586,5.998414788208008,9.868572396850585,6.011364788208008Q9.926232396850587,6.024304788208008,9.985312396850585,6.025754788208008Q10.044382396850587,6.027194788208008,10.102612396850585,6.0170947882080075Q10.160832396850587,6.006984788208008,10.215962396850585,5.985714788208008Q10.271102396850587,5.964444788208008,10.321022396850587,5.932824788208007Q10.370952396850587,5.901204788208007,10.413752396850587,5.860454788208008Q10.456542396850587,5.819704788208008,10.490572396850585,5.771394788208008Q11.516712396850586,4.3142047882080075,13.296122396850587,4.314205788208008Q14.716322396850586,4.3142047882080075,15.720522396850585,5.318434788208008Q16.724822396850584,6.322654788208007,16.724822396850584,7.7428347882080075Q16.724822396850584,10.231054788208008,14.197422396850586,12.783394788208009Q13.155122396850587,13.836004788208008,11.898332396850586,14.655504788208008Q10.864202396850587,15.329704788208009,10.000002396850586,15.649904788208008Q9.135792396850587,15.329704788208009,8.101662396850585,14.655504788208008Q6.8449023968505855,13.836004788208008,5.802582396850585,12.783394788208009Q3.275222396850586,10.231054788208008,3.275222396850586,7.7428347882080075Q3.275222396850586,6.322654788208007,4.279442396850586,5.318434788208008Q5.283672396850585,4.3142047882080075,6.703852396850586,4.3142047882080075Z" fill-rule="evenodd" fill="#4B6EEF" fill-opacity="1"/></g></g></svg>