<svg xmlns="http://www.w3.org/2000/svg" xmlns:xlink="http://www.w3.org/1999/xlink" version="1.1" fill="currentColor"> width="20" height="20" viewBox="0 0 20 20"><defs><clipPath id="master_svg0_259_44575"><rect x="0" y="0" width="20" height="20" rx="0"/></clipPath></defs><g clip-path="url(#master_svg0_259_44575)"><g><path d="M3.333759765625,2.500009765625C3.333759765625,2.039541765625,2.960479765625,1.666259765625,2.500009765625,1.666259765625C2.039542765625,1.666259765625,1.666259765625,2.039541765625,1.666259765625,2.500009765625L1.666259765625,11.725059765625C1.666259765625,13.049959765625,1.666259765625,14.126259765625,1.781259765625,14.976259765625C1.9000097656250001,15.863759765625,2.156259765625,16.626259765625,2.765009765625,17.233759765625003C3.372509765625,17.841259765625,4.135009765625,18.098759765625,5.021259765625,18.217459765625C5.871259765625,18.332459765625,6.948759765625,18.332459765625,8.273759765625,18.332459765625L17.498759765625,18.332459765625C17.959259765625,18.332459765625,18.332559765625,17.959259765625,18.332559765625,17.498759765625C18.332559765625,17.038259765625,17.959259765625,16.664959765625,17.498759765625,16.664959765625L8.335009765625,16.664959765625C6.935009765625,16.664959765625,5.971259765625,16.663759765625002,5.245009765624999,16.564959765624998C4.5437597656249995,16.471259765625,4.191259765625,16.302459765625002,3.945009765625,16.054959765625C3.698759765625,15.808759765625,3.528759765625,15.456259765625,3.433759765625,14.754959765625C3.336259765625,14.029959765625,3.333759765625,13.063759765625,3.333759765625,11.665009765625L3.333759765625,2.500009765625Z"/></g><g><path d="M15.41856875,8.669912109375C15.43696875,8.197142109375001,15.05860875,7.8038821093749995,14.58547875,7.8038821093749995C14.11235875,7.8038821093749995,13.73403875,8.197142109375001,13.75235875,8.669912109375L13.75235875,13.669912109375C13.76969875,14.117482109375,14.13756875,14.471382109375,14.58547875,14.471382109375C15.03338875,14.471382109375,15.40126875,14.117482109375,15.41856875,13.669912109375L15.41856875,8.669912109375ZM10.41860875,4.503662109375C10.87860875,4.503662109375,11.252358749999999,4.877412109375,11.252358749999999,5.337412109375L11.252358749999999,13.671162109375C11.252358749999999,14.131632109375,10.87907875,14.504862109375,10.41860875,14.504862109375C9.95813875,14.504862109375,9.58485875,14.131632109375,9.58485875,13.671162109375L9.58485875,5.337412109375C9.58485875,4.877412109375,9.95860875,4.503662109375,10.41860875,4.503662109375ZM7.08485875,10.337412109375C7.06751875,9.889842109375,6.69963875,9.535942109375,6.25173175,9.535942109375C5.80382175,9.535942109375,5.43594625,9.889842109375,5.418606949,10.337412109375L5.418606949,13.671162109375C5.40029145,14.143932109375,5.77860575,14.537162109375,6.25173175,14.537162109375C6.72485875,14.537162109375,7.10316875,14.143932109375,7.08485875,13.671162109375L7.08485875,10.337412109375Z"/></g></g></svg>