<svg class="svg-icon quick-bi-tubiao6-svg" viewBox="0 0 1024 1024" aria-hidden="true" width="1em" height="1em" fill="currentColor" data-spm-anchor-id="0.0.0.i20.43054666FWX06X"><path d="M951.36 817.472H206.016V136.704A8.704 8.704 0 0 0 197.312 128h-60.672A8.704 8.704 0 0 0 128 136.704v750.592c0 4.8 3.84 8.704 8.64 8.704h814.72a8.704 8.704 0 0 0 8.64-8.704v-61.12a8.704 8.704 0 0 0-8.64-8.704zM301.312 730.176h60.672a8.704 8.704 0 0 0 8.704-8.704V564.352a8.704 8.704 0 0 0-8.704-8.704h-60.672a8.704 8.704 0 0 0-8.64 8.704v157.12c0 4.8 3.84 8.704 8.64 8.704z m164.672 0h60.672a8.704 8.704 0 0 0 8.704-8.704V372.352a8.704 8.704 0 0 0-8.704-8.704h-60.672a8.704 8.704 0 0 0-8.64 8.704v349.12c0 4.8 3.84 8.704 8.64 8.704z m164.672 0h60.672a8.704 8.704 0 0 0 8.704-8.704V457.472a8.704 8.704 0 0 0-8.704-8.768h-60.672a8.704 8.704 0 0 0-8.64 8.768v264c0 4.8 3.84 8.704 8.64 8.704z m164.672 0h60.672a8.704 8.704 0 0 0 8.64-8.704V285.12a8.704 8.704 0 0 0-8.64-8.768h-60.672a8.704 8.704 0 0 0-8.64 8.768v436.352c0 4.8 3.84 8.704 8.64 8.704z" data-spm-anchor-id="0.0.0.i19.43054666FWX06X"></path></svg>