<svg xmlns="http://www.w3.org/2000/svg" xmlns:xlink="http://www.w3.org/1999/xlink" fill="none" version="1.1" width="19.996917724609375" height="19.996917724609375" viewBox="0 0 19.996917724609375 19.996917724609375"><defs><clipPath id="master_svg0_960_09192"><rect x="0" y="0" width="19.996917724609375" height="19.996917724609375" rx="0"/></clipPath></defs><g clip-path="url(#master_svg0_960_09192)"><g transform="matrix(-1,-5.2146120310681e-8,5.2146120310681e-8,-1,19.247008228065397,40.24377491589093)"><path d="M18.497134638671874,28.62057720703125L12.248104638671876,28.62057720703125L17.372314638671874,23.49636720703125C17.622274638671875,23.24640720703125,17.622274638671875,22.74648720703125,17.372314638671874,22.49651720703125C17.122344638671876,22.12157720703125,16.622424638671873,22.12157720703125,16.247484638671875,22.49651720703125L11.123274638671875,27.62072720703125L11.123274638671875,20.87177220703125C11.123274638671875,20.496830207031252,10.748334638671874,20.12188720703125,10.373388638671875,20.12188720703125C9.998446638671876,20.12188720703125,9.623504638671875,20.496830207031252,9.623504638671875,20.87177220703125L9.623504638671875,27.99567720703125C9.623504638671875,28.99551720703125,10.373388638671875,30.24528720703125,11.498214638671875,30.24528720703125L18.497134638671874,30.24528720703125C18.872074638671876,30.24528720703125,19.247024638671874,29.87038720703125,19.247024638671874,29.49543720703125C19.247024638671874,28.99551720703125,18.872074638671876,28.62057720703125,18.497134638671874,28.62057720703125Z" fill="#666666" fill-opacity="1"/></g><g transform="matrix(1,-5.2146120310681e-8,5.2146120310681e-8,1,6.518265038835125e-9,5.213816344495914e-7)"><path d="M18.87210412109375,8.37369L12.623074121093751,8.37369L17.74728412109375,3.24948C17.99724412109375,2.99952,17.99724412109375,2.4996,17.74728412109375,2.24963C17.49731412109375,1.87469,16.99739412109375,1.87469,16.62245412109375,2.24963L11.49824412109375,7.37384L11.49824412109375,0.624885C11.49824412109375,0.24994300000000003,11.12330412109375,-0.125,10.74835812109375,-0.125C10.37341612109375,-0.125,9.99847412109375,0.24994300000000003,9.99847412109375,0.624885L9.99847412109375,7.74879C9.99847412109375,8.74863,10.74835812109375,9.9984,11.87318412109375,9.9984L18.87210412109375,9.9984C19.24704412109375,9.9984,19.62199412109375,9.6235,19.62199412109375,9.24855C19.62199412109375,8.74863,19.24704412109375,8.37369,18.87210412109375,8.37369Z" fill="#666666" fill-opacity="1"/></g></g></svg>