<svg xmlns="http://www.w3.org/2000/svg" xmlns:xlink="http://www.w3.org/1999/xlink" fill="none" version="1.1" width="34" height="34" viewBox="0 0 34 34"><defs><clipPath id="master_svg0_288_02988"><rect x="0" y="0" width="34" height="34" rx="0"/></clipPath></defs><g clip-path="url(#master_svg0_288_02988)"><g><path d="M16.893678671875,4.6886115625C20.873038671875,4.6886115625,24.110738671875,7.9262515625,24.110738671875,11.9056415625C24.110738671875,15.8850015625,20.873038671875,19.1227015625,16.893678671875,19.1227015625C12.914288671875,19.1227015625,9.676648671875,15.8850015625,9.676648671875,11.9056415625C9.676648671875,7.9262515625,12.914288671875,4.6886115625,16.893678671875,4.6886115625ZM16.893678671875,2.1416015625C11.501158671875,2.1416015625,7.129638671875,6.5131215625,7.129638671875,11.9056415625C7.129638671875,17.298201562499997,11.501158671875,21.6697015625,16.893678671875,21.6697015625C22.286238671874997,21.6697015625,26.657738671875,17.298201562499997,26.657738671875,11.9056415625C26.657738671875,6.5131215625,22.286238671874997,2.1416015625,16.893678671875,2.1416015625Z" fill="#4B6EEF" fill-opacity="1"/></g><g><path d="M3.52287859375,31.8583806640625C3.44949859375,31.8583806640625,3.37478859375,31.8520806640625,3.30007859375,31.8387806640625C2.6074655937499998,31.716580664062498,2.14494659375,31.0558806640625,2.26713399375,30.3632806640625C3.5557485937499997,23.0622306640625,10.76480859375,19.1226806640625,16.89375859375,19.1226806640625C17.59705859375,19.1226806640625,18.16745859375,19.6927786640625,18.16745859375,20.3963506640625C18.16745859375,21.0999306640625,17.597358593750002,21.6700206640625,16.89375859375,21.6700206640625C12.83165859375,21.6700206640625,5.95002859375,24.1503006640625,4.77562859375,30.806480664062498C4.666728593749999,31.423780664062498,4.12916859375,31.8583806640625,3.52287859375,31.8583806640625Z" fill="#4B6EEF" fill-opacity="1"/></g><g><path d="M30.47711953125,31.858414453125C29.87041953125,31.858414453125,29.333219531250002,31.423714453125,29.22431953125,30.805814453125002C28.049619531250002,24.149934453125,21.16792953125,21.669654453125,17.10618953125,21.669654453125C16.40294953125,21.669654453125,15.83251953125,21.099564453125,15.83251953125,20.395984453125C15.83251953125,19.692412453125,16.40261753125,19.122314453125,17.10618953125,19.122314453125C23.235159531249998,19.122314453125,30.444519531250002,23.061864453125,31.73281953125,30.362914453125C31.85501953125,31.055514453125,31.392519531250002,31.716214453124998,30.69991953125,31.838414453125C30.62521953125,31.852014453125,30.55041953125,31.858414453125,30.47711953125,31.858414453125Z" fill="#4B6EEF" fill-opacity="1"/></g></g></svg>