<svg class="svg-icon quick-bi-juzhong-svg" viewBox="0 0 1024 1024" aria-hidden="true" width="1em" height="1em" fill="currentColor" data-spm-anchor-id="0.0.0.i48.4d4146660EYYNy"><path d="M1024.219429 109.275429a64 64 0 0 1-64 64H64.512a64 64 0 1 1 0-128h895.707429c35.401143 0 64 28.672 64 64z m-219.282286 407.04a64 64 0 0 1-64 64H283.794286a64 64 0 0 1 0-128h457.142857c35.328 0 64 28.672 64 64z m73.142857 397.531428a64 64 0 0 1-64 64H210.651429a64 64 0 1 1 0-128h603.428571c35.328 0 64 28.672 64 64z" data-spm-anchor-id="0.0.0.i58.4d4146660EYYNy"></path></svg>