<svg class="svg-icon quick-bi-zuoduiqi2-svg" viewBox="0 0 1024 1024" aria-hidden="true" width="1em" height="1em" fill="currentColor" data-spm-anchor-id="0.0.0.i47.4d4146660EYYNy"><path d="M731.245714 909.677714c0 35.181714-28.525714 63.707429-63.707428 63.780572l-603.648 0.438857a63.634286 63.634286 0 1 1 0-127.488l603.648-0.438857c35.108571 0 63.634286 28.525714 63.707428 63.634285z m292.571429-804.571428c0 35.181714-28.525714 63.707429-63.634286 63.707428L64.036571 169.325714a64 64 0 1 1 0-128h896c35.181714 0 63.780571 28.525714 63.780572 63.780572zM584.886857 512.146286c0 35.254857-28.525714 63.780571-63.634286 63.780571L63.597714 576.365714A63.634286 63.634286 0 0 1 0.109714 512.731429c0-35.254857 28.598857-63.780571 63.853715-63.780572l457.216-0.438857a63.634286 63.634286 0 0 1 63.707428 63.634286z" data-spm-anchor-id="0.0.0.i151.4d4146660EYYNy"></path></svg>