<svg class="svg-icon quick-bi-pageviews-svg" viewBox="0 0 1024 1024" aria-hidden="true" width="1em" height="1em" fill="currentColor">
          <path d="M275.549091 534.155636h485.003636V420.026182H275.549091v114.129454z m0 256.930909h485.003636V676.770909H275.549091v114.222546z m-49.617455-656.47709c0 1.210182-0.372364 2.420364-0.372363 3.723636v49.710545c0 57.064727 46.545455 103.517091 103.517091 103.517091h363.613091c57.157818 0 103.610182-46.452364 103.610181-103.517091v-49.710545c0-1.303273-0.372364-2.513455-0.372363-3.723636h49.058909a72.610909 72.610909 0 0 1 72.610909 72.610909v739.421091a72.610909 72.610909 0 0 1-72.610909 72.610909H191.115636a72.610909 72.610909 0 0 1-72.610909-72.610909V207.220364a72.610909 72.610909 0 0 1 72.610909-72.610909z m466.757819-42.821819c24.389818 0 44.218182 18.897455 46.08 42.821819 0.093091 1.210182 0.372364 2.420364 0.372363 3.723636v49.710545a46.545455 46.545455 0 0 1-46.452363 46.452364H329.076364a46.545455 46.545455 0 0 1-46.545455-46.452364v-49.710545c0-1.303273 0.279273-2.513455 0.372364-3.723636a46.452364 46.452364 0 0 1 46.173091-42.821819z"></path></svg>