<svg class="svg-icon quick-bi-tianmaochaoshi-svg" viewBox="0 0 1024 1024" aria-hidden="true" width="1em" height="1em" fill="currentColor">
          <path d="M163.081481 151.703704v692.148148c0 3.792593 3.792593 7.585185 7.585186 7.585185h692.148148c3.792593 0 7.585185-3.792593 7.585185-7.585185V151.703704c0-3.792593-3.792593-7.585185-7.585185-7.585185H170.666667c-3.792593 0-7.585185 3.792593-7.585186 7.585185zM94.814815 151.703704c0-41.718519 34.133333-75.851852 75.851852-75.851852h692.148148c41.718519 0 75.851852 34.133333 75.851852 75.851852v692.148148c0 41.718519-34.133333 75.851852-75.851852 75.851852H170.666667c-41.718519 0-75.851852-34.133333-75.851852-75.851852V151.703704zM227.555556 701.62963c24.651852 24.651852 70.162963 51.2 132.74074 75.851851h322.370371c56.888889 0 113.777778-56.888889 132.74074-75.851851s37.925926-56.888889 56.888889-56.888889c13.274074 0 24.651852 5.688889 37.925926 18.962963v189.629629h-56.888889c-13.274074-37.925926-37.925926-56.888889-75.851852-56.888889 13.274074 13.274074 18.962963 32.237037 18.962963 56.888889h-56.888888c0-24.651852 5.688889-43.614815 18.962963-56.888889-18.962963 0-75.851852 18.962963-75.851852 56.888889H341.333333c-13.274074-37.925926-37.925926-56.888889-75.851852-56.888889 13.274074 13.274074 18.962963 32.237037 18.962963 56.888889-37.925926 24.651852-56.888889 24.651852-56.888888 0 0-37.925926 18.962963-56.888889 18.962963-56.888889-37.925926 0-62.577778 18.962963-75.851852 56.888889H132.740741l18.962963-227.555555 75.851852 75.851852zM367.881481 329.955556l17.066667 28.444444c26.548148-15.17037 45.511111-41.718519 49.303704-70.162963h51.2v24.651852c0 7.585185-5.688889 15.17037-13.274074 17.066667l15.17037 28.444444c18.962963-7.585185 32.237037-24.651852 32.237037-45.511111v-56.888889h-146.014815v32.237037h28.444445c-3.792593 17.066667-15.17037 37.925926-32.237037 47.407407l-1.896297-5.688888z m11.377778 166.874074h85.333334c30.340741 0 53.096296-24.651852 53.096296-51.2v-70.162963H379.259259v121.362963z m104.296297-89.125926v34.133333c0 9.481481-7.585185 22.755556-18.962963 22.755556h-54.992593v-56.888889h73.955556z m-178.251852 34.133333v54.992593c26.548148 13.274074 56.888889 18.962963 85.333333 18.962963h125.155556v32.237037h-125.155556c-47.407407 0-104.296296-13.274074-142.222222-41.718519 0 17.066667-5.688889 30.340741-22.755556 39.822222l-24.651852-28.444444c7.585185-5.688889 17.066667-13.274074 15.170371-22.755556v-85.333333h32.237037v53.096296c5.688889 3.792593 17.066667 11.377778 24.651852 11.377778v-96.711111h-56.888889v-32.237037h56.888889V303.407407h-56.888889v-32.237037h56.888889V246.518519h32.237037v24.651851h56.888889V303.407407h-56.888889v39.822223h56.888889v32.237037h-56.888889v32.237037h56.888889v32.237037h-56.888889z m519.585185-170.666667V303.407407h-121.362963v32.237037h104.296296v130.844445c0 15.17037-3.792593 28.444444-13.274074 39.822222l-11.377778 11.377778-18.962963-24.651852 1.896297-1.896296c5.688889-5.688889 9.481481-18.962963 9.481481-24.651852v-98.607408H701.62963v178.251852h-32.237037v-178.251852h-73.955556v146.014815h-32.237037v-178.251852h106.192593V303.407407H549.925926v-32.237037h121.362963V246.518519h32.237037v24.651851h121.362963z"></path></svg>