<svg xmlns="http://www.w3.org/2000/svg" xmlns:xlink="http://www.w3.org/1999/xlink" fill="none" version="1.1" width="34.2275390625" height="34.2275390625" viewBox="0 0 34.2275390625 34.2275390625"><defs><clipPath id="master_svg0_1418_51583"><rect x="0" y="0" width="34.2275390625" height="34.2275390625" rx="0"/></clipPath></defs><g clip-path="url(#master_svg0_1418_51583)"><g><path d="M17.1144015625,7.872146796875C21.0778015625,7.872146796875,24.3022015625,11.096556796875,24.3022015625,15.059966796875L24.3022015625,23.879666796875L24.9503015625,24.570866796875L26.3019015625,26.012766796875L7.9268915625,26.012766796875L9.2785415625,24.570866796875L9.9266415625,23.879666796875L9.9266415625,15.059966796875C9.9266415625,11.096556796875,13.1510415625,7.872146796875,17.1144015625,7.872146796875ZM17.1144015625,5.476216796875001C11.821471562500001,5.476216796875001,7.5307115625000005,9.766986796874999,7.5307115625000005,15.059966796875L7.5307115625000005,22.932266796875L5.6386145625,24.950466796875C4.4089895625,26.262066796875,5.3389525625,28.408666796875,7.1369215624999995,28.408666796875L27.0921015625,28.408666796875C28.8899015625,28.408666796875,29.8199015625,26.262066796875,28.5902015625,24.950466796875L26.6981015625,22.932266796875L26.6981015625,15.059966796875C26.6981015625,9.766986796874999,22.4074015625,5.476216796875001,17.1144015625,5.476216796875001ZM19.5103015625,29.777766796875L14.7184915625,29.777766796875C14.0568815625,29.777766796875,13.5205315625,30.314166796875,13.5205315625,30.975766796875C13.5205315625,31.637366796875,14.0568815625,32.173666796875,14.7184915625,32.173666796875L19.5103015625,32.173666796875C20.1720015625,32.173666796875,20.7083015625,31.637366796875,20.7083015625,30.975766796875C20.7083015625,30.314166796875,20.1720015625,29.777766796875,19.5103015625,29.777766796875ZM17.9701015625,2.053466796875L16.2587015625,2.053466796875C15.5971015625,2.053466796875,15.0607715625,2.589813796875,15.0607715625,3.251426796875C15.0607715625,3.9130467968750002,15.5971015625,4.449396796875,16.2587015625,4.449396796875L17.9701015625,4.449396796875C18.631701562499998,4.449396796875,19.1681015625,3.9130467968750002,19.1681015625,3.251426796875C19.1681015625,2.589813796875,18.631701562499998,2.053466796875,17.9701015625,2.053466796875Z" fill="#FF8800" fill-opacity="1"/></g></g></svg>